<?xml version="1.0" encoding="UTF-8"?>
<svg xmlns="http://www.w3.org/2000/svg" width="590" height="590" viewBox="215 211 590 590">
  <path d="M 500.0 224.0 L 463.0 234.0 L 428.0 259.0 L 405.0 293.0 L 395.0 332.0 L 358.0 340.0 L 331.0 355.0 L 311.0 373.0 L 286.0 410.0 L 255.0 472.0 L 246.0 498.0 L 245.0 524.0 L 253.0 544.0 L 272.0 561.0 L 292.0 567.0 L 309.0 566.0 L 324.0 560.0 L 336.0 550.0 L 367.0 499.0 L 377.0 567.0 L 387.0 611.0 L 400.0 652.0 L 412.0 678.0 L 426.0 696.0 L 449.0 711.0 L 465.0 715.0 L 484.0 713.0 L 485.0 748.0 L 494.0 768.0 L 502.0 777.0 L 519.0 787.0 L 545.0 790.0 L 558.0 787.0 L 575.0 777.0 L 588.0 762.0 L 596.0 746.0 L 616.0 684.0 L 639.0 597.0 L 654.0 500.0 L 657.0 501.0 L 683.0 546.0 L 698.0 560.0 L 719.0 567.0 L 741.0 565.0 L 761.0 554.0 L 776.0 531.0 L 778.0 508.0 L 774.0 489.0 L 760.0 455.0 L 735.0 407.0 L 713.0 374.0 L 693.0 356.0 L 667.0 341.0 L 641.0 333.0 L 627.0 332.0 L 622.0 305.0 L 612.0 282.0 L 595.0 259.0 L 579.0 245.0 L 540.0 227.0 Z M 610.0 616.0 L 595.0 679.0 L 571.0 748.0 L 558.0 763.0 L 546.0 768.0 L 533.0 768.0 L 520.0 763.0 L 510.0 753.0 L 506.0 740.0 L 513.0 651.0 L 538.0 649.0 L 569.0 641.0 L 587.0 633.0 Z M 411.0 616.0 L 449.0 638.0 L 490.0 648.0 L 492.0 654.0 L 488.0 689.0 L 468.0 694.0 L 445.0 684.0 L 429.0 665.0 Z M 266.0 507.0 L 282.0 464.0 L 317.0 400.0 L 344.0 372.0 L 368.0 359.0 L 396.0 352.0 L 403.0 379.0 L 415.0 402.0 L 432.0 422.0 L 453.0 438.0 L 482.0 450.0 L 525.0 453.0 L 560.0 443.0 L 592.0 421.0 L 612.0 395.0 L 623.0 368.0 L 625.0 355.0 L 631.0 353.0 L 671.0 367.0 L 686.0 378.0 L 704.0 398.0 L 747.0 478.0 L 755.0 501.0 L 756.0 521.0 L 749.0 535.0 L 736.0 544.0 L 722.0 546.0 L 710.0 542.0 L 696.0 527.0 L 657.0 462.0 L 651.0 458.0 L 644.0 458.0 L 636.0 467.0 L 625.0 560.0 L 608.0 588.0 L 585.0 609.0 L 566.0 619.0 L 537.0 627.0 L 507.0 629.0 L 482.0 626.0 L 456.0 618.0 L 436.0 607.0 L 413.0 586.0 L 398.0 561.0 L 387.0 466.0 L 381.0 459.0 L 371.0 458.0 L 365.0 463.0 L 323.0 532.0 L 309.0 544.0 L 296.0 546.0 L 277.0 538.0 L 268.0 526.0 Z M 498.0 246.0 L 535.0 248.0 L 565.0 262.0 L 589.0 286.0 L 600.0 307.0 L 604.0 322.0 L 603.0 360.0 L 590.0 390.0 L 560.0 419.0 L 528.0 431.0 L 491.0 430.0 L 456.0 414.0 L 431.0 387.0 L 419.0 356.0 L 419.0 320.0 L 433.0 287.0 L 451.0 267.0 L 464.0 258.0 Z" fill="#000000" fill-rule="evenodd" />
</svg>