<?xml version="1.0" encoding="UTF-8"?>
<svg xmlns="http://www.w3.org/2000/svg" width="210" height="210" viewBox="39 -28 210 210">
  <path d="M 128.0 31.0 L 118.0 36.0 L 103.0 54.0 L 99.0 68.0 L 103.0 93.0 L 118.0 111.0 L 129.0 116.0 L 160.0 116.0 L 173.0 108.0 L 185.0 92.0 L 189.0 68.0 L 184.0 52.0 L 173.0 39.0 L 160.0 31.0 Z" fill="#373838" />
  <path d="M 178.0 36.0 L 178.0 41.0 L 185.0 49.0 L 191.0 65.0 L 191.0 82.0 L 182.0 106.0 L 232.0 99.0 L 244.0 81.0 L 245.0 60.0 L 242.0 54.0 L 222.0 42.0 Z M 110.0 36.0 L 68.0 41.0 L 53.0 46.0 L 44.0 56.0 L 42.0 64.0 L 43.0 81.0 L 48.0 92.0 L 63.0 102.0 L 106.0 106.0 L 97.0 85.0 L 96.0 69.0 L 100.0 54.0 Z" fill="#b3b3b3" />
</svg>