<?xml version="1.0" encoding="UTF-8"?>
<svg xmlns="http://www.w3.org/2000/svg" width="220" height="220" viewBox="18 -3 220 220">
  <path d="M 80.0 137.0 L 92.0 175.0 L 113.0 175.0 L 114.0 178.0 L 120.0 145.0 L 133.0 144.0 L 118.0 144.0 L 104.0 138.0 Z M 143.0 33.0 L 134.0 50.0 L 147.0 54.0 L 160.0 63.0 L 174.0 63.0 L 163.0 33.0 L 162.0 35.0 L 144.0 35.0 Z" fill="#cbcbcb" />
  <path d="M 95.0 177.0 L 98.0 187.0 L 109.0 187.0 L 112.0 180.0 L 112.0 177.0 Z M 114.0 54.0 L 98.0 63.0 L 92.0 69.0 L 87.0 77.0 L 83.0 89.0 L 84.0 110.0 L 87.0 118.0 L 95.0 129.0 L 109.0 139.0 L 119.0 142.0 L 135.0 142.0 L 144.0 140.0 L 155.0 134.0 L 164.0 125.0 L 170.0 114.0 L 173.0 104.0 L 173.0 91.0 L 171.0 83.0 L 164.0 70.0 L 159.0 64.0 L 152.0 59.0 L 138.0 53.0 Z M 153.0 10.0 L 148.0 17.0 L 145.0 32.0 L 161.0 33.0 L 162.0 29.0 L 159.0 14.0 L 157.0 11.0 Z" fill="#383838" />
  <path d="M 163.0 64.0 L 162.0 65.0 L 169.0 74.0 L 173.0 83.0 L 175.0 91.0 L 175.0 103.0 L 170.0 119.0 L 162.0 130.0 L 156.0 135.0 L 179.0 133.0 L 181.0 135.0 L 182.0 142.0 L 182.0 159.0 L 184.0 172.0 L 202.0 176.0 L 207.0 169.0 L 228.0 124.0 L 233.0 102.0 L 232.0 89.0 L 229.0 83.0 L 223.0 77.0 L 210.0 71.0 L 197.0 68.0 Z M 53.0 34.0 L 33.0 67.0 L 24.0 91.0 L 23.0 108.0 L 26.0 117.0 L 32.0 125.0 L 42.0 130.0 L 83.0 135.0 L 100.0 135.0 L 88.0 123.0 L 84.0 116.0 L 81.0 105.0 L 82.0 85.0 L 85.0 77.0 L 94.0 65.0 L 72.0 66.0 L 71.0 37.0 Z" fill="#b3b3b3" />
  <path d="M 206.0 173.0 L 203.0 177.0 L 185.0 175.0 L 185.0 177.0 L 188.0 179.0 L 189.0 183.0 L 192.0 183.0 L 197.0 181.0 L 200.0 177.0 L 203.0 177.0 Z M 55.0 32.0 L 72.0 36.0 L 68.0 32.0 L 67.0 27.0 L 62.0 27.0 Z" fill="#ebd4af" />
</svg>