<?xml version="1.0" encoding="UTF-8"?>
<svg xmlns="http://www.w3.org/2000/svg" width="620" height="620" viewBox="201 198 620 620">
  <path d="M 351.0 337.0 L 332.0 348.0 L 315.0 363.0 L 302.0 379.0 L 288.0 402.0 L 267.0 442.0 L 250.0 482.0 L 247.0 496.0 L 247.0 511.0 L 250.0 522.0 L 253.0 528.0 L 262.0 538.0 L 274.0 545.0 L 285.0 548.0 L 296.0 548.0 L 309.0 544.0 L 324.0 532.0 L 369.0 465.0 L 371.0 464.0 L 374.0 472.0 L 378.0 524.0 L 388.0 585.0 L 400.0 632.0 L 413.0 666.0 L 423.0 682.0 L 439.0 696.0 L 458.0 703.0 L 476.0 703.0 L 479.0 702.0 L 485.0 644.0 L 490.0 643.0 L 506.0 645.0 L 507.0 649.0 L 494.0 752.0 L 494.0 768.0 L 497.0 779.0 L 502.0 788.0 L 512.0 798.0 L 521.0 803.0 L 530.0 806.0 L 550.0 806.0 L 559.0 803.0 L 572.0 795.0 L 585.0 779.0 L 601.0 733.0 L 629.0 614.0 L 641.0 554.0 L 651.0 465.0 L 653.0 464.0 L 694.0 526.0 L 707.0 540.0 L 721.0 547.0 L 738.0 548.0 L 749.0 545.0 L 761.0 538.0 L 769.0 529.0 L 775.0 515.0 L 776.0 497.0 L 774.0 486.0 L 761.0 453.0 L 732.0 397.0 L 711.0 366.0 L 699.0 354.0 L 684.0 343.0 L 661.0 333.0 L 647.0 330.0 L 639.0 330.0 L 636.0 348.0 L 624.0 376.0 L 612.0 393.0 L 591.0 413.0 L 571.0 426.0 L 557.0 432.0 L 536.0 438.0 L 519.0 440.0 L 495.0 439.0 L 469.0 433.0 L 453.0 426.0 L 431.0 412.0 L 414.0 396.0 L 399.0 376.0 L 387.0 348.0 L 384.0 330.0 L 370.0 331.0 Z M 485.0 213.0 L 462.0 221.0 L 439.0 236.0 L 421.0 256.0 L 413.0 270.0 L 405.0 295.0 L 404.0 324.0 L 406.0 336.0 L 412.0 354.0 L 424.0 375.0 L 439.0 391.0 L 457.0 404.0 L 469.0 410.0 L 499.0 418.0 L 525.0 418.0 L 537.0 416.0 L 555.0 410.0 L 576.0 398.0 L 594.0 382.0 L 603.0 370.0 L 615.0 344.0 L 619.0 325.0 L 619.0 304.0 L 616.0 288.0 L 612.0 276.0 L 600.0 254.0 L 585.0 238.0 L 565.0 224.0 L 540.0 214.0 L 523.0 211.0 L 498.0 211.0 Z" fill="#666666" fill-rule="evenodd" />
</svg>