<?xml version="1.0" encoding="UTF-8"?>
<svg xmlns="http://www.w3.org/2000/svg" width="601" height="870" viewBox="211 63 601 870" preserveAspectRatio="none">
  <path d="M 771.0 633.0 C 770.5 632.3 , 763.6 627.0 , 763.0 626.7 C 761.9 626.1 , 749.2 620.7 , 748.0 620.4 C 746.9 620.2 , 734.1 620.2 , 733.0 620.4 C 732.5 620.4 , 726.5 623.2 , 726.0 623.5 C 725.4 623.9 , 719.0 628.9 , 719.0 629.8 C 718.5 641.7 , 719.2 776.4 , 719.0 788.3 C 719.0 789.9 , 716.4 807.3 , 716.0 808.7 C 715.5 810.4 , 708.7 829.1 , 708.0 830.7 C 707.4 831.9 , 698.9 845.4 , 698.0 846.4 C 697.1 847.5 , 686.0 856.7 , 685.0 857.4 C 684.1 857.8 , 673.9 861.9 , 673.0 862.1 C 670.1 862.4 , 636.8 860.8 , 634.0 862.1 C 633.2 862.4 , 634.8 878.1 , 635.0 879.3 C 635.2 880.6 , 638.6 893.9 , 639.0 895.0 C 639.3 896.0 , 643.5 905.2 , 644.0 906.0 C 644.7 907.1 , 653.2 917.8 , 654.0 918.6 C 654.4 919.0 , 659.5 923.0 , 660.0 923.3 C 660.9 923.8 , 671.1 928.0 , 672.0 928.0 C 676.9 928.3 , 733.1 928.3 , 738.0 928.0 C 739.2 927.8 , 752.8 922.3 , 754.0 921.7 C 754.9 921.2 , 765.1 913.1 , 766.0 912.3 C 766.9 911.5 , 776.3 900.8 , 777.0 899.7 C 778.1 898.2 , 789.2 878.1 , 790.0 876.2 C 790.9 874.0 , 799.4 847.3 , 800.0 844.8 C 800.5 842.6 , 804.7 817.2 , 805.0 815.0 C 805.2 813.4 , 805.9 794.6 , 806.0 793.0 C 806.0 792.9 , 807.0 791.6 , 807.0 791.5 C 807.0 786.9 , 806.3 734.8 , 806.0 730.3 C 805.8 727.6 , 801.5 698.2 , 801.0 695.7 C 800.7 694.3 , 796.5 678.3 , 796.0 676.9 C 795.3 675.0 , 786.9 654.9 , 786.0 653.4 C 785.0 651.6 , 772.2 634.4 , 771.0 633.0 Z M 252.0 633.0 C 251.4 633.4 , 245.5 640.2 , 245.0 640.8 C 244.3 641.7 , 236.6 653.8 , 236.0 654.9 C 235.3 656.2 , 228.5 672.2 , 228.0 673.8 C 227.3 676.0 , 220.5 702.8 , 220.0 705.1 C 219.7 706.9 , 217.1 727.0 , 217.0 728.7 C 216.9 729.6 , 217.1 740.3 , 217.0 741.2 C 217.0 741.4 , 216.0 742.7 , 216.0 742.8 C 216.0 747.8 , 216.6 803.9 , 217.0 808.7 C 217.2 811.9 , 223.3 846.5 , 224.0 849.5 C 224.4 851.2 , 230.4 869.9 , 231.0 871.5 C 231.5 872.7 , 237.4 886.1 , 238.0 887.2 C 239.0 888.9 , 250.9 906.2 , 252.0 907.6 C 252.8 908.5 , 263.0 917.9 , 264.0 918.6 C 265.2 919.4 , 278.8 925.9 , 280.0 926.4 C 280.4 926.6 , 284.6 926.3 , 285.0 926.4 C 285.1 926.4 , 285.9 928.0 , 286.0 928.0 C 290.9 928.1 , 347.1 928.1 , 352.0 928.0 C 352.6 928.0 , 359.4 925.2 , 360.0 924.8 C 360.8 924.4 , 369.3 917.8 , 370.0 917.0 C 370.9 916.1 , 380.2 902.6 , 381.0 901.3 C 381.4 900.7 , 384.8 892.7 , 385.0 891.9 C 385.3 891.0 , 387.9 880.3 , 388.0 879.3 C 388.2 878.1 , 389.8 862.4 , 389.0 862.1 C 386.2 860.8 , 352.9 862.4 , 350.0 862.1 C 349.0 861.9 , 337.9 858.0 , 337.0 857.4 C 336.1 856.9 , 326.7 848.9 , 326.0 848.0 C 325.0 846.7 , 314.8 830.7 , 314.0 829.1 C 313.3 827.7 , 307.4 810.3 , 307.0 808.7 C 306.7 807.3 , 304.0 791.3 , 304.0 789.9 C 303.8 778.0 , 304.2 643.3 , 304.0 631.4 C 304.0 630.9 , 301.3 626.8 , 301.0 626.7 C 300.2 626.1 , 290.9 620.6 , 290.0 620.4 C 288.9 620.1 , 276.1 620.2 , 275.0 620.4 C 273.8 620.7 , 261.1 626.1 , 260.0 626.7 C 259.4 627.0 , 252.6 632.5 , 252.0 633.0 Z M 334.0 170.0 C 331.8 172.7 , 327.4 178.8 , 326.0 182.6 C 323.8 188.4 , 320.1 200.9 , 320.0 207.7 C 318.6 352.4 , 319.5 642.1 , 320.0 786.8 C 320.0 790.4 , 321.2 797.6 , 322.0 800.9 C 322.9 804.6 , 325.3 811.9 , 327.0 815.0 C 329.4 819.4 , 334.9 827.6 , 338.0 830.7 C 340.5 833.2 , 346.1 837.0 , 349.0 837.0 C 430.0 838.5 , 592.0 839.6 , 673.0 837.0 C 677.4 836.8 , 685.4 829.9 , 689.0 826.0 C 691.8 823.0 , 696.4 814.8 , 698.0 810.3 C 699.9 805.0 , 702.9 793.0 , 703.0 786.8 C 704.2 642.4 , 703.7 353.6 , 703.0 209.2 C 703.0 204.7 , 701.1 196.1 , 700.0 192.0 C 699.1 188.5 , 696.5 182.3 , 695.0 179.4 C 693.3 176.3 , 689.2 170.8 , 687.0 168.4 C 685.2 166.4 , 681.1 163.3 , 679.0 162.2 C 676.8 160.9 , 672.3 159.0 , 670.0 159.0 C 590.8 158.2 , 432.2 158.2 , 353.0 159.0 C 350.5 159.0 , 345.4 160.8 , 343.0 162.2 C 340.6 163.6 , 336.0 167.5 , 334.0 170.0 Z M 653.0 79.0 C 651.8 80.4 , 639.9 99.1 , 639.0 101.0 C 638.4 102.4 , 634.2 119.8 , 634.0 121.4 C 633.9 122.3 , 633.4 133.8 , 634.0 133.9 C 636.8 134.9 , 669.2 133.6 , 672.0 133.9 C 673.0 134.1 , 684.1 138.0 , 685.0 138.6 C 686.0 139.3 , 697.1 148.5 , 698.0 149.6 C 698.9 150.6 , 707.4 164.1 , 708.0 165.3 C 708.7 166.9 , 715.5 185.6 , 716.0 187.3 C 716.4 188.7 , 719.0 206.1 , 719.0 207.7 C 719.2 219.3 , 718.8 351.4 , 719.0 363.0 C 719.0 363.5 , 721.7 367.4 , 722.0 367.7 C 722.6 368.4 , 730.3 373.9 , 731.0 374.0 C 732.5 374.3 , 749.5 374.3 , 751.0 374.0 C 752.0 373.9 , 763.1 368.4 , 764.0 367.7 C 765.0 367.1 , 775.2 357.7 , 776.0 356.8 C 776.7 356.0 , 784.4 345.3 , 785.0 344.2 C 785.6 343.3 , 791.5 331.2 , 792.0 330.1 C 792.4 329.1 , 796.7 317.1 , 797.0 316.0 C 797.5 314.2 , 802.6 294.3 , 803.0 292.4 C 803.3 290.9 , 805.8 272.2 , 806.0 270.5 C 806.1 269.7 , 805.9 260.3 , 806.0 259.5 C 806.0 259.3 , 807.0 258.1 , 807.0 257.9 C 807.1 253.5 , 807.1 202.7 , 807.0 198.3 C 807.0 198.1 , 806.0 196.9 , 806.0 196.7 C 805.9 195.9 , 806.1 186.5 , 806.0 185.7 C 805.8 183.5 , 802.4 159.5 , 802.0 157.5 C 801.8 156.2 , 798.4 142.9 , 798.0 141.8 C 797.4 139.9 , 789.9 118.4 , 789.0 116.7 C 787.8 114.3 , 772.5 90.3 , 771.0 88.4 C 770.0 87.2 , 757.2 76.6 , 756.0 75.9 C 755.3 75.4 , 746.8 71.3 , 746.0 71.2 C 744.6 70.8 , 728.4 69.7 , 727.0 69.6 C 726.9 69.6 , 726.1 68.0 , 726.0 68.0 C 725.4 67.9 , 718.6 67.9 , 718.0 68.0 C 717.9 68.0 , 717.1 69.6 , 717.0 69.6 C 716.8 69.6 , 714.2 68.0 , 714.0 68.0 C 711.4 68.0 , 681.6 69.6 , 679.0 69.6 C 678.8 69.6 , 677.2 68.0 , 677.0 68.0 C 676.9 68.0 , 676.1 69.6 , 676.0 69.6 C 675.1 69.7 , 664.9 70.8 , 664.0 71.2 C 663.1 71.5 , 653.7 78.2 , 653.0 79.0 Z M 370.0 79.0 C 369.5 78.4 , 362.6 73.0 , 362.0 72.7 C 361.4 72.4 , 354.6 69.7 , 354.0 69.6 C 353.4 69.4 , 346.6 69.7 , 346.0 69.6 C 345.9 69.6 , 345.1 68.0 , 345.0 68.0 C 344.6 67.9 , 340.4 67.9 , 340.0 68.0 C 339.9 68.0 , 339.1 69.6 , 339.0 69.6 C 338.1 69.7 , 327.9 69.7 , 327.0 69.6 C 326.9 69.6 , 326.1 68.0 , 326.0 68.0 C 325.5 67.9 , 319.5 67.9 , 319.0 68.0 C 318.9 68.0 , 318.1 69.6 , 318.0 69.6 C 315.3 69.7 , 284.7 69.4 , 282.0 69.6 C 281.3 69.6 , 273.7 72.4 , 273.0 72.7 C 271.9 73.3 , 259.1 81.4 , 258.0 82.1 C 257.3 82.8 , 249.6 90.8 , 249.0 91.6 C 248.0 93.0 , 236.8 110.2 , 236.0 112.0 C 235.0 114.0 , 225.7 139.4 , 225.0 141.8 C 224.4 143.8 , 219.3 167.8 , 219.0 170.0 C 218.7 171.9 , 217.2 193.2 , 217.0 195.1 C 217.0 195.3 , 216.0 196.5 , 216.0 196.7 C 215.9 201.4 , 215.8 254.8 , 216.0 259.5 C 216.1 262.3 , 220.5 294.3 , 221.0 297.1 C 221.4 299.3 , 228.3 323.3 , 229.0 325.4 C 229.4 326.6 , 235.4 340.0 , 236.0 341.1 C 236.8 342.5 , 247.0 357.2 , 248.0 358.3 C 249.0 359.4 , 261.8 370.1 , 263.0 370.9 C 263.6 371.2 , 270.4 374.0 , 271.0 374.0 C 272.6 374.2 , 290.4 374.2 , 292.0 374.0 C 292.5 374.0 , 297.6 371.2 , 298.0 370.9 C 298.5 370.4 , 304.0 364.0 , 304.0 363.0 C 304.4 351.3 , 303.7 217.9 , 304.0 206.1 C 304.0 204.2 , 307.6 184.3 , 308.0 182.6 C 308.3 181.3 , 313.5 168.0 , 314.0 166.9 C 314.4 165.9 , 319.5 156.7 , 320.0 155.9 C 320.6 155.0 , 328.3 145.7 , 329.0 144.9 C 329.6 144.3 , 336.4 138.9 , 337.0 138.6 C 338.0 138.2 , 349.9 134.1 , 351.0 133.9 C 353.8 133.6 , 386.2 135.0 , 389.0 133.9 C 389.7 133.6 , 389.2 120.9 , 389.0 119.8 C 388.8 118.4 , 384.6 102.2 , 384.0 101.0 C 383.1 99.1 , 371.1 80.4 , 370.0 79.0 Z" fill="#000000" fill-rule="evenodd" />
</svg>