<?xml version="1.0" encoding="UTF-8"?>
<svg xmlns="http://www.w3.org/2000/svg" width="477" height="694" viewBox="529 163 477 694" preserveAspectRatio="none">
  <path d="M 753.0 382.0 C 752.8 382.0, 752.2 383.0, 752.0 383.0 C 751.4 383.1, 748.6 382.9, 748.0 383.0 C 746.8 383.3, 741.2 385.7, 740.0 386.0 C 739.6 386.1, 737.4 385.9, 737.0 386.0 C 736.5 386.2, 734.5 387.8, 734.0 388.0 C 733.0 388.4, 728.0 389.6, 727.0 390.0 C 726.6 390.2, 725.4 391.8, 725.0 392.0 C 724.0 392.6, 719.0 394.4, 718.0 395.0 C 716.4 395.9, 709.3 400.8, 708.0 402.0 C 705.3 404.5, 693.4 417.2, 691.0 420.0 C 690.3 420.8, 687.5 425.1, 687.0 426.0 C 685.9 428.1, 680.9 437.8, 680.0 440.0 C 679.9 440.3, 680.1 441.7, 680.0 442.0 C 679.6 443.1, 677.3 447.9, 677.0 449.0 C 676.7 450.0, 676.3 455.0, 676.0 456.0 C 675.9 456.2, 675.0 456.8, 675.0 457.0 C 674.9 457.9, 675.1 462.1, 675.0 463.0 C 675.0 463.2, 674.0 463.8, 674.0 464.0 C 673.9 467.1, 673.9 481.9, 674.0 485.0 C 674.0 485.2, 675.0 485.8, 675.0 486.0 C 675.1 486.9, 674.9 491.1, 675.0 492.0 C 675.0 492.2, 675.9 492.8, 676.0 493.0 C 676.1 493.4, 675.9 495.6, 676.0 496.0 C 676.1 496.2, 676.9 496.8, 677.0 497.0 C 677.5 498.6, 679.4 506.4, 680.0 508.0 C 680.9 510.2, 685.8 520.0, 687.0 522.0 C 687.8 523.4, 691.9 529.8, 693.0 531.0 C 695.8 534.0, 709.7 547.5, 713.0 550.0 C 715.5 551.9, 728.2 558.6, 731.0 560.0 C 731.3 560.1, 732.7 559.9, 733.0 560.0 C 733.9 560.4, 738.0 562.7, 739.0 563.0 C 740.0 563.3, 745.0 563.7, 746.0 564.0 C 746.2 564.1, 746.8 565.0, 747.0 565.0 C 747.6 565.1, 750.4 564.9, 751.0 565.0 C 751.2 565.0, 751.8 566.0, 752.0 566.0 C 753.2 566.1, 758.8 565.9, 760.0 566.0 C 760.2 566.0, 760.8 567.0, 761.0 567.0 C 764.0 567.0, 778.0 566.3, 781.0 566.0 C 781.2 566.0, 781.8 565.0, 782.0 565.0 C 782.6 564.9, 785.4 565.1, 786.0 565.0 C 786.2 565.0, 786.8 564.1, 787.0 564.0 C 787.4 563.9, 789.6 564.1, 790.0 564.0 C 790.2 563.9, 790.8 563.1, 791.0 563.0 C 791.4 562.9, 793.6 563.1, 794.0 563.0 C 794.2 562.9, 794.8 562.1, 795.0 562.0 C 795.7 561.8, 799.3 561.3, 800.0 561.0 C 802.0 560.2, 811.1 556.1, 813.0 555.0 C 815.1 553.8, 824.2 547.5, 826.0 546.0 C 828.3 544.1, 838.1 534.3, 840.0 532.0 C 841.9 529.6, 849.6 517.7, 851.0 515.0 C 852.3 512.4, 857.2 499.8, 858.0 497.0 C 858.4 495.7, 858.7 489.3, 859.0 488.0 C 859.0 487.8, 860.0 487.2, 860.0 487.0 C 860.1 483.3, 860.1 465.7, 860.0 462.0 C 860.0 461.8, 859.0 461.2, 859.0 461.0 C 858.9 460.3, 859.1 456.7, 859.0 456.0 C 859.0 455.8, 858.0 455.2, 858.0 455.0 C 857.9 454.4, 858.1 451.6, 858.0 451.0 C 858.0 450.8, 857.1 450.2, 857.0 450.0 C 856.8 449.3, 856.3 445.7, 856.0 445.0 C 855.8 444.5, 854.2 442.5, 854.0 442.0 C 853.6 441.0, 852.4 436.0, 852.0 435.0 C 851.4 433.6, 847.8 427.3, 847.0 426.0 C 846.0 424.5, 841.2 417.3, 840.0 416.0 C 837.5 413.3, 825.0 401.2, 822.0 399.0 C 819.5 397.1, 806.8 390.4, 804.0 389.0 C 803.7 388.9, 802.3 389.1, 802.0 389.0 C 801.5 388.8, 799.5 387.2, 799.0 387.0 C 798.7 386.9, 797.3 387.1, 797.0 387.0 C 796.4 386.8, 793.6 385.2, 793.0 385.0 C 792.0 384.7, 787.0 384.3, 786.0 384.0 C 785.8 383.9, 785.2 383.0, 785.0 383.0 C 784.1 382.9, 779.9 383.1, 779.0 383.0 C 778.8 383.0, 778.2 382.0, 778.0 382.0 C 774.3 381.9, 756.7 381.9, 753.0 382.0 Z M 609.0 194.0 C 609.4 196.4, 622.8 220.9, 624.0 223.0 C 624.3 223.5, 628.5 227.8, 629.0 228.0 C 629.7 228.3, 638.3 228.9, 639.0 229.0 C 639.1 229.0, 639.9 230.0, 640.0 230.0 C 658.7 230.1, 871.3 230.1, 890.0 230.0 C 890.1 230.0, 890.9 229.0, 891.0 229.0 C 891.7 228.9, 899.3 229.1, 900.0 229.0 C 900.4 228.9, 904.7 227.2, 905.0 227.0 C 905.4 226.7, 909.7 222.5, 910.0 222.0 C 911.2 220.0, 923.7 196.3, 924.0 194.0 C 924.1 193.3, 914.7 193.1, 914.0 193.0 C 913.9 193.0, 913.1 192.0, 913.0 192.0 C 909.0 191.9, 864.0 191.1, 860.0 191.0 C 859.9 191.0, 859.1 190.0, 859.0 190.0 C 844.4 189.9, 678.6 189.9, 664.0 190.0 C 663.9 190.0, 663.1 191.0, 663.0 191.0 C 659.7 191.1, 622.3 191.8, 619.0 192.0 C 618.2 192.0, 608.9 193.2, 609.0 194.0 Z M 796.0 204.0 C 796.1 204.0, 799.9 204.9, 800.0 205.0 C 800.1 205.1, 802.9 207.9, 803.0 208.0 C 803.1 208.1, 803.1 211.9, 803.0 212.0 C 802.9 212.2, 799.2 215.9, 799.0 216.0 C 798.9 216.1, 795.1 216.1, 795.0 216.0 C 794.8 215.9, 791.1 211.2, 791.0 211.0 C 791.0 210.9, 791.9 207.1, 792.0 207.0 C 792.1 206.8, 795.8 204.0, 796.0 204.0 Z M 734.0 204.0 C 734.1 204.0, 736.9 204.0, 737.0 204.0 C 737.1 204.0, 738.9 204.9, 739.0 205.0 C 739.1 205.1, 741.0 207.9, 741.0 208.0 C 741.0 208.1, 741.1 211.9, 741.0 212.0 C 740.9 212.2, 737.2 215.9, 737.0 216.0 C 736.9 216.1, 734.1 216.0, 734.0 216.0 C 733.8 215.9, 730.1 213.2, 730.0 213.0 C 729.9 212.8, 729.9 207.2, 730.0 207.0 C 730.1 206.8, 733.8 204.1, 734.0 204.0 Z M 762.0 200.0 C 762.3 199.9, 769.7 200.0, 770.0 200.0 C 770.1 200.0, 771.9 200.9, 772.0 201.0 C 772.1 201.1, 774.9 203.9, 775.0 204.0 C 775.1 204.1, 777.0 207.8, 777.0 208.0 C 777.0 208.1, 777.1 211.9, 777.0 212.0 C 776.9 212.3, 773.2 217.8, 773.0 218.0 C 772.9 218.1, 769.2 220.0, 769.0 220.0 C 768.8 220.0, 763.2 220.0, 763.0 220.0 C 762.9 220.0, 761.1 219.1, 761.0 219.0 C 760.8 218.8, 756.1 214.2, 756.0 214.0 C 755.9 213.8, 755.0 208.2, 755.0 208.0 C 755.0 207.8, 756.9 204.1, 757.0 204.0 C 757.2 203.8, 761.8 200.1, 762.0 200.0 Z M 574.0 182.0 C 571.3 183.4, 566.2 186.8, 564.0 189.0 C 559.1 193.9, 549.8 204.2, 546.0 210.0 C 543.2 214.3, 539.5 224.1, 538.0 229.0 C 536.7 233.4, 535.0 242.4, 535.0 247.0 C 534.3 373.5, 534.0 626.5, 535.0 753.0 C 535.0 758.6, 537.5 769.6, 539.0 775.0 C 540.5 780.2, 544.3 790.3, 547.0 795.0 C 550.6 801.2, 559.3 812.6, 564.0 818.0 C 566.8 821.2, 573.5 826.6, 577.0 829.0 C 582.5 832.7, 593.9 839.5, 600.0 842.0 C 607.0 844.8, 621.5 849.8, 629.0 850.0 C 698.0 851.8, 836.0 850.9, 905.0 850.0 C 909.6 849.9, 918.6 847.3, 923.0 846.0 C 927.6 844.6, 936.7 841.2, 941.0 839.0 C 946.0 836.4, 955.5 830.3, 960.0 827.0 C 963.3 824.6, 969.2 818.9, 972.0 816.0 C 974.5 813.4, 979.1 808.0, 981.0 805.0 C 984.1 800.2, 990.0 790.3, 992.0 785.0 C 994.5 778.2, 998.9 764.2, 999.0 757.0 C 1000.7 628.8, 999.7 372.2, 999.0 244.0 C 999.0 239.9, 997.3 231.9, 996.0 228.0 C 994.5 223.3, 990.4 214.3, 988.0 210.0 C 986.4 207.0, 982.4 201.4, 980.0 199.0 C 975.6 194.6, 966.2 186.4, 961.0 183.0 C 956.6 180.1, 947.0 175.7, 942.0 174.0 C 936.9 172.2, 926.4 169.1, 921.0 169.0 C 844.0 167.8, 690.0 168.1, 613.0 169.0 C 608.1 169.1, 598.6 171.5, 594.0 173.0 C 588.8 174.7, 578.8 179.4, 574.0 182.0 Z M 759.0 368.0 C 762.6 368.0, 779.4 368.7, 783.0 369.0 C 783.2 369.0, 783.8 370.0, 784.0 370.0 C 784.6 370.1, 787.4 369.9, 788.0 370.0 C 788.2 370.0, 788.8 371.0, 789.0 371.0 C 790.2 371.3, 795.8 371.7, 797.0 372.0 C 797.2 372.0, 797.8 372.9, 798.0 373.0 C 798.7 373.2, 802.3 373.7, 803.0 374.0 C 803.5 374.2, 805.5 375.8, 806.0 376.0 C 806.3 376.1, 807.7 375.9, 808.0 376.0 C 809.8 376.8, 818.3 380.9, 820.0 382.0 C 822.7 383.6, 834.6 392.0, 837.0 394.0 C 838.6 395.3, 845.6 402.4, 847.0 404.0 C 847.1 404.1, 846.9 404.9, 847.0 405.0 C 848.0 406.3, 853.0 411.7, 854.0 413.0 C 855.0 414.3, 859.2 420.6, 860.0 422.0 C 860.8 423.5, 864.4 430.5, 865.0 432.0 C 865.1 432.3, 864.9 433.7, 865.0 434.0 C 865.2 434.5, 866.8 436.5, 867.0 437.0 C 867.1 437.3, 866.9 438.7, 867.0 439.0 C 867.5 440.5, 870.6 447.4, 871.0 449.0 C 871.2 449.6, 870.9 452.4, 871.0 453.0 C 871.0 453.2, 872.0 453.8, 872.0 454.0 C 872.1 454.6, 871.9 457.4, 872.0 458.0 C 872.0 458.2, 873.0 458.8, 873.0 459.0 C 873.1 460.3, 872.9 466.7, 873.0 468.0 C 873.0 468.2, 874.0 468.8, 874.0 469.0 C 874.0 472.0, 873.3 486.0, 873.0 489.0 C 873.0 489.2, 872.0 489.8, 872.0 490.0 C 871.9 490.6, 872.1 493.4, 872.0 494.0 C 872.0 494.2, 871.1 494.8, 871.0 495.0 C 870.9 495.4, 871.1 497.6, 871.0 498.0 C 870.9 498.2, 870.1 498.8, 870.0 499.0 C 869.6 500.5, 868.5 507.6, 868.0 509.0 C 867.0 511.6, 861.4 523.6, 860.0 526.0 C 858.3 528.9, 849.2 541.5, 847.0 544.0 C 845.0 546.3, 834.4 556.1, 832.0 558.0 C 830.3 559.4, 821.9 565.0, 820.0 566.0 C 817.5 567.4, 805.6 572.9, 803.0 574.0 C 802.7 574.1, 801.3 573.9, 801.0 574.0 C 799.9 574.4, 795.1 576.7, 794.0 577.0 C 793.6 577.1, 791.4 576.9, 791.0 577.0 C 790.8 577.1, 790.2 578.0, 790.0 578.0 C 789.3 578.1, 785.7 577.9, 785.0 578.0 C 784.8 578.0, 784.2 579.0, 784.0 579.0 C 783.3 579.1, 779.7 578.9, 779.0 579.0 C 778.8 579.0, 778.2 580.0, 778.0 580.0 C 774.7 580.1, 759.3 580.1, 756.0 580.0 C 755.8 580.0, 755.2 579.0, 755.0 579.0 C 754.1 578.9, 749.9 579.1, 749.0 579.0 C 748.8 579.0, 748.2 578.0, 748.0 578.0 C 746.8 577.7, 741.2 577.3, 740.0 577.0 C 739.8 577.0, 739.2 576.1, 739.0 576.0 C 737.8 575.6, 732.2 574.4, 731.0 574.0 C 730.5 573.8, 728.5 572.2, 728.0 572.0 C 727.7 571.9, 726.3 572.1, 726.0 572.0 C 724.2 571.2, 715.7 567.0, 714.0 566.0 C 712.0 564.8, 702.9 558.5, 701.0 557.0 C 700.2 556.3, 696.8 552.7, 696.0 552.0 C 695.9 551.9, 695.1 552.1, 695.0 552.0 C 693.0 550.0, 683.8 540.2, 682.0 538.0 C 681.0 536.7, 676.8 530.4, 676.0 529.0 C 675.8 528.6, 675.2 526.4, 675.0 526.0 C 674.8 525.6, 673.2 524.4, 673.0 524.0 C 672.3 522.8, 669.5 517.2, 669.0 516.0 C 668.9 515.7, 669.1 514.3, 669.0 514.0 C 668.8 513.5, 667.2 511.5, 667.0 511.0 C 666.9 510.7, 667.1 509.3, 667.0 509.0 C 666.6 507.9, 664.3 503.1, 664.0 502.0 C 663.7 500.8, 663.3 495.2, 663.0 494.0 C 663.0 493.8, 662.0 493.2, 662.0 493.0 C 661.9 492.3, 662.1 488.7, 662.0 488.0 C 662.0 487.8, 661.0 487.2, 661.0 487.0 C 660.9 483.1, 660.9 464.9, 661.0 461.0 C 661.0 460.8, 662.0 460.2, 662.0 460.0 C 662.1 459.3, 661.9 455.7, 662.0 455.0 C 662.0 454.8, 663.0 454.2, 663.0 454.0 C 663.1 453.4, 662.9 450.6, 663.0 450.0 C 663.2 449.3, 664.8 446.6, 665.0 446.0 C 665.1 445.6, 664.9 443.4, 665.0 443.0 C 665.8 440.7, 670.0 430.2, 671.0 428.0 C 671.2 427.6, 672.8 426.4, 673.0 426.0 C 673.8 424.6, 677.1 417.4, 678.0 416.0 C 678.8 414.7, 683.0 409.1, 684.0 408.0 C 685.4 406.3, 692.3 398.5, 694.0 397.0 C 696.8 394.5, 710.9 384.1, 714.0 382.0 C 715.4 381.1, 722.5 377.6, 724.0 377.0 C 724.3 376.9, 725.7 377.1, 726.0 377.0 C 726.5 376.8, 728.5 375.2, 729.0 375.0 C 729.3 374.9, 730.7 375.1, 731.0 375.0 C 732.1 374.6, 736.9 372.3, 738.0 372.0 C 738.4 371.9, 740.6 372.1, 741.0 372.0 C 741.8 371.8, 745.2 370.2, 746.0 370.0 C 746.6 369.9, 749.4 370.1, 750.0 370.0 C 750.2 370.0, 750.8 369.0, 751.0 369.0 C 752.0 368.9, 757.0 369.1, 758.0 369.0 C 758.2 369.0, 758.8 368.0, 759.0 368.0 Z M 594.0 186.0 C 594.2 185.7, 597.6 183.1, 598.0 183.0 C 598.4 182.9, 602.6 183.1, 603.0 183.0 C 603.1 183.0, 603.9 182.0, 604.0 182.0 C 604.8 181.9, 614.2 182.1, 615.0 182.0 C 615.1 182.0, 615.9 181.0, 616.0 181.0 C 616.7 180.9, 624.3 181.1, 625.0 181.0 C 625.1 181.0, 625.9 180.0, 626.0 180.0 C 628.6 179.9, 658.4 180.1, 661.0 180.0 C 661.1 180.0, 661.9 179.0, 662.0 179.0 C 677.1 178.9, 848.9 178.9, 864.0 179.0 C 864.1 179.0, 864.9 180.0, 865.0 180.0 C 869.0 180.1, 914.0 180.9, 918.0 181.0 C 918.1 181.0, 918.9 182.0, 919.0 182.0 C 920.2 182.1, 933.8 182.8, 935.0 183.0 C 935.4 183.1, 938.8 185.7, 939.0 186.0 C 939.2 186.5, 940.1 192.5, 940.0 193.0 C 939.8 193.6, 935.3 199.4, 935.0 200.0 C 933.7 202.3, 920.4 228.8, 919.0 231.0 C 918.6 231.6, 912.6 237.6, 912.0 238.0 C 911.4 238.4, 903.7 241.0, 903.0 241.0 C 882.5 241.2, 650.5 241.3, 630.0 241.0 C 629.2 241.0, 620.7 237.5, 620.0 237.0 C 619.4 236.6, 614.3 230.6, 614.0 230.0 C 612.4 227.2, 595.3 194.9, 594.0 192.0 C 593.8 191.6, 593.8 186.4, 594.0 186.0 Z" fill="#000000" fill-rule="evenodd" />
</svg>