<?xml version="1.0" encoding="UTF-8"?>
<svg xmlns="http://www.w3.org/2000/svg" width="619" height="1212" viewBox="202 169 619 1212">
  <path d="M 487.0 1268.0 C 486.9 1271.1, 487.0 1348.9, 487.0 1352.0 C 487.0 1352.1, 488.0 1352.9, 488.0 1353.0 C 488.0 1353.2, 488.0 1357.8, 488.0 1358.0 C 488.0 1358.1, 489.0 1358.9, 489.0 1359.0 C 489.0 1359.1, 489.0 1360.9, 489.0 1361.0 C 489.1 1361.2, 490.9 1364.9, 491.0 1365.0 C 491.3 1365.3, 498.7 1372.7, 499.0 1373.0 C 499.1 1373.1, 502.8 1375.0, 503.0 1375.0 C 503.1 1375.0, 505.9 1375.0, 506.0 1375.0 C 506.1 1375.0, 506.9 1376.0, 507.0 1376.0 C 507.3 1376.0, 514.7 1376.1, 515.0 1376.0 C 515.4 1375.9, 524.6 1371.2, 525.0 1371.0 C 525.0 1371.0, 525.0 1370.0, 525.0 1370.0 C 525.1 1369.9, 527.9 1367.1, 528.0 1367.0 C 528.2 1366.7, 531.9 1359.3, 532.0 1359.0 C 532.0 1358.9, 532.0 1355.1, 532.0 1355.0 C 532.0 1354.9, 533.0 1354.1, 533.0 1354.0 C 533.0 1352.9, 533.0 1325.1, 533.0 1324.0 C 533.0 1323.9, 532.0 1323.1, 532.0 1323.0 C 532.0 1321.9, 532.0 1295.1, 532.0 1294.0 C 532.0 1293.9, 533.0 1293.1, 533.0 1293.0 C 533.0 1292.1, 533.0 1270.9, 533.0 1270.0 C 533.0 1269.9, 532.0 1269.1, 532.0 1269.0 C 532.0 1268.9, 533.0 1268.0, 533.0 1268.0 C 532.9 1267.9, 531.1 1268.0, 531.0 1268.0 C 530.9 1268.0, 529.1 1269.9, 529.0 1270.0 C 528.9 1270.1, 525.2 1272.0, 525.0 1272.0 C 524.8 1272.1, 519.2 1272.9, 519.0 1273.0 C 518.9 1273.0, 518.1 1274.0, 518.0 1274.0 C 517.4 1274.0, 501.6 1274.0, 501.0 1274.0 C 500.9 1274.0, 500.1 1273.0, 500.0 1273.0 C 499.9 1273.0, 497.1 1273.0, 497.0 1273.0 C 496.9 1273.0, 494.1 1271.1, 494.0 1271.0 C 493.9 1271.0, 492.1 1271.0, 492.0 1271.0 C 491.9 1271.0, 490.1 1269.1, 490.0 1269.0 C 489.9 1268.9, 487.0 1267.9, 487.0 1268.0 Z M 479.0 1032.0 C 478.9 1032.0, 478.0 1032.9, 478.0 1033.0 C 477.9 1040.8, 477.9 1129.2, 478.0 1137.0 C 478.0 1137.1, 479.0 1137.9, 479.0 1138.0 C 479.1 1138.7, 479.1 1146.3, 479.0 1147.0 C 479.0 1147.1, 478.0 1147.9, 478.0 1148.0 C 478.0 1148.2, 479.0 1150.8, 479.0 1151.0 C 479.1 1153.7, 479.1 1184.3, 479.0 1187.0 C 479.0 1187.1, 478.0 1187.9, 478.0 1188.0 C 477.9 1190.2, 477.9 1214.8, 478.0 1217.0 C 478.0 1217.4, 479.0 1221.6, 479.0 1222.0 C 479.0 1222.1, 478.0 1222.9, 478.0 1223.0 C 477.9 1223.7, 477.9 1231.3, 478.0 1232.0 C 478.0 1232.1, 479.0 1232.9, 479.0 1233.0 C 479.1 1234.0, 478.8 1245.0, 479.0 1246.0 C 479.1 1246.7, 482.6 1253.5, 483.0 1254.0 C 483.5 1254.7, 490.3 1261.5, 491.0 1262.0 C 491.8 1262.5, 502.0 1266.8, 503.0 1267.0 C 504.0 1267.2, 515.0 1267.1, 516.0 1267.0 C 516.5 1266.9, 522.5 1265.2, 523.0 1265.0 C 523.6 1264.8, 529.5 1261.4, 530.0 1261.0 C 530.7 1260.4, 537.5 1252.8, 538.0 1252.0 C 538.3 1251.5, 541.0 1244.6, 541.0 1244.0 C 541.2 1228.1, 545.5 1047.3, 541.0 1032.0 C 539.7 1027.5, 483.6 1031.9, 479.0 1032.0 Z M 507.0 545.0 C 500.4 545.4, 487.3 548.1, 481.0 550.0 C 475.5 551.6, 465.0 556.3, 460.0 559.0 C 455.2 561.6, 446.0 567.4, 442.0 571.0 C 434.9 577.4, 421.7 591.4, 416.0 599.0 C 411.2 605.4, 403.4 619.7, 400.0 627.0 C 396.9 633.7, 392.0 647.8, 390.0 655.0 C 388.0 662.4, 384.9 677.4, 384.0 685.0 C 383.1 692.7, 382.7 708.3, 383.0 716.0 C 383.2 721.3, 384.8 731.8, 386.0 737.0 C 387.5 743.4, 391.3 756.0, 394.0 762.0 C 397.1 769.1, 404.5 782.7, 409.0 789.0 C 413.5 795.3, 424.2 806.8, 430.0 812.0 C 434.5 816.1, 444.7 822.9, 450.0 826.0 C 454.5 828.7, 464.1 833.2, 469.0 835.0 C 474.4 837.0, 485.4 840.0, 491.0 841.0 C 497.2 842.1, 509.7 843.3, 516.0 843.0 C 523.8 842.6, 539.4 840.1, 547.0 838.0 C 553.8 836.1, 566.8 830.4, 573.0 827.0 C 578.4 824.1, 588.4 817.0, 593.0 813.0 C 598.2 808.5, 607.6 798.3, 612.0 793.0 C 614.9 789.5, 619.9 782.0, 622.0 778.0 C 625.5 771.2, 631.7 757.3, 634.0 750.0 C 635.9 743.9, 638.5 731.4, 639.0 725.0 C 639.7 716.0, 639.6 698.0, 639.0 689.0 C 638.6 682.7, 636.3 670.2, 635.0 664.0 C 633.8 658.4, 630.9 647.4, 629.0 642.0 C 626.7 635.6, 621.4 622.9, 618.0 617.0 C 613.8 609.6, 604.4 595.5, 599.0 589.0 C 594.1 583.2, 583.1 572.6, 577.0 568.0 C 571.0 563.5, 557.8 556.2, 551.0 553.0 C 546.5 550.9, 536.9 547.9, 532.0 547.0 C 525.8 545.9, 513.3 544.6, 507.0 545.0 Z M 482.0 438.0 C 481.7 438.0, 481.0 441.7, 481.0 442.0 C 480.9 447.8, 480.9 513.2, 481.0 519.0 C 481.0 519.1, 482.0 519.9, 482.0 520.0 C 482.0 520.2, 481.0 522.8, 481.0 523.0 C 480.9 524.0, 480.9 535.0, 481.0 536.0 C 481.0 536.3, 481.7 540.0, 482.0 540.0 C 483.4 540.0, 498.6 536.1, 500.0 536.0 C 501.9 535.8, 523.1 535.9, 525.0 536.0 C 526.2 536.1, 539.8 539.1, 541.0 539.0 C 541.3 539.0, 542.0 535.3, 542.0 535.0 C 542.1 531.6, 542.1 492.4, 542.0 489.0 C 542.0 488.9, 541.0 488.1, 541.0 488.0 C 541.0 484.3, 542.0 442.7, 542.0 439.0 C 542.0 438.9, 541.1 438.0, 541.0 438.0 C 536.6 437.9, 486.4 437.7, 482.0 438.0 Z M 412.0 396.0 C 409.4 396.4, 409.4 430.6, 412.0 431.0 C 427.1 433.6, 600.9 433.6, 616.0 431.0 C 618.6 430.6, 618.6 396.4, 616.0 396.0 C 600.9 393.4, 427.1 393.4, 412.0 396.0 Z M 747.0 408.0 C 740.9 405.6, 728.4 401.6, 722.0 400.0 C 715.3 398.3, 701.8 395.7, 695.0 395.0 C 692.3 394.7, 686.5 394.8, 684.0 396.0 C 682.1 397.0, 680.5 401.5, 679.0 403.0 C 678.0 404.0, 675.5 406.1, 674.0 406.0 C 670.1 405.6, 662.9 401.4, 659.0 401.0 C 650.0 400.1, 630.0 395.4, 623.0 401.0 C 617.5 405.4, 619.2 423.9, 624.0 429.0 C 628.3 433.6, 642.8 428.3, 649.0 429.0 C 653.6 429.5, 662.8 432.0, 667.0 434.0 C 667.9 434.4, 668.2 437.0, 668.0 438.0 C 667.7 439.9, 665.1 443.1, 665.0 445.0 C 664.9 446.6, 666.2 449.7, 667.0 451.0 C 667.9 452.5, 670.5 455.0, 672.0 456.0 C 678.6 460.5, 692.5 468.4, 699.0 473.0 C 701.3 474.6, 705.2 478.8, 707.0 481.0 C 708.5 482.8, 711.3 486.7, 712.0 489.0 C 715.3 499.6, 721.0 521.1, 723.0 532.0 C 724.8 542.1, 726.7 562.7, 727.0 573.0 C 727.4 585.5, 726.6 610.5, 726.0 623.0 C 725.6 631.5, 723.2 648.5, 723.0 657.0 C 722.7 667.5, 726.9 688.9, 724.0 699.0 C 722.5 704.1, 711.0 708.4, 707.0 712.0 C 700.7 717.7, 689.9 731.1, 683.0 736.0 C 681.8 736.8, 678.7 733.4, 679.0 732.0 C 680.1 726.9, 686.2 717.9, 688.0 713.0 C 689.9 707.9, 693.0 697.4, 694.0 692.0 C 694.7 688.3, 695.4 680.7, 695.0 677.0 C 694.6 673.4, 692.5 666.3, 691.0 663.0 C 689.5 659.7, 685.4 653.7, 683.0 651.0 C 679.6 647.3, 672.3 640.5, 668.0 638.0 C 663.9 635.6, 654.7 632.8, 650.0 632.0 C 646.1 631.3, 634.7 628.1, 634.0 632.0 C 632.5 640.2, 642.2 655.8, 644.0 664.0 C 646.0 673.4, 648.1 692.5, 649.0 702.0 C 649.4 706.5, 649.3 715.5, 649.0 720.0 C 648.8 724.0, 647.8 732.0, 647.0 736.0 C 646.0 741.1, 643.6 751.1, 642.0 756.0 C 640.5 760.6, 637.3 769.8, 635.0 774.0 C 630.8 781.6, 621.4 796.2, 616.0 803.0 C 611.8 808.3, 602.2 817.7, 597.0 822.0 C 592.1 826.0, 581.6 833.1, 576.0 836.0 C 569.3 839.4, 555.2 844.9, 548.0 847.0 C 542.4 848.6, 530.8 850.5, 525.0 851.0 C 519.0 851.5, 507.0 851.4, 501.0 851.0 C 495.7 850.6, 485.2 849.2, 480.0 848.0 C 474.6 846.7, 464.1 843.1, 459.0 841.0 C 454.9 839.3, 446.8 835.4, 443.0 833.0 C 438.3 830.1, 429.2 823.6, 425.0 820.0 C 420.4 816.1, 411.9 807.6, 408.0 803.0 C 404.4 798.8, 397.9 789.8, 395.0 785.0 C 391.8 779.7, 386.3 768.7, 384.0 763.0 C 381.8 757.4, 378.3 745.9, 377.0 740.0 C 375.8 734.8, 374.2 724.3, 374.0 719.0 C 373.7 710.8, 374.2 694.2, 375.0 686.0 C 375.7 678.9, 378.3 664.9, 380.0 658.0 C 381.8 650.9, 386.3 636.9, 389.0 630.0 C 391.1 624.6, 396.0 614.0, 399.0 609.0 C 402.6 603.0, 410.5 591.4, 415.0 586.0 C 418.8 581.4, 429.4 574.4, 432.0 569.0 C 433.5 565.8, 431.0 558.4, 430.0 555.0 C 428.7 550.4, 425.0 541.4, 423.0 537.0 C 422.0 534.9, 419.6 530.8, 418.0 529.0 C 415.0 525.7, 408.6 519.6, 405.0 517.0 C 402.8 515.3, 397.6 513.0, 395.0 512.0 C 393.1 511.3, 389.1 510.2, 387.0 510.0 C 382.8 509.7, 374.2 509.5, 370.0 510.0 C 367.2 510.3, 361.6 511.8, 359.0 513.0 C 356.2 514.3, 351.1 517.8, 349.0 520.0 C 347.2 521.9, 345.0 526.6, 344.0 529.0 C 342.8 531.9, 340.7 537.9, 340.0 541.0 C 338.9 545.9, 337.2 555.9, 337.0 561.0 C 336.5 572.0, 336.1 594.0, 337.0 605.0 C 338.6 624.8, 344.0 664.3, 347.0 684.0 C 348.8 695.6, 356.0 718.3, 356.0 730.0 C 356.0 732.6, 349.2 736.4, 347.0 735.0 C 334.7 727.3, 310.6 709.4, 303.0 697.0 C 298.6 689.7, 303.4 671.5, 303.0 663.0 C 302.4 647.7, 299.6 617.3, 299.0 602.0 C 298.6 592.8, 298.4 574.2, 299.0 565.0 C 299.7 553.7, 302.1 531.2, 304.0 520.0 C 305.4 511.9, 308.8 495.6, 312.0 488.0 C 313.7 484.1, 319.7 477.7, 323.0 475.0 C 330.3 468.9, 346.8 459.2, 354.0 453.0 C 355.4 451.8, 357.0 447.9, 357.0 446.0 C 357.0 443.6, 354.4 439.3, 354.0 437.0 C 353.9 436.4, 354.5 435.2, 355.0 435.0 C 360.9 432.9, 372.8 428.9, 379.0 428.0 C 385.4 427.1, 400.4 432.6, 405.0 428.0 C 409.8 423.2, 411.5 405.0, 406.0 401.0 C 398.3 395.4, 377.4 400.0, 368.0 401.0 C 362.8 401.5, 353.2 407.4, 348.0 407.0 C 345.2 406.8, 342.2 400.8, 340.0 399.0 C 339.1 398.3, 337.1 397.2, 336.0 397.0 C 333.0 396.4, 327.0 395.6, 324.0 396.0 C 316.7 396.9, 302.2 400.2, 295.0 402.0 C 289.4 403.4, 278.2 406.5, 273.0 409.0 C 271.2 409.8, 268.4 413.1, 268.0 415.0 C 266.9 420.1, 268.3 430.9, 267.0 436.0 C 266.6 437.4, 263.4 438.5, 262.0 439.0 C 258.1 440.3, 249.8 441.4, 246.0 443.0 C 243.9 443.9, 240.1 447.0, 239.0 449.0 C 237.8 451.2, 236.9 456.5, 237.0 459.0 C 237.1 460.9, 238.7 464.6, 240.0 466.0 C 241.6 467.7, 245.7 470.3, 248.0 471.0 C 250.2 471.6, 254.8 471.4, 257.0 471.0 C 259.3 470.6, 264.0 466.8, 266.0 468.0 C 267.9 469.2, 267.6 474.8, 267.0 477.0 C 265.0 484.3, 258.4 497.9, 256.0 505.0 C 246.2 533.6, 227.0 591.1, 218.0 620.0 C 215.7 627.4, 212.5 642.4, 211.0 650.0 C 210.0 655.2, 208.2 665.7, 208.0 671.0 C 207.7 678.0, 207.3 692.2, 209.0 699.0 C 213.4 716.7, 225.6 751.0, 232.0 768.0 C 234.2 773.8, 239.9 784.7, 243.0 790.0 C 247.9 798.2, 259.9 813.3, 264.0 822.0 C 266.3 826.8, 266.7 837.8, 268.0 843.0 C 269.7 849.6, 273.7 862.6, 276.0 869.0 C 278.7 876.6, 284.7 891.6, 288.0 899.0 C 290.2 903.9, 295.3 913.4, 298.0 918.0 C 301.6 924.1, 308.9 936.2, 313.0 942.0 C 317.4 948.2, 326.9 960.3, 332.0 966.0 C 336.6 971.1, 346.7 980.6, 352.0 985.0 C 356.2 988.6, 365.3 995.1, 370.0 998.0 C 374.6 1000.8, 384.1 1005.8, 389.0 1008.0 C 393.6 1010.1, 403.2 1013.5, 408.0 1015.0 C 411.9 1016.2, 419.9 1018.3, 424.0 1019.0 C 429.7 1020.0, 441.2 1021.8, 447.0 1022.0 C 474.0 1022.8, 528.0 1023.5, 555.0 1023.0 C 568.0 1022.8, 594.2 1021.2, 607.0 1019.0 C 616.0 1017.4, 633.5 1011.5, 642.0 1008.0 C 648.6 1005.2, 661.0 997.9, 667.0 994.0 C 671.5 991.1, 680.0 984.5, 684.0 981.0 C 688.8 976.8, 697.9 967.8, 702.0 963.0 C 706.9 957.3, 716.0 945.3, 720.0 939.0 C 724.7 931.5, 733.2 916.0, 737.0 908.0 C 739.7 902.4, 744.1 890.9, 746.0 885.0 C 749.1 875.4, 754.7 855.9, 757.0 846.0 C 758.2 840.8, 757.7 829.8, 760.0 825.0 C 763.9 816.7, 776.4 802.9, 781.0 795.0 C 785.2 787.6, 792.0 772.0, 795.0 764.0 C 799.8 751.2, 808.4 725.2, 812.0 712.0 C 813.6 706.1, 815.9 694.1, 816.0 688.0 C 816.1 679.2, 814.5 661.7, 813.0 653.0 C 811.2 642.6, 806.1 622.1, 803.0 612.0 C 795.8 588.6, 780.2 542.1, 772.0 519.0 C 767.9 507.6, 757.6 485.6, 754.0 474.0 C 753.5 472.5, 754.5 468.4, 756.0 468.0 C 758.5 467.4, 763.4 470.6, 766.0 471.0 C 768.2 471.4, 772.8 471.3, 775.0 471.0 C 776.1 470.8, 778.2 469.7, 779.0 469.0 C 780.5 467.7, 783.3 464.8, 784.0 463.0 C 784.9 460.6, 785.8 455.4, 785.0 453.0 C 784.1 450.3, 780.5 445.4, 778.0 444.0 C 773.7 441.5, 763.7 439.7, 759.0 438.0 C 757.6 437.5, 754.3 436.4, 754.0 435.0 C 752.9 430.4, 754.4 420.7, 754.0 416.0 C 753.9 414.9, 752.7 412.8, 752.0 412.0 C 750.9 410.8, 748.5 408.6, 747.0 408.0 Z M 498.0 274.0 C 497.6 274.1, 493.3 276.7, 493.0 277.0 C 492.4 277.5, 485.5 284.3, 485.0 285.0 C 484.5 285.7, 481.0 295.1, 481.0 296.0 C 480.8 303.0, 478.2 383.1, 482.0 389.0 C 484.4 392.7, 536.6 389.7, 541.0 389.0 C 541.7 388.9, 540.9 380.7, 541.0 380.0 C 541.0 379.9, 542.0 379.1, 542.0 379.0 C 542.1 373.0, 542.1 305.0, 542.0 299.0 C 542.0 298.3, 540.2 290.6, 540.0 290.0 C 539.8 289.4, 536.4 283.4, 536.0 283.0 C 535.2 282.2, 525.0 274.5, 524.0 274.0 C 523.2 273.6, 512.9 271.0, 512.0 271.0 C 510.9 271.0, 499.0 273.7, 498.0 274.0 Z M 515.0 175.0 C 514.8 175.0, 510.2 175.0, 510.0 175.0 C 509.9 175.0, 509.1 174.0, 509.0 174.0 C 508.9 174.0, 508.1 175.0, 508.0 175.0 C 507.9 175.0, 504.1 175.0, 504.0 175.0 C 503.9 175.0, 503.0 176.0, 503.0 176.0 C 502.9 176.1, 499.1 176.9, 499.0 177.0 C 498.7 177.3, 491.3 184.7, 491.0 185.0 C 490.9 185.1, 489.1 188.8, 489.0 189.0 C 489.0 189.1, 489.0 190.9, 489.0 191.0 C 489.0 191.1, 488.0 191.9, 488.0 192.0 C 488.0 192.1, 488.0 194.9, 488.0 195.0 C 488.0 195.1, 487.0 195.9, 487.0 196.0 C 487.0 198.9, 486.7 270.1, 487.0 273.0 C 487.0 273.3, 493.7 268.2, 494.0 268.0 C 494.1 268.0, 495.9 268.0, 496.0 268.0 C 496.2 267.9, 501.8 265.1, 502.0 265.0 C 502.2 265.0, 506.8 265.0, 507.0 265.0 C 507.1 265.0, 507.9 264.0, 508.0 264.0 C 508.5 264.0, 519.6 264.9, 520.0 265.0 C 520.1 265.0, 520.9 266.0, 521.0 266.0 C 521.2 266.1, 525.8 266.9, 526.0 267.0 C 526.2 267.1, 532.0 271.3, 532.0 271.0 C 532.2 268.3, 532.0 202.7, 532.0 200.0 C 532.0 199.9, 533.0 199.1, 533.0 199.0 C 533.0 198.9, 532.0 198.1, 532.0 198.0 C 532.0 197.8, 532.1 193.2, 532.0 193.0 C 531.9 192.6, 527.2 183.3, 527.0 183.0 C 526.9 182.8, 522.2 178.2, 522.0 178.0 C 521.9 177.9, 518.2 176.1, 518.0 176.0 C 517.9 176.0, 516.1 176.0, 516.0 176.0 C 515.9 176.0, 515.1 175.0, 515.0 175.0 Z" fill="#000000" fill-rule="evenodd" />
</svg>