<?xml version="1.0" encoding="UTF-8"?>
<svg xmlns="http://www.w3.org/2000/svg" width="497" height="1224" viewBox="263 150 497 1224">
  <path d="M 498.0 958.0 C 497.8 958.0, 497.2 959.0, 497.0 959.0 C 494.6 959.1, 483.4 958.9, 481.0 959.0 C 480.8 959.0, 480.2 960.0, 480.0 960.0 C 479.4 960.1, 476.4 959.6, 476.0 960.0 C 475.7 960.3, 476.7 962.6, 477.0 963.0 C 478.2 964.5, 484.5 970.8, 486.0 972.0 C 486.9 972.8, 491.9 975.5, 493.0 976.0 C 493.3 976.1, 494.7 975.9, 495.0 976.0 C 495.4 976.2, 496.8 977.6, 497.0 978.0 C 497.2 978.4, 496.9 980.6, 497.0 981.0 C 497.1 981.2, 498.0 981.8, 498.0 982.0 C 498.1 983.2, 498.1 988.8, 498.0 990.0 C 498.0 990.2, 497.0 990.8, 497.0 991.0 C 496.9 992.2, 496.9 997.8, 497.0 999.0 C 497.0 999.2, 498.0 999.8, 498.0 1000.0 C 498.0 1002.1, 497.0 1011.9, 497.0 1014.0 C 497.0 1014.2, 498.0 1014.8, 498.0 1015.0 C 498.1 1016.0, 497.5 1021.1, 498.0 1022.0 C 498.3 1022.5, 501.4 1021.9, 502.0 1022.0 C 502.2 1022.0, 503.2 1022.9, 503.0 1023.0 C 501.3 1024.1, 492.6 1027.8, 491.0 1029.0 C 489.4 1030.1, 483.1 1036.5, 482.0 1038.0 C 481.0 1039.4, 477.6 1046.4, 477.0 1048.0 C 476.7 1048.9, 476.3 1053.1, 476.0 1054.0 C 475.9 1054.2, 475.0 1054.8, 475.0 1055.0 C 474.9 1055.6, 475.1 1058.4, 475.0 1059.0 C 475.0 1059.2, 474.0 1059.8, 474.0 1060.0 C 473.9 1061.5, 474.1 1068.5, 474.0 1070.0 C 474.0 1070.2, 473.0 1070.8, 473.0 1071.0 C 472.9 1076.8, 473.1 1104.2, 473.0 1110.0 C 473.0 1110.2, 472.0 1110.8, 472.0 1111.0 C 471.9 1119.1, 472.1 1156.9, 472.0 1165.0 C 472.0 1165.2, 471.0 1165.8, 471.0 1166.0 C 470.9 1168.5, 471.3 1180.5, 471.0 1183.0 C 471.0 1183.4, 469.1 1184.6, 469.0 1185.0 C 468.8 1186.3, 468.8 1192.7, 469.0 1194.0 C 469.1 1194.4, 470.9 1195.6, 471.0 1196.0 C 471.2 1197.0, 470.8 1202.0, 471.0 1203.0 C 471.1 1203.4, 472.6 1204.9, 473.0 1205.0 C 473.6 1205.2, 476.4 1205.1, 477.0 1205.0 C 477.2 1205.0, 478.0 1204.2, 478.0 1204.0 C 478.1 1203.4, 477.9 1200.6, 478.0 1200.0 C 478.2 1199.2, 479.5 1195.6, 480.0 1195.0 C 480.2 1194.8, 481.7 1194.9, 482.0 1195.0 C 482.4 1195.2, 483.9 1196.6, 484.0 1197.0 C 484.2 1197.6, 483.9 1200.4, 484.0 1201.0 C 484.0 1201.2, 485.0 1201.8, 485.0 1202.0 C 485.3 1203.2, 485.7 1208.8, 486.0 1210.0 C 486.0 1210.2, 487.0 1210.8, 487.0 1211.0 C 487.1 1211.7, 486.9 1215.3, 487.0 1216.0 C 487.0 1216.2, 488.0 1216.8, 488.0 1217.0 C 488.1 1218.0, 487.9 1223.0, 488.0 1224.0 C 488.0 1224.2, 489.0 1224.8, 489.0 1225.0 C 489.3 1227.1, 489.7 1236.9, 490.0 1239.0 C 490.0 1239.2, 491.0 1239.8, 491.0 1240.0 C 491.1 1240.7, 490.9 1244.3, 491.0 1245.0 C 491.0 1245.2, 492.0 1245.8, 492.0 1246.0 C 492.1 1246.6, 491.9 1249.4, 492.0 1250.0 C 492.0 1250.2, 493.0 1250.8, 493.0 1251.0 C 493.3 1252.6, 493.7 1260.4, 494.0 1262.0 C 494.0 1262.2, 495.0 1262.8, 495.0 1263.0 C 495.1 1263.6, 494.9 1266.4, 495.0 1267.0 C 495.0 1267.2, 496.0 1267.8, 496.0 1268.0 C 496.1 1269.0, 495.9 1274.0, 496.0 1275.0 C 496.0 1275.2, 497.0 1275.8, 497.0 1276.0 C 497.1 1277.6, 496.9 1285.4, 497.0 1287.0 C 497.0 1287.2, 498.0 1287.8, 498.0 1288.0 C 498.1 1291.6, 497.9 1308.4, 498.0 1312.0 C 498.0 1312.2, 499.0 1312.8, 499.0 1313.0 C 499.1 1317.6, 499.1 1339.4, 499.0 1344.0 C 499.0 1344.2, 498.0 1344.8, 498.0 1345.0 C 498.0 1347.7, 498.6 1360.3, 499.0 1363.0 C 499.1 1363.7, 500.6 1366.5, 501.0 1367.0 C 501.5 1367.7, 504.3 1370.5, 505.0 1371.0 C 505.3 1371.2, 506.7 1372.0, 507.0 1372.0 C 507.9 1372.1, 512.1 1372.2, 513.0 1372.0 C 514.0 1371.8, 518.2 1369.6, 519.0 1369.0 C 519.4 1368.7, 520.8 1366.5, 521.0 1366.0 C 521.3 1365.1, 521.7 1360.9, 522.0 1360.0 C 522.1 1359.8, 523.0 1359.2, 523.0 1359.0 C 523.1 1348.8, 522.9 1301.2, 523.0 1291.0 C 523.0 1290.8, 524.0 1290.2, 524.0 1290.0 C 524.3 1287.5, 524.7 1275.5, 525.0 1273.0 C 525.0 1272.8, 526.0 1272.2, 526.0 1272.0 C 526.1 1271.1, 525.9 1266.9, 526.0 1266.0 C 526.0 1265.8, 527.0 1265.2, 527.0 1265.0 C 527.1 1264.3, 526.9 1260.7, 527.0 1260.0 C 527.0 1259.8, 528.0 1259.2, 528.0 1259.0 C 528.3 1257.1, 528.7 1247.9, 529.0 1246.0 C 529.0 1245.8, 530.0 1245.2, 530.0 1245.0 C 530.1 1244.4, 529.9 1241.6, 530.0 1241.0 C 530.0 1240.8, 531.0 1240.2, 531.0 1240.0 C 531.1 1239.1, 530.9 1234.9, 531.0 1234.0 C 531.0 1233.8, 532.0 1233.2, 532.0 1233.0 C 532.1 1232.3, 531.9 1228.7, 532.0 1228.0 C 532.0 1227.8, 533.0 1227.2, 533.0 1227.0 C 533.3 1224.8, 533.7 1214.2, 534.0 1212.0 C 534.0 1211.8, 535.0 1211.2, 535.0 1211.0 C 535.1 1210.3, 534.9 1206.7, 535.0 1206.0 C 535.2 1205.2, 536.8 1201.8, 537.0 1201.0 C 537.1 1200.3, 536.9 1196.7, 537.0 1196.0 C 537.0 1195.8, 537.8 1195.0, 538.0 1195.0 C 538.6 1194.9, 541.4 1194.9, 542.0 1195.0 C 542.2 1195.0, 543.0 1195.8, 543.0 1196.0 C 543.1 1197.2, 542.4 1203.0, 543.0 1204.0 C 543.4 1204.7, 547.2 1205.0, 548.0 1205.0 C 548.3 1205.0, 549.9 1204.3, 550.0 1204.0 C 550.2 1203.3, 549.9 1199.7, 550.0 1199.0 C 550.2 1198.2, 551.9 1194.8, 552.0 1194.0 C 552.2 1192.5, 552.2 1185.5, 552.0 1184.0 C 551.9 1183.6, 550.0 1182.4, 550.0 1182.0 C 549.7 1172.4, 550.1 1127.6, 550.0 1118.0 C 550.0 1117.8, 549.0 1117.2, 549.0 1117.0 C 548.9 1111.8, 549.1 1087.2, 549.0 1082.0 C 549.0 1081.8, 548.0 1081.2, 548.0 1081.0 C 547.9 1078.0, 548.1 1064.0, 548.0 1061.0 C 548.0 1060.8, 547.0 1060.2, 547.0 1060.0 C 546.9 1059.4, 547.1 1056.6, 547.0 1056.0 C 547.0 1055.8, 546.1 1055.2, 546.0 1055.0 C 545.9 1054.6, 546.1 1052.4, 546.0 1052.0 C 545.7 1051.0, 543.4 1046.9, 543.0 1046.0 C 542.9 1045.7, 543.1 1044.3, 543.0 1044.0 C 542.1 1042.3, 537.3 1034.5, 536.0 1033.0 C 535.0 1031.9, 529.2 1027.8, 528.0 1027.0 C 527.4 1026.6, 524.6 1025.2, 524.0 1025.0 C 523.7 1024.9, 522.3 1025.1, 522.0 1025.0 C 521.5 1024.8, 519.3 1023.5, 519.0 1023.0 C 518.9 1022.8, 519.8 1022.1, 520.0 1022.0 C 520.3 1021.9, 521.7 1021.9, 522.0 1022.0 C 522.2 1022.1, 522.8 1023.0, 523.0 1023.0 C 523.2 1023.0, 524.0 1022.2, 524.0 1022.0 C 524.1 1015.4, 523.3 984.6, 524.0 978.0 C 524.1 977.1, 528.2 975.4, 529.0 975.0 C 529.6 974.7, 532.4 974.3, 533.0 974.0 C 533.7 973.7, 536.4 971.5, 537.0 971.0 C 537.9 970.1, 542.2 966.0, 543.0 965.0 C 543.3 964.6, 543.8 962.4, 544.0 962.0 C 544.2 961.6, 546.4 960.0, 546.0 960.0 C 541.8 959.5, 522.2 959.3, 518.0 959.0 C 517.8 959.0, 517.2 958.0, 517.0 958.0 C 514.2 957.9, 500.8 957.9, 498.0 958.0 Z M 534.0 1195.0 C 534.1 1195.0, 535.0 1195.9, 535.0 1196.0 C 535.0 1196.1, 535.0 1199.9, 535.0 1200.0 C 535.0 1200.1, 534.0 1200.9, 534.0 1201.0 C 534.0 1201.1, 534.0 1204.9, 534.0 1205.0 C 534.0 1205.1, 533.0 1205.9, 533.0 1206.0 C 533.0 1206.1, 533.0 1209.9, 533.0 1210.0 C 533.0 1210.1, 532.0 1210.9, 532.0 1211.0 C 532.0 1211.1, 532.0 1214.9, 532.0 1215.0 C 532.0 1215.1, 531.0 1215.9, 531.0 1216.0 C 530.9 1216.4, 530.1 1227.6, 530.0 1228.0 C 530.0 1228.1, 529.0 1228.9, 529.0 1229.0 C 529.0 1229.2, 529.0 1233.8, 529.0 1234.0 C 529.0 1234.1, 528.0 1234.9, 528.0 1235.0 C 527.9 1235.4, 527.1 1244.6, 527.0 1245.0 C 527.0 1245.1, 526.0 1245.9, 526.0 1246.0 C 526.0 1246.2, 526.0 1251.8, 526.0 1252.0 C 526.0 1252.1, 525.0 1252.9, 525.0 1253.0 C 525.0 1253.1, 525.0 1256.9, 525.0 1257.0 C 525.0 1257.1, 524.0 1257.9, 524.0 1258.0 C 524.0 1258.1, 524.0 1261.9, 524.0 1262.0 C 524.0 1262.1, 523.1 1263.0, 523.0 1263.0 C 522.9 1263.0, 522.0 1262.1, 522.0 1262.0 C 522.0 1260.2, 522.0 1216.8, 522.0 1215.0 C 522.0 1214.9, 523.0 1214.1, 523.0 1214.0 C 523.0 1213.4, 522.9 1197.6, 523.0 1197.0 C 523.0 1196.8, 526.8 1195.0, 527.0 1195.0 C 527.3 1195.0, 533.7 1195.0, 534.0 1195.0 Z M 488.0 1195.0 C 488.2 1195.0, 493.8 1195.0, 494.0 1195.0 C 494.1 1195.0, 494.9 1196.0, 495.0 1196.0 C 495.1 1196.0, 497.9 1196.0, 498.0 1196.0 C 498.1 1196.0, 499.0 1196.9, 499.0 1197.0 C 499.0 1199.5, 499.0 1260.5, 499.0 1263.0 C 499.0 1263.1, 498.1 1264.0, 498.0 1264.0 C 497.9 1264.0, 497.0 1263.1, 497.0 1263.0 C 497.0 1262.8, 497.0 1257.2, 497.0 1257.0 C 497.0 1256.9, 496.0 1256.1, 496.0 1256.0 C 495.9 1255.6, 495.1 1245.4, 495.0 1245.0 C 495.0 1244.9, 494.0 1244.1, 494.0 1244.0 C 494.0 1243.9, 494.0 1240.1, 494.0 1240.0 C 494.0 1239.9, 493.0 1239.1, 493.0 1239.0 C 493.0 1238.9, 493.0 1235.1, 493.0 1235.0 C 493.0 1234.9, 492.0 1234.1, 492.0 1234.0 C 492.0 1233.9, 492.0 1230.1, 492.0 1230.0 C 492.0 1229.9, 491.0 1229.1, 491.0 1229.0 C 491.0 1228.9, 491.0 1225.1, 491.0 1225.0 C 491.0 1224.9, 490.0 1224.1, 490.0 1224.0 C 490.0 1223.8, 490.0 1219.2, 490.0 1219.0 C 490.0 1218.9, 489.0 1218.1, 489.0 1218.0 C 489.0 1217.8, 489.0 1213.2, 489.0 1213.0 C 489.0 1212.9, 488.0 1212.1, 488.0 1212.0 C 488.0 1211.8, 488.0 1207.2, 488.0 1207.0 C 488.0 1206.9, 487.0 1206.1, 487.0 1206.0 C 487.0 1205.6, 487.0 1196.4, 487.0 1196.0 C 487.0 1195.9, 487.9 1195.0, 488.0 1195.0 Z M 524.0 1112.0 C 524.1 1112.0, 525.0 1112.9, 525.0 1113.0 C 525.0 1113.1, 525.0 1115.9, 525.0 1116.0 C 525.0 1116.2, 527.0 1119.8, 527.0 1120.0 C 527.0 1120.1, 527.0 1122.9, 527.0 1123.0 C 527.0 1123.1, 528.0 1123.9, 528.0 1124.0 C 528.0 1124.1, 528.0 1126.9, 528.0 1127.0 C 528.0 1127.2, 530.0 1130.8, 530.0 1131.0 C 530.0 1131.1, 530.0 1133.9, 530.0 1134.0 C 530.0 1134.1, 531.0 1134.9, 531.0 1135.0 C 531.0 1135.1, 531.0 1137.9, 531.0 1138.0 C 531.0 1138.1, 532.0 1138.9, 532.0 1139.0 C 532.0 1139.1, 532.0 1142.9, 532.0 1143.0 C 532.0 1143.1, 533.0 1143.9, 533.0 1144.0 C 533.0 1144.2, 533.0 1149.8, 533.0 1150.0 C 533.0 1150.1, 534.0 1150.9, 534.0 1151.0 C 534.0 1151.4, 534.0 1160.6, 534.0 1161.0 C 534.0 1161.1, 535.0 1161.9, 535.0 1162.0 C 535.0 1162.4, 535.0 1173.6, 535.0 1174.0 C 535.0 1174.1, 536.0 1174.9, 536.0 1175.0 C 536.0 1175.3, 536.0 1181.7, 536.0 1182.0 C 536.0 1182.1, 535.1 1183.0, 535.0 1183.0 C 534.6 1183.0, 524.4 1183.0, 524.0 1183.0 C 523.9 1183.0, 523.0 1182.1, 523.0 1182.0 C 523.0 1179.4, 523.0 1115.6, 523.0 1113.0 C 523.0 1112.9, 523.9 1112.0, 524.0 1112.0 Z M 498.0 1110.0 C 498.0 1110.0, 499.0 1110.9, 499.0 1111.0 C 499.0 1113.7, 499.0 1179.3, 499.0 1182.0 C 499.0 1182.1, 498.1 1183.0, 498.0 1183.0 C 497.6 1183.0, 487.4 1183.0, 487.0 1183.0 C 486.9 1183.0, 486.0 1182.1, 486.0 1182.0 C 486.0 1181.3, 486.0 1164.7, 486.0 1164.0 C 486.0 1163.9, 487.0 1163.1, 487.0 1163.0 C 487.0 1162.6, 487.0 1152.4, 487.0 1152.0 C 487.0 1151.9, 488.0 1151.1, 488.0 1151.0 C 488.0 1150.7, 488.0 1144.3, 488.0 1144.0 C 488.0 1143.9, 489.0 1143.1, 489.0 1143.0 C 489.0 1142.9, 489.0 1139.1, 489.0 1139.0 C 489.0 1138.8, 491.0 1135.2, 491.0 1135.0 C 491.0 1134.9, 491.0 1132.1, 491.0 1132.0 C 491.0 1131.9, 492.0 1131.1, 492.0 1131.0 C 492.1 1130.7, 492.9 1124.3, 493.0 1124.0 C 493.0 1123.9, 494.0 1123.1, 494.0 1123.0 C 494.0 1122.9, 494.0 1121.1, 494.0 1121.0 C 494.1 1120.8, 496.0 1117.2, 496.0 1117.0 C 496.0 1116.9, 496.0 1114.1, 496.0 1114.0 C 496.0 1113.8, 497.9 1110.1, 498.0 1110.0 Z M 524.0 1041.0 C 524.0 1041.0, 525.0 1041.0, 525.0 1041.0 C 525.1 1041.1, 527.9 1043.9, 528.0 1044.0 C 528.0 1044.0, 528.0 1045.0, 528.0 1045.0 C 528.1 1045.2, 531.9 1049.8, 532.0 1050.0 C 532.1 1050.1, 532.9 1053.9, 533.0 1054.0 C 533.0 1054.0, 534.0 1054.9, 534.0 1055.0 C 534.0 1055.1, 534.0 1056.9, 534.0 1057.0 C 534.0 1057.1, 535.0 1057.9, 535.0 1058.0 C 535.0 1058.2, 535.0 1063.8, 535.0 1064.0 C 535.0 1064.1, 536.0 1064.9, 536.0 1065.0 C 536.0 1065.6, 536.0 1080.4, 536.0 1081.0 C 536.0 1081.1, 537.0 1081.9, 537.0 1082.0 C 537.0 1082.4, 537.0 1092.6, 537.0 1093.0 C 537.0 1093.1, 538.0 1093.9, 538.0 1094.0 C 538.0 1094.6, 538.0 1109.4, 538.0 1110.0 C 538.0 1110.1, 539.0 1110.9, 539.0 1111.0 C 539.0 1111.5, 539.0 1123.5, 539.0 1124.0 C 539.0 1124.1, 540.0 1124.9, 540.0 1125.0 C 540.1 1126.2, 540.9 1154.8, 541.0 1156.0 C 541.0 1156.1, 542.0 1156.9, 542.0 1157.0 C 542.0 1157.4, 542.0 1168.6, 542.0 1169.0 C 542.0 1169.1, 543.0 1169.9, 543.0 1170.0 C 543.0 1170.4, 543.0 1181.6, 543.0 1182.0 C 543.0 1182.1, 542.1 1183.0, 542.0 1183.0 C 541.9 1183.0, 538.1 1183.0, 538.0 1183.0 C 537.9 1183.0, 537.0 1182.1, 537.0 1182.0 C 537.0 1181.9, 538.0 1181.1, 538.0 1181.0 C 538.0 1180.9, 537.0 1180.1, 537.0 1180.0 C 537.0 1179.3, 537.0 1162.7, 537.0 1162.0 C 537.0 1161.9, 536.0 1161.1, 536.0 1161.0 C 536.0 1160.6, 536.0 1149.4, 536.0 1149.0 C 536.0 1148.9, 535.0 1148.1, 535.0 1148.0 C 535.0 1147.7, 535.0 1140.3, 535.0 1140.0 C 535.0 1139.9, 534.0 1139.1, 534.0 1139.0 C 534.0 1138.8, 534.0 1134.2, 534.0 1134.0 C 534.0 1133.9, 533.0 1133.1, 533.0 1133.0 C 532.9 1132.7, 532.1 1126.3, 532.0 1126.0 C 532.0 1125.9, 531.0 1125.1, 531.0 1125.0 C 531.0 1124.9, 531.0 1123.1, 531.0 1123.0 C 531.0 1122.9, 530.0 1122.1, 530.0 1122.0 C 530.0 1121.9, 530.0 1120.1, 530.0 1120.0 C 529.9 1119.8, 528.0 1116.2, 528.0 1116.0 C 528.0 1115.9, 528.0 1113.1, 528.0 1113.0 C 528.0 1112.9, 527.0 1112.1, 527.0 1112.0 C 527.0 1111.9, 527.0 1109.1, 527.0 1109.0 C 527.0 1108.9, 526.0 1108.1, 526.0 1108.0 C 525.9 1107.6, 525.1 1098.4, 525.0 1098.0 C 525.0 1097.9, 524.0 1097.1, 524.0 1097.0 C 524.0 1096.9, 524.0 1093.1, 524.0 1093.0 C 524.0 1092.9, 523.0 1092.1, 523.0 1092.0 C 523.0 1090.1, 523.0 1043.9, 523.0 1042.0 C 523.0 1041.9, 524.0 1041.0, 524.0 1041.0 Z M 498.0 1040.0 C 498.0 1040.0, 499.0 1040.9, 499.0 1041.0 C 499.0 1042.9, 499.0 1091.1, 499.0 1093.0 C 499.0 1093.1, 498.0 1093.9, 498.0 1094.0 C 498.0 1094.1, 498.0 1096.9, 498.0 1097.0 C 498.0 1097.1, 497.0 1097.9, 497.0 1098.0 C 497.0 1098.1, 497.0 1100.9, 497.0 1101.0 C 497.0 1101.1, 496.0 1101.9, 496.0 1102.0 C 495.9 1102.3, 495.1 1108.7, 495.0 1109.0 C 495.0 1109.2, 493.0 1112.8, 493.0 1113.0 C 493.0 1113.1, 493.0 1115.9, 493.0 1116.0 C 493.0 1116.1, 492.0 1116.9, 492.0 1117.0 C 491.9 1117.3, 491.1 1123.7, 491.0 1124.0 C 491.0 1124.1, 490.0 1124.9, 490.0 1125.0 C 490.0 1125.1, 490.0 1126.9, 490.0 1127.0 C 489.9 1127.2, 488.0 1130.8, 488.0 1131.0 C 488.0 1131.1, 488.0 1134.9, 488.0 1135.0 C 488.0 1135.1, 487.0 1135.9, 487.0 1136.0 C 487.0 1136.1, 487.0 1139.9, 487.0 1140.0 C 487.0 1140.1, 486.0 1140.9, 486.0 1141.0 C 486.0 1141.3, 486.0 1149.7, 486.0 1150.0 C 486.0 1150.1, 485.0 1150.9, 485.0 1151.0 C 485.0 1151.4, 485.0 1161.6, 485.0 1162.0 C 485.0 1162.1, 484.0 1162.9, 484.0 1163.0 C 484.0 1163.7, 484.1 1181.3, 484.0 1182.0 C 484.0 1182.1, 482.1 1184.0, 482.0 1184.0 C 481.9 1184.0, 480.1 1184.0, 480.0 1184.0 C 479.9 1184.0, 479.0 1183.1, 479.0 1183.0 C 479.0 1182.3, 479.0 1165.7, 479.0 1165.0 C 479.0 1164.9, 480.0 1164.1, 480.0 1164.0 C 480.0 1163.5, 480.0 1150.5, 480.0 1150.0 C 480.0 1149.9, 481.0 1149.1, 481.0 1149.0 C 481.0 1148.2, 481.0 1127.8, 481.0 1127.0 C 481.0 1126.9, 482.0 1126.1, 482.0 1126.0 C 482.0 1125.6, 482.0 1116.4, 482.0 1116.0 C 482.0 1115.9, 483.0 1115.1, 483.0 1115.0 C 483.0 1114.5, 483.0 1101.5, 483.0 1101.0 C 483.0 1100.9, 484.0 1100.1, 484.0 1100.0 C 484.0 1099.5, 484.0 1086.5, 484.0 1086.0 C 484.0 1085.9, 485.0 1085.1, 485.0 1085.0 C 485.1 1084.1, 485.9 1060.9, 486.0 1060.0 C 486.0 1059.9, 487.0 1059.1, 487.0 1059.0 C 487.0 1058.9, 487.0 1055.1, 487.0 1055.0 C 487.0 1054.9, 488.9 1052.1, 489.0 1052.0 C 489.0 1051.9, 489.0 1050.1, 489.0 1050.0 C 489.0 1049.9, 490.9 1048.1, 491.0 1048.0 C 491.0 1048.0, 491.0 1047.0, 491.0 1047.0 C 491.2 1046.7, 497.7 1040.2, 498.0 1040.0 Z M 401.0 1017.0 C 401.2 1017.3, 404.7 1020.8, 405.0 1021.0 C 405.4 1021.3, 410.5 1023.9, 411.0 1024.0 C 412.0 1024.2, 423.0 1025.1, 424.0 1025.0 C 424.9 1024.9, 434.2 1021.4, 435.0 1021.0 C 435.5 1020.7, 440.6 1015.5, 441.0 1015.0 C 441.5 1014.3, 445.7 1005.8, 446.0 1005.0 C 446.1 1004.6, 447.0 1000.4, 447.0 1000.0 C 446.9 997.6, 445.2 970.4, 445.0 968.0 C 445.0 967.9, 444.0 967.1, 444.0 967.0 C 443.9 965.7, 443.9 951.3, 444.0 950.0 C 444.0 949.9, 444.9 949.0, 445.0 949.0 C 445.9 949.3, 456.1 953.7, 457.0 954.0 C 457.7 954.2, 466.3 954.9, 467.0 955.0 C 467.1 955.0, 467.9 956.0, 468.0 956.0 C 469.2 956.1, 482.8 956.1, 484.0 956.0 C 484.1 956.0, 484.9 955.0, 485.0 955.0 C 486.1 954.9, 498.9 954.1, 500.0 954.0 C 500.1 954.0, 500.9 953.0, 501.0 953.0 C 503.0 953.0, 525.1 953.9, 527.0 954.0 C 527.1 954.0, 527.9 955.0, 528.0 955.0 C 528.7 955.1, 537.3 954.9, 538.0 955.0 C 538.1 955.0, 538.9 956.0, 539.0 956.0 C 540.6 956.1, 559.4 956.2, 561.0 956.0 C 563.1 955.7, 587.0 950.7, 589.0 950.0 C 590.3 949.6, 603.9 942.7, 605.0 942.0 C 606.0 941.4, 616.1 932.8, 617.0 932.0 C 617.4 931.6, 621.7 926.5, 622.0 926.0 C 622.4 925.4, 626.7 917.7, 627.0 917.0 C 627.5 915.8, 631.8 902.2, 632.0 901.0 C 632.4 899.0, 636.0 875.8, 635.0 874.0 C 634.5 873.0, 624.0 883.3, 623.0 884.0 C 621.7 884.9, 606.4 894.2, 605.0 895.0 C 604.1 895.5, 593.0 900.6, 592.0 901.0 C 590.7 901.5, 575.4 906.6, 574.0 907.0 C 572.2 907.5, 551.8 911.7, 550.0 912.0 C 548.6 912.2, 532.4 912.9, 531.0 913.0 C 530.9 913.0, 530.1 914.0, 530.0 914.0 C 526.9 914.1, 492.1 914.1, 489.0 914.0 C 488.9 914.0, 488.1 913.0, 488.0 913.0 C 487.3 912.9, 479.7 913.1, 479.0 913.0 C 478.9 913.0, 478.1 912.0, 478.0 912.0 C 476.7 911.8, 462.2 910.3, 461.0 910.0 C 458.4 909.4, 429.5 900.9, 427.0 900.0 C 426.3 899.7, 418.7 895.3, 418.0 895.0 C 417.9 894.9, 416.1 895.1, 416.0 895.0 C 414.8 894.4, 402.1 886.8, 401.0 886.0 C 399.7 885.0, 386.2 873.1, 385.0 872.0 C 384.4 871.4, 378.7 864.4, 378.0 864.0 C 377.8 863.9, 377.0 866.8, 377.0 867.0 C 377.0 869.2, 377.8 893.8, 378.0 896.0 C 378.0 896.5, 379.9 901.5, 380.0 902.0 C 380.5 904.9, 385.5 938.1, 386.0 941.0 C 386.4 943.0, 391.7 965.9, 392.0 968.0 C 392.4 970.4, 394.7 997.6, 395.0 1000.0 C 395.1 1000.8, 397.7 1010.2, 398.0 1011.0 C 398.2 1011.5, 400.7 1016.6, 401.0 1017.0 Z M 502.0 511.0 C 501.8 511.0, 501.2 512.0, 501.0 512.0 C 499.2 512.3, 490.7 512.5, 489.0 513.0 C 486.2 513.7, 473.6 518.8, 471.0 520.0 C 470.6 520.2, 469.4 521.8, 469.0 522.0 C 467.7 522.8, 461.2 526.1, 460.0 527.0 C 458.2 528.3, 450.7 535.6, 449.0 537.0 C 448.9 537.1, 448.1 536.9, 448.0 537.0 C 447.9 537.1, 448.1 537.9, 448.0 538.0 C 446.7 539.6, 440.2 546.4, 439.0 548.0 C 437.6 549.8, 432.1 559.0, 431.0 561.0 C 430.9 561.3, 431.1 562.7, 431.0 563.0 C 430.5 564.1, 427.5 568.9, 427.0 570.0 C 426.9 570.3, 427.1 571.7, 427.0 572.0 C 426.6 572.9, 424.3 577.0, 424.0 578.0 C 423.9 578.4, 424.1 580.6, 424.0 581.0 C 423.8 581.6, 422.2 584.3, 422.0 585.0 C 421.7 586.2, 421.3 591.8, 421.0 593.0 C 421.0 593.2, 420.0 593.8, 420.0 594.0 C 419.9 594.7, 420.1 598.3, 420.0 599.0 C 420.0 599.2, 419.0 599.8, 419.0 600.0 C 418.9 604.0, 418.9 623.0, 419.0 627.0 C 419.0 627.2, 420.0 627.8, 420.0 628.0 C 420.3 629.6, 420.7 637.4, 421.0 639.0 C 421.1 639.7, 422.8 642.4, 423.0 643.0 C 423.1 643.4, 422.9 645.6, 423.0 646.0 C 423.1 646.2, 423.9 646.8, 424.0 647.0 C 424.4 648.2, 425.6 653.8, 426.0 655.0 C 426.3 655.8, 428.7 659.2, 429.0 660.0 C 429.1 660.3, 428.9 661.7, 429.0 662.0 C 430.4 664.6, 437.3 676.6, 439.0 679.0 C 440.7 681.4, 449.9 691.9, 452.0 694.0 C 453.6 695.6, 462.1 701.8, 464.0 703.0 C 466.2 704.4, 476.7 709.9, 479.0 711.0 C 479.3 711.1, 480.7 710.9, 481.0 711.0 C 482.1 711.4, 486.9 713.7, 488.0 714.0 C 489.0 714.3, 494.0 714.7, 495.0 715.0 C 495.2 715.1, 495.8 716.0, 496.0 716.0 C 496.9 716.1, 501.1 715.9, 502.0 716.0 C 502.2 716.0, 502.8 717.0, 503.0 717.0 C 505.2 717.1, 515.8 717.1, 518.0 717.0 C 518.2 717.0, 518.8 716.0, 519.0 716.0 C 520.0 715.9, 525.0 716.1, 526.0 716.0 C 526.2 716.0, 526.8 715.1, 527.0 715.0 C 528.0 714.7, 533.0 714.3, 534.0 714.0 C 537.1 713.0, 551.1 707.4, 554.0 706.0 C 555.9 705.0, 564.3 699.4, 566.0 698.0 C 568.3 696.1, 578.0 686.2, 580.0 684.0 C 581.0 682.9, 585.2 677.3, 586.0 676.0 C 586.9 674.6, 590.2 667.4, 591.0 666.0 C 591.2 665.6, 592.8 664.4, 593.0 664.0 C 593.1 663.7, 592.9 662.3, 593.0 662.0 C 593.5 660.9, 596.5 656.1, 597.0 655.0 C 597.1 654.7, 596.9 653.3, 597.0 653.0 C 597.5 651.5, 600.6 644.6, 601.0 643.0 C 601.2 642.4, 600.9 639.6, 601.0 639.0 C 601.0 638.8, 602.0 638.2, 602.0 638.0 C 602.1 637.4, 601.9 634.6, 602.0 634.0 C 602.0 633.8, 603.0 633.2, 603.0 633.0 C 603.1 632.1, 602.9 627.9, 603.0 627.0 C 603.0 626.8, 604.0 626.2, 604.0 626.0 C 604.1 622.7, 604.1 607.3, 604.0 604.0 C 604.0 603.8, 603.0 603.2, 603.0 603.0 C 602.9 602.0, 603.1 597.0, 603.0 596.0 C 603.0 595.8, 602.0 595.2, 602.0 595.0 C 601.7 593.7, 601.3 587.3, 601.0 586.0 C 601.0 585.8, 600.1 585.2, 600.0 585.0 C 599.9 584.6, 600.1 582.4, 600.0 582.0 C 599.9 581.8, 599.1 581.2, 599.0 581.0 C 598.5 579.4, 596.7 571.6, 596.0 570.0 C 594.9 567.3, 588.5 555.5, 587.0 553.0 C 585.8 551.1, 579.4 542.7, 578.0 541.0 C 577.0 539.9, 572.1 535.0, 571.0 534.0 C 570.9 533.9, 570.1 534.1, 570.0 534.0 C 569.0 533.2, 565.0 528.8, 564.0 528.0 C 563.2 527.4, 558.8 525.5, 558.0 525.0 C 557.2 524.5, 553.8 521.5, 553.0 521.0 C 552.4 520.6, 549.6 519.2, 549.0 519.0 C 548.7 518.9, 547.3 519.1, 547.0 519.0 C 546.5 518.8, 544.5 517.2, 544.0 517.0 C 543.7 516.9, 542.3 517.1, 542.0 517.0 C 541.5 516.8, 539.5 515.2, 539.0 515.0 C 538.7 514.9, 537.3 515.1, 537.0 515.0 C 536.4 514.8, 533.7 513.1, 533.0 513.0 C 531.1 512.7, 521.9 512.3, 520.0 512.0 C 519.8 512.0, 519.2 511.0, 519.0 511.0 C 516.5 510.9, 504.5 510.9, 502.0 511.0 Z M 684.0 438.0 C 683.9 438.0, 682.1 439.9, 682.0 440.0 C 682.0 440.0, 681.0 440.0, 681.0 440.0 C 680.8 440.2, 677.1 444.8, 677.0 445.0 C 676.9 445.2, 677.0 449.8, 677.0 450.0 C 677.0 450.1, 678.0 451.0, 678.0 451.0 C 678.1 451.1, 678.9 454.9, 679.0 455.0 C 679.1 455.2, 682.8 458.9, 683.0 459.0 C 683.1 459.1, 686.9 461.1, 687.0 461.0 C 687.2 460.7, 687.0 451.4, 687.0 451.0 C 687.0 450.9, 688.0 450.1, 688.0 450.0 C 688.0 449.9, 688.0 448.1, 688.0 448.0 C 687.9 447.7, 684.1 441.3, 684.0 441.0 C 684.0 440.9, 684.1 438.1, 684.0 438.0 Z M 339.0 437.0 C 338.8 436.9, 338.1 442.8, 338.0 443.0 C 337.9 443.2, 335.1 447.8, 335.0 448.0 C 335.0 448.1, 335.0 450.9, 335.0 451.0 C 335.0 451.1, 336.0 451.9, 336.0 452.0 C 336.0 452.3, 335.8 460.8, 336.0 461.0 C 336.2 461.2, 341.8 458.2, 342.0 458.0 C 342.1 457.9, 344.9 454.2, 345.0 454.0 C 345.0 453.9, 345.0 452.1, 345.0 452.0 C 345.0 451.9, 346.0 451.1, 346.0 451.0 C 346.0 450.8, 346.1 445.2, 346.0 445.0 C 345.8 444.6, 339.4 437.1, 339.0 437.0 Z M 335.0 423.0 C 334.8 423.2, 334.9 426.7, 335.0 427.0 C 335.1 427.3, 336.8 429.8, 337.0 430.0 C 338.4 431.5, 354.5 447.7, 356.0 449.0 C 357.1 450.0, 370.7 460.2, 372.0 461.0 C 373.4 461.9, 389.5 470.4, 391.0 471.0 C 392.4 471.6, 408.5 476.6, 410.0 477.0 C 410.7 477.2, 419.3 477.9, 420.0 478.0 C 420.1 478.0, 420.9 479.0, 421.0 479.0 C 421.6 479.1, 428.4 478.9, 429.0 479.0 C 429.1 479.0, 429.9 480.0, 430.0 480.0 C 434.9 480.1, 491.1 479.9, 496.0 480.0 C 496.1 480.0, 497.0 480.9, 497.0 481.0 C 497.1 482.6, 496.6 501.4, 497.0 503.0 C 497.1 503.4, 502.6 503.1, 503.0 503.0 C 503.1 503.0, 503.9 502.0, 504.0 502.0 C 505.6 502.0, 523.4 503.0, 525.0 503.0 C 525.1 503.0, 526.0 502.1, 526.0 502.0 C 526.1 500.4, 525.9 482.6, 526.0 481.0 C 526.0 480.9, 526.9 480.0, 527.0 480.0 C 531.8 479.9, 586.2 480.1, 591.0 480.0 C 591.1 480.0, 591.9 479.0, 592.0 479.0 C 592.7 478.9, 600.3 479.1, 601.0 479.0 C 601.1 479.0, 601.9 478.0, 602.0 478.0 C 602.9 477.9, 613.1 477.2, 614.0 477.0 C 615.6 476.6, 633.5 470.6, 635.0 470.0 C 636.2 469.5, 648.9 462.7, 650.0 462.0 C 651.2 461.3, 663.9 451.9, 665.0 451.0 C 666.2 450.0, 679.0 438.1, 680.0 437.0 C 680.7 436.2, 687.6 426.9, 688.0 426.0 C 688.1 425.7, 687.2 422.2, 687.0 422.0 C 686.4 421.4, 678.7 415.6, 678.0 416.0 C 676.5 416.8, 665.2 432.8, 664.0 434.0 C 662.8 435.3, 647.4 447.9, 646.0 449.0 C 645.4 449.4, 638.6 453.7, 638.0 454.0 C 637.9 454.1, 636.1 453.9, 636.0 454.0 C 634.9 454.5, 623.1 460.6, 622.0 461.0 C 620.8 461.4, 607.2 464.8, 606.0 465.0 C 604.7 465.2, 590.3 465.9, 589.0 466.0 C 588.9 466.0, 588.1 467.0, 588.0 467.0 C 583.3 467.1, 529.7 467.3, 525.0 467.0 C 524.4 467.0, 519.6 462.2, 519.0 462.0 C 518.1 461.7, 507.9 460.9, 507.0 461.0 C 506.5 461.0, 501.4 462.8, 501.0 463.0 C 500.6 463.2, 497.4 467.0, 497.0 467.0 C 492.8 467.3, 445.2 467.1, 441.0 467.0 C 440.9 467.0, 440.1 466.0, 440.0 466.0 C 438.9 465.9, 426.1 466.1, 425.0 466.0 C 424.9 466.0, 424.1 465.0, 424.0 465.0 C 423.2 464.9, 413.8 464.2, 413.0 464.0 C 411.9 463.8, 400.0 460.4, 399.0 460.0 C 397.8 459.6, 385.1 453.6, 384.0 453.0 C 382.7 452.2, 368.2 442.0, 367.0 441.0 C 366.0 440.2, 355.8 430.0, 355.0 429.0 C 354.2 428.1, 346.2 416.4, 345.0 416.0 C 344.1 415.7, 335.6 422.3, 335.0 423.0 Z M 700.0 365.0 C 699.8 365.1, 696.1 367.9, 696.0 368.0 C 696.0 368.1, 696.0 369.9, 696.0 370.0 C 696.0 370.1, 695.0 370.9, 695.0 371.0 C 695.0 371.1, 695.0 372.9, 695.0 373.0 C 695.0 373.1, 694.0 374.0, 694.0 374.0 C 693.9 374.1, 692.9 377.9, 693.0 378.0 C 693.4 378.2, 704.5 380.1, 705.0 380.0 C 705.2 380.0, 707.0 376.2, 707.0 376.0 C 707.1 375.7, 708.1 367.3, 708.0 367.0 C 708.0 366.9, 705.1 365.0, 705.0 365.0 C 704.8 365.0, 700.2 364.9, 700.0 365.0 Z M 313.0 367.0 C 312.9 367.3, 313.9 374.7, 314.0 375.0 C 314.1 375.2, 316.8 380.0, 317.0 380.0 C 317.4 380.1, 328.6 378.2, 329.0 378.0 C 329.1 378.0, 329.0 375.1, 329.0 375.0 C 329.0 374.9, 328.0 374.1, 328.0 374.0 C 327.9 373.8, 327.1 369.2, 327.0 369.0 C 326.9 368.9, 324.1 366.1, 324.0 366.0 C 323.9 365.9, 322.1 365.0, 322.0 365.0 C 321.8 365.0, 317.2 365.0, 317.0 365.0 C 316.8 365.0, 313.0 366.8, 313.0 367.0 Z M 295.0 342.0 C 293.7 342.5, 291.7 344.8, 291.0 346.0 C 290.1 347.6, 289.1 351.2, 289.0 353.0 C 288.6 360.5, 288.4 375.5, 289.0 383.0 C 289.4 388.6, 291.2 399.7, 293.0 405.0 C 293.3 406.0, 296.0 406.2, 297.0 406.0 C 299.3 405.6, 303.9 404.1, 306.0 403.0 C 307.2 402.3, 309.3 400.2, 310.0 399.0 C 311.1 397.2, 310.9 391.5, 313.0 391.0 C 314.7 390.6, 314.6 396.3, 314.0 398.0 C 313.2 400.4, 310.0 404.5, 308.0 406.0 C 306.3 407.3, 302.1 408.5, 300.0 409.0 C 297.8 409.5, 293.2 410.6, 291.0 410.0 C 289.9 409.7, 289.2 407.1, 289.0 406.0 C 287.7 400.3, 289.1 387.1, 285.0 383.0 C 282.6 380.6, 276.6 388.8, 274.0 391.0 C 272.8 392.0, 270.7 394.6, 270.0 396.0 C 268.7 398.9, 266.7 404.9, 266.0 408.0 C 265.5 410.2, 265.0 414.7, 265.0 417.0 C 265.0 422.0, 264.2 432.3, 266.0 437.0 C 267.6 441.3, 274.6 447.9, 278.0 451.0 C 279.9 452.7, 286.9 453.4, 287.0 456.0 C 287.4 465.2, 281.4 482.9, 280.0 492.0 C 278.4 502.7, 275.6 524.2, 275.0 535.0 C 274.1 550.0, 273.0 580.0, 274.0 595.0 C 274.5 603.2, 278.9 619.1, 281.0 627.0 C 282.4 632.1, 285.8 642.2, 288.0 647.0 C 291.8 655.5, 300.2 672.0, 305.0 680.0 C 311.8 691.3, 327.9 712.3, 334.0 724.0 C 336.5 728.8, 337.4 739.8, 339.0 745.0 C 341.9 754.6, 348.4 773.6, 352.0 783.0 C 358.1 798.9, 370.9 830.5, 378.0 846.0 C 379.7 849.6, 384.4 856.0, 387.0 859.0 C 390.0 862.5, 396.5 869.1, 400.0 872.0 C 403.7 875.1, 411.8 880.6, 416.0 883.0 C 420.1 885.3, 428.6 889.5, 433.0 891.0 C 441.8 894.0, 459.8 899.3, 469.0 901.0 C 477.9 902.6, 496.0 903.9, 505.0 904.0 C 515.0 904.1, 535.1 903.2, 545.0 902.0 C 553.1 901.0, 569.1 897.0, 577.0 895.0 C 580.1 894.2, 586.1 892.3, 589.0 891.0 C 593.6 889.0, 602.7 884.6, 607.0 882.0 C 611.5 879.3, 620.2 873.6, 624.0 870.0 C 629.0 865.3, 638.5 855.0, 642.0 849.0 C 647.8 839.1, 656.5 817.6, 661.0 807.0 C 663.7 800.6, 668.8 787.6, 671.0 781.0 C 675.8 766.4, 682.4 735.9, 689.0 722.0 C 696.0 707.1, 716.8 681.2, 725.0 667.0 C 729.5 659.2, 736.7 642.4, 740.0 634.0 C 742.0 628.9, 744.8 618.3, 746.0 613.0 C 747.3 607.3, 749.8 595.8, 750.0 590.0 C 750.5 577.0, 749.9 551.0, 749.0 538.0 C 748.1 525.7, 744.9 501.2, 743.0 489.0 C 741.7 480.7, 734.8 464.3, 736.0 456.0 C 736.6 452.2, 746.2 450.6, 749.0 448.0 C 751.5 445.7, 756.0 440.3, 757.0 437.0 C 758.4 432.4, 758.1 422.8, 758.0 418.0 C 757.9 414.2, 757.0 406.7, 756.0 403.0 C 755.4 400.8, 753.5 396.6, 752.0 395.0 C 748.4 391.3, 740.8 383.8, 736.0 382.0 C 734.4 381.4, 736.3 387.3, 736.0 389.0 C 735.1 394.3, 733.7 405.3, 731.0 410.0 C 730.1 411.5, 725.7 410.4, 724.0 410.0 C 721.4 409.4, 716.2 407.6, 714.0 406.0 C 712.0 404.5, 708.9 400.3, 708.0 398.0 C 707.5 396.8, 707.8 392.6, 709.0 393.0 C 710.5 393.5, 710.2 397.6, 711.0 399.0 C 711.5 399.9, 713.1 401.4, 714.0 402.0 C 715.4 402.9, 718.4 404.5, 720.0 405.0 C 721.9 405.6, 727.0 407.8, 728.0 406.0 C 730.8 400.9, 731.6 388.8, 732.0 383.0 C 732.6 375.8, 732.4 361.2, 732.0 354.0 C 731.9 351.9, 731.2 347.7, 730.0 346.0 C 728.8 344.2, 725.0 341.8, 723.0 341.0 C 721.8 340.5, 719.2 340.7, 718.0 341.0 C 716.9 341.2, 714.8 342.2, 714.0 343.0 C 713.0 344.0, 711.2 346.6, 711.0 348.0 C 710.1 355.7, 711.1 371.3, 710.0 379.0 C 709.8 380.4, 707.4 382.8, 706.0 383.0 C 702.5 383.6, 695.5 381.5, 692.0 382.0 C 689.6 382.3, 685.1 384.7, 683.0 386.0 C 680.8 387.4, 676.7 391.0, 675.0 393.0 C 674.1 394.0, 673.1 396.7, 673.0 398.0 C 672.8 400.0, 673.0 404.2, 674.0 406.0 C 675.4 408.5, 679.8 412.2, 682.0 414.0 C 682.9 414.7, 685.2 415.2, 686.0 416.0 C 687.8 417.8, 690.8 421.8, 692.0 424.0 C 692.4 424.7, 692.3 426.3, 692.0 427.0 C 691.5 428.4, 689.3 430.6, 689.0 432.0 C 688.6 433.9, 688.5 438.1, 689.0 440.0 C 689.5 441.9, 692.8 445.0, 693.0 447.0 C 693.8 454.5, 693.4 469.5, 693.0 477.0 C 692.4 487.5, 690.3 508.5, 689.0 519.0 C 688.1 526.1, 685.6 540.1, 684.0 547.0 C 682.8 552.1, 679.9 562.1, 678.0 567.0 C 676.4 571.2, 672.4 579.3, 670.0 583.0 C 665.9 589.3, 657.0 601.4, 652.0 607.0 C 646.2 613.5, 634.6 626.8, 627.0 631.0 C 623.7 632.8, 615.3 627.2, 612.0 629.0 C 609.5 630.3, 610.9 637.3, 610.0 640.0 C 607.9 646.6, 603.1 659.8, 600.0 666.0 C 597.1 671.8, 590.0 682.9, 586.0 688.0 C 582.7 692.2, 575.1 699.6, 571.0 703.0 C 567.5 705.9, 560.0 710.9, 556.0 713.0 C 551.7 715.2, 542.6 718.7, 538.0 720.0 C 533.9 721.2, 525.3 722.7, 521.0 723.0 C 515.5 723.4, 504.5 723.7, 499.0 723.0 C 492.6 722.2, 480.1 718.9, 474.0 717.0 C 471.1 716.1, 465.6 713.6, 463.0 712.0 C 459.0 709.6, 451.6 704.0, 448.0 701.0 C 445.6 699.0, 441.0 694.5, 439.0 692.0 C 435.7 688.0, 429.6 679.5, 427.0 675.0 C 423.8 669.5, 418.2 658.0, 416.0 652.0 C 413.9 646.4, 413.6 633.7, 410.0 629.0 C 408.5 627.0, 402.5 630.8, 400.0 631.0 C 398.5 631.1, 395.1 631.0, 394.0 630.0 C 386.2 623.1, 371.9 607.9, 365.0 600.0 C 361.6 596.1, 355.5 587.6, 353.0 583.0 C 349.7 576.8, 344.2 563.7, 342.0 557.0 C 339.9 550.4, 336.8 536.9, 336.0 530.0 C 333.6 509.8, 329.5 469.3, 329.0 449.0 C 328.9 446.4, 333.2 442.5, 334.0 440.0 C 334.5 438.3, 334.4 434.7, 334.0 433.0 C 333.6 431.4, 331.5 428.6, 331.0 427.0 C 330.7 426.0, 330.5 423.9, 331.0 423.0 C 332.1 421.0, 335.3 417.6, 337.0 416.0 C 339.3 413.8, 344.6 410.2, 347.0 408.0 C 347.7 407.4, 348.8 405.9, 349.0 405.0 C 349.4 403.0, 349.4 399.0, 349.0 397.0 C 348.6 395.4, 347.2 392.1, 346.0 391.0 C 343.4 388.5, 337.3 384.5, 334.0 383.0 C 332.4 382.2, 328.8 381.9, 327.0 382.0 C 324.5 382.1, 319.5 384.3, 317.0 384.0 C 315.4 383.8, 313.0 381.3, 312.0 380.0 C 311.2 378.9, 310.1 376.3, 310.0 375.0 C 309.6 368.3, 310.4 354.7, 310.0 348.0 C 309.9 346.9, 308.8 344.8, 308.0 344.0 C 307.0 343.0, 304.4 341.2, 303.0 341.0 C 301.0 340.7, 296.9 341.2, 295.0 342.0 Z M 507.0 151.0 C 506.8 151.0, 504.2 151.9, 504.0 152.0 C 503.7 152.2, 500.2 155.6, 500.0 156.0 C 499.8 156.3, 498.0 160.6, 498.0 161.0 C 497.9 165.9, 498.1 221.1, 498.0 226.0 C 498.0 226.1, 497.0 226.9, 497.0 227.0 C 496.9 228.0, 497.1 239.0, 497.0 240.0 C 497.0 240.1, 496.0 240.9, 496.0 241.0 C 495.9 241.8, 496.1 251.2, 496.0 252.0 C 496.0 252.1, 495.0 252.9, 495.0 253.0 C 494.9 253.5, 495.1 259.5, 495.0 260.0 C 494.9 260.7, 493.1 268.3, 493.0 269.0 C 492.8 271.1, 492.2 294.9, 492.0 297.0 C 491.8 298.6, 488.4 316.4, 488.0 318.0 C 487.9 318.2, 486.1 319.8, 486.0 320.0 C 485.9 320.4, 485.9 325.6, 486.0 326.0 C 486.0 326.1, 487.9 326.1, 488.0 326.0 C 488.4 325.0, 491.8 313.1, 492.0 312.0 C 492.1 311.5, 491.9 305.5, 492.0 305.0 C 492.1 304.5, 493.9 298.5, 494.0 298.0 C 494.1 297.3, 493.9 288.7, 494.0 288.0 C 494.0 287.9, 495.0 287.1, 495.0 287.0 C 495.1 285.9, 495.9 273.1, 496.0 272.0 C 496.1 271.3, 497.9 263.7, 498.0 263.0 C 498.1 262.3, 497.9 253.7, 498.0 253.0 C 498.0 252.9, 498.9 252.0, 499.0 252.0 C 499.1 252.0, 500.0 252.9, 500.0 253.0 C 500.1 258.5, 501.1 320.5, 501.0 326.0 C 501.0 326.3, 499.3 329.0, 499.0 329.0 C 497.7 329.2, 483.3 329.1, 482.0 329.0 C 481.9 329.0, 481.0 328.1, 481.0 328.0 C 480.9 327.5, 481.3 321.4, 481.0 321.0 C 480.8 320.7, 476.4 320.9, 476.0 321.0 C 475.7 321.1, 473.1 323.7, 473.0 324.0 C 472.9 324.3, 473.1 327.7, 473.0 328.0 C 472.9 328.2, 471.0 329.8, 471.0 330.0 C 470.9 330.7, 470.9 339.3, 471.0 340.0 C 471.0 340.1, 472.0 340.9, 472.0 341.0 C 472.1 347.5, 471.9 421.5, 472.0 428.0 C 472.0 428.1, 473.0 428.9, 473.0 429.0 C 473.1 429.9, 473.8 440.1, 474.0 441.0 C 474.2 441.9, 477.6 452.1, 478.0 453.0 C 478.3 453.7, 483.5 461.4, 484.0 462.0 C 484.1 462.1, 485.8 463.0, 486.0 463.0 C 486.7 463.1, 494.4 463.2, 495.0 463.0 C 495.7 462.8, 502.3 458.2, 503.0 458.0 C 503.9 457.7, 514.1 456.9, 515.0 457.0 C 515.6 457.1, 522.4 459.7, 523.0 460.0 C 523.3 460.2, 525.7 463.0, 526.0 463.0 C 526.8 463.1, 536.2 462.2, 537.0 462.0 C 537.3 461.9, 539.9 459.3, 540.0 459.0 C 540.6 457.8, 546.6 443.3, 547.0 442.0 C 547.2 441.3, 547.9 432.7, 548.0 432.0 C 548.0 431.9, 549.0 431.1, 549.0 431.0 C 549.1 430.3, 548.9 422.7, 549.0 422.0 C 549.0 421.9, 550.0 421.1, 550.0 421.0 C 550.1 419.5, 550.1 402.5, 550.0 401.0 C 550.0 400.9, 549.0 400.1, 549.0 400.0 C 548.9 395.7, 548.9 346.3, 549.0 342.0 C 549.0 341.9, 550.0 341.1, 550.0 341.0 C 550.1 340.2, 550.1 330.8, 550.0 330.0 C 549.9 329.5, 548.2 323.5, 548.0 323.0 C 547.9 322.8, 546.2 321.1, 546.0 321.0 C 545.7 320.9, 542.3 320.0, 542.0 320.0 C 541.8 320.0, 540.0 320.8, 540.0 321.0 C 539.9 321.5, 540.1 327.5, 540.0 328.0 C 540.0 328.1, 539.1 329.0, 539.0 329.0 C 537.7 329.1, 522.3 329.1, 521.0 329.0 C 520.9 329.0, 520.0 328.1, 520.0 328.0 C 519.9 322.5, 519.9 259.5, 520.0 254.0 C 520.0 253.9, 520.9 252.9, 521.0 253.0 C 521.2 253.2, 522.9 256.7, 523.0 257.0 C 523.1 257.7, 522.9 265.3, 523.0 266.0 C 523.0 266.1, 524.0 266.9, 524.0 267.0 C 524.4 269.9, 527.6 303.1, 528.0 306.0 C 528.2 307.6, 532.6 325.4, 533.0 327.0 C 533.0 327.1, 534.0 327.1, 534.0 327.0 C 534.1 326.6, 535.1 321.5, 535.0 321.0 C 534.9 320.4, 532.1 314.6, 532.0 314.0 C 531.8 313.3, 531.1 305.7, 531.0 305.0 C 530.9 304.6, 529.0 300.4, 529.0 300.0 C 528.9 298.5, 529.1 281.5, 529.0 280.0 C 529.0 279.9, 528.0 279.1, 528.0 279.0 C 527.9 278.3, 528.1 270.7, 528.0 270.0 C 528.0 269.9, 527.0 269.1, 527.0 269.0 C 526.8 267.0, 525.2 244.0, 525.0 242.0 C 524.9 241.2, 523.0 232.8, 523.0 232.0 C 522.8 226.5, 522.4 164.5, 522.0 159.0 C 522.0 158.4, 517.6 152.3, 517.0 152.0 C 516.3 151.6, 507.8 151.0, 507.0 151.0 Z M 538.0 341.0 C 538.1 341.0, 539.0 341.9, 539.0 342.0 C 539.0 342.4, 539.0 352.6, 539.0 353.0 C 539.0 353.1, 538.0 353.9, 538.0 354.0 C 538.0 354.8, 538.0 374.2, 538.0 375.0 C 538.0 375.1, 537.0 375.9, 537.0 376.0 C 537.0 376.6, 537.0 391.4, 537.0 392.0 C 537.0 392.1, 536.0 392.9, 536.0 393.0 C 536.0 393.6, 536.0 407.4, 536.0 408.0 C 536.0 408.1, 535.0 408.9, 535.0 409.0 C 535.0 409.6, 535.0 423.4, 535.0 424.0 C 535.0 424.1, 534.0 424.9, 534.0 425.0 C 534.0 425.3, 534.0 431.7, 534.0 432.0 C 534.0 432.1, 533.0 432.9, 533.0 433.0 C 533.0 433.1, 533.0 436.9, 533.0 437.0 C 533.0 437.1, 532.0 437.9, 532.0 438.0 C 532.0 438.1, 532.0 440.9, 532.0 441.0 C 532.0 441.1, 531.1 442.9, 531.0 443.0 C 530.9 443.2, 527.2 446.9, 527.0 447.0 C 526.8 447.1, 521.2 447.0, 521.0 447.0 C 520.9 447.0, 520.0 446.1, 520.0 446.0 C 520.0 445.1, 520.0 422.9, 520.0 422.0 C 520.0 421.9, 521.0 421.1, 521.0 421.0 C 521.0 420.8, 521.0 416.2, 521.0 416.0 C 521.0 415.9, 522.0 415.1, 522.0 415.0 C 522.0 414.8, 522.0 410.2, 522.0 410.0 C 522.0 409.9, 523.0 409.1, 523.0 409.0 C 523.0 408.8, 523.0 404.2, 523.0 404.0 C 523.0 403.9, 524.0 403.1, 524.0 403.0 C 524.0 402.8, 524.0 398.2, 524.0 398.0 C 524.0 397.9, 525.0 397.1, 525.0 397.0 C 525.0 396.8, 525.0 391.2, 525.0 391.0 C 525.0 390.9, 526.0 390.1, 526.0 390.0 C 526.0 389.8, 526.0 384.2, 526.0 384.0 C 526.0 383.9, 527.0 383.1, 527.0 383.0 C 527.0 382.7, 527.0 375.3, 527.0 375.0 C 527.0 374.9, 528.0 374.1, 528.0 374.0 C 528.0 373.7, 528.0 366.3, 528.0 366.0 C 528.0 365.9, 529.0 365.1, 529.0 365.0 C 529.0 364.8, 529.0 359.2, 529.0 359.0 C 529.0 358.9, 530.0 358.1, 530.0 358.0 C 530.0 357.7, 530.0 350.3, 530.0 350.0 C 530.0 349.9, 531.0 349.1, 531.0 349.0 C 531.0 348.8, 530.9 343.2, 531.0 343.0 C 531.0 342.9, 532.9 341.0, 533.0 341.0 C 533.2 340.9, 537.8 341.0, 538.0 341.0 Z M 529.0 341.0 C 529.1 341.0, 530.0 341.9, 530.0 342.0 C 530.0 342.1, 530.0 344.9, 530.0 345.0 C 530.0 345.1, 529.0 345.9, 529.0 346.0 C 529.0 346.2, 529.0 350.8, 529.0 351.0 C 529.0 351.1, 528.0 351.9, 528.0 352.0 C 527.9 352.6, 527.1 366.4, 527.0 367.0 C 527.0 367.1, 526.0 367.9, 526.0 368.0 C 526.0 368.2, 526.0 373.8, 526.0 374.0 C 526.0 374.1, 525.0 374.9, 525.0 375.0 C 525.0 375.2, 525.0 380.8, 525.0 381.0 C 525.0 381.1, 524.0 381.9, 524.0 382.0 C 523.9 382.5, 523.1 394.5, 523.0 395.0 C 523.0 395.2, 521.1 398.9, 521.0 399.0 C 521.0 399.0, 520.0 398.1, 520.0 398.0 C 520.0 395.9, 519.9 345.1, 520.0 343.0 C 520.0 342.8, 523.8 341.0, 524.0 341.0 C 524.2 341.0, 528.8 341.0, 529.0 341.0 Z M 493.0 341.0 C 493.1 341.0, 494.9 342.0, 495.0 342.0 C 495.1 342.0, 498.9 341.9, 499.0 342.0 C 499.1 342.1, 501.0 344.9, 501.0 345.0 C 501.1 346.2, 501.0 375.8, 501.0 377.0 C 501.0 377.1, 500.0 377.9, 500.0 378.0 C 500.0 378.8, 501.0 397.2, 501.0 398.0 C 501.0 398.1, 500.0 399.0, 500.0 399.0 C 499.9 398.9, 498.0 395.2, 498.0 395.0 C 498.0 394.8, 498.0 389.2, 498.0 389.0 C 498.0 388.9, 497.0 388.1, 497.0 388.0 C 497.0 387.8, 497.0 383.2, 497.0 383.0 C 497.0 382.9, 496.0 382.1, 496.0 382.0 C 496.0 381.8, 496.0 377.2, 496.0 377.0 C 496.0 376.9, 495.0 376.1, 495.0 376.0 C 495.0 375.7, 495.0 367.3, 495.0 367.0 C 495.0 366.9, 494.0 366.1, 494.0 366.0 C 493.9 365.4, 493.1 350.6, 493.0 350.0 C 493.0 349.9, 492.0 349.1, 492.0 349.0 C 492.0 348.8, 492.0 344.2, 492.0 344.0 C 492.0 343.9, 491.0 343.1, 491.0 343.0 C 491.0 342.9, 492.9 341.0, 493.0 341.0 Z M 483.0 341.0 C 483.2 341.0, 487.8 341.0, 488.0 341.0 C 488.1 341.0, 489.0 341.9, 489.0 342.0 C 489.0 342.1, 489.0 345.9, 489.0 346.0 C 489.0 346.1, 490.0 346.9, 490.0 347.0 C 490.0 347.2, 490.0 352.8, 490.0 353.0 C 490.0 353.1, 491.0 353.9, 491.0 354.0 C 491.0 354.3, 491.0 360.7, 491.0 361.0 C 491.0 361.1, 492.0 361.9, 492.0 362.0 C 492.0 362.3, 492.0 368.7, 492.0 369.0 C 492.0 369.1, 493.0 369.9, 493.0 370.0 C 493.0 370.3, 493.0 376.7, 493.0 377.0 C 493.0 377.1, 494.0 377.9, 494.0 378.0 C 494.0 378.2, 494.0 383.8, 494.0 384.0 C 494.0 384.1, 495.0 384.9, 495.0 385.0 C 495.1 385.4, 495.9 396.6, 496.0 397.0 C 496.0 397.1, 497.0 397.9, 497.0 398.0 C 497.0 398.2, 497.0 403.8, 497.0 404.0 C 497.0 404.1, 498.0 404.9, 498.0 405.0 C 498.0 405.2, 498.0 410.8, 498.0 411.0 C 498.0 411.1, 499.0 411.9, 499.0 412.0 C 499.0 412.2, 499.0 416.8, 499.0 417.0 C 499.0 417.1, 500.0 417.9, 500.0 418.0 C 500.0 419.0, 500.1 445.0, 500.0 446.0 C 500.0 446.1, 497.1 447.9, 497.0 448.0 C 496.9 448.0, 495.1 448.0, 495.0 448.0 C 494.8 447.9, 491.1 444.2, 491.0 444.0 C 490.9 443.9, 489.0 440.2, 489.0 440.0 C 489.0 439.9, 489.0 437.1, 489.0 437.0 C 489.0 436.9, 488.0 436.1, 488.0 436.0 C 488.0 435.8, 488.0 430.2, 488.0 430.0 C 488.0 429.9, 487.0 429.1, 487.0 429.0 C 486.9 428.0, 486.1 402.0, 486.0 401.0 C 486.0 400.9, 485.0 400.1, 485.0 400.0 C 485.0 399.6, 485.0 388.4, 485.0 388.0 C 485.0 387.9, 484.0 387.1, 484.0 387.0 C 484.0 386.6, 484.0 375.4, 484.0 375.0 C 484.0 374.9, 483.0 374.1, 483.0 374.0 C 483.0 373.5, 483.0 360.5, 483.0 360.0 C 483.0 359.9, 482.0 359.1, 482.0 359.0 C 482.0 358.4, 482.0 342.6, 482.0 342.0 C 482.0 341.9, 482.9 341.0, 483.0 341.0 Z" fill="#000000" fill-rule="evenodd" />
</svg>