<?xml version="1.0" encoding="UTF-8"?>
<!--
  Source: /home/kosuke55/drawtonomy/tools/bus.svg
  Modified: viewBox trimmed and preserveAspectRatio="none" added
-->
<svg xmlns="http://www.w3.org/2000/svg" viewBox="341 340 341 850" preserveAspectRatio="none">
  <path d="M 497.0 340.0 L 462.0 343.0 L 429.0 350.0 L 407.0 360.0 L 400.0 365.0 L 386.0 381.0 L 379.0 398.0 L 378.0 454.0 L 376.0 456.0 L 358.0 456.0 L 349.0 460.0 L 342.0 470.0 L 341.0 480.0 L 344.0 488.0 L 351.0 495.0 L 362.0 499.0 L 376.0 499.0 L 378.0 513.0 L 378.0 1126.0 L 380.0 1135.0 L 386.0 1148.0 L 396.0 1160.0 L 411.0 1171.0 L 424.0 1177.0 L 452.0 1185.0 L 470.0 1188.0 L 497.0 1190.0 L 528.0 1190.0 L 571.0 1185.0 L 602.0 1176.0 L 614.0 1170.0 L 623.0 1164.0 L 635.0 1152.0 L 642.0 1140.0 L 645.0 1130.0 L 646.0 500.0 L 662.0 499.0 L 672.0 495.0 L 681.0 485.0 L 682.0 472.0 L 677.0 463.0 L 672.0 459.0 L 665.0 456.0 L 648.0 456.0 L 646.0 454.0 L 645.0 400.0 L 637.0 380.0 L 624.0 365.0 L 615.0 359.0 L 598.0 351.0 L 569.0 344.0 L 528.0 340.0 Z M 398.0 1098.0 L 400.0 1091.0 L 413.0 1067.0 L 421.0 1058.0 L 431.0 1053.0 L 593.0 1053.0 L 602.0 1057.0 L 610.0 1066.0 L 624.0 1092.0 L 625.0 1102.0 L 621.0 1110.0 L 608.0 1120.0 L 578.0 1130.0 L 539.0 1135.0 L 487.0 1135.0 L 451.0 1131.0 L 422.0 1123.0 L 404.0 1112.0 L 399.0 1105.0 Z M 612.0 891.0 L 623.0 892.0 L 628.0 900.0 L 628.0 1021.0 L 622.0 1027.0 L 615.0 1026.0 L 604.0 1018.0 L 599.0 1010.0 L 596.0 996.0 L 597.0 913.0 L 600.0 903.0 L 604.0 897.0 Z M 408.0 890.0 L 414.0 892.0 L 419.0 896.0 L 425.0 906.0 L 427.0 914.0 L 428.0 992.0 L 426.0 1006.0 L 422.0 1015.0 L 414.0 1023.0 L 409.0 1026.0 L 402.0 1027.0 L 396.0 1021.0 L 396.0 899.0 L 402.0 891.0 Z M 403.0 744.0 L 411.0 744.0 L 422.0 753.0 L 426.0 762.0 L 428.0 775.0 L 427.0 853.0 L 424.0 864.0 L 416.0 874.0 L 408.0 878.0 L 401.0 877.0 L 396.0 870.0 L 396.0 752.0 L 398.0 748.0 Z M 616.0 743.0 L 623.0 745.0 L 626.0 748.0 L 628.0 754.0 L 629.0 855.0 L 627.0 873.0 L 621.0 878.0 L 612.0 877.0 L 602.0 868.0 L 598.0 860.0 L 596.0 846.0 L 597.0 765.0 L 603.0 751.0 L 608.0 746.0 Z M 613.0 597.0 L 622.0 598.0 L 628.0 606.0 L 628.0 722.0 L 626.0 726.0 L 620.0 731.0 L 612.0 730.0 L 602.0 722.0 L 598.0 713.0 L 596.0 702.0 L 597.0 618.0 L 603.0 604.0 Z M 403.0 597.0 L 413.0 598.0 L 421.0 605.0 L 425.0 612.0 L 428.0 629.0 L 427.0 707.0 L 422.0 721.0 L 415.0 728.0 L 408.0 731.0 L 400.0 729.0 L 396.0 723.0 L 396.0 606.0 L 399.0 600.0 Z M 615.0 452.0 L 622.0 453.0 L 628.0 461.0 L 629.0 567.0 L 628.0 576.0 L 626.0 580.0 L 620.0 584.0 L 611.0 583.0 L 604.0 578.0 L 599.0 570.0 L 596.0 556.0 L 597.0 474.0 L 603.0 460.0 L 608.0 455.0 Z M 404.0 452.0 L 408.0 452.0 L 415.0 455.0 L 422.0 462.0 L 426.0 471.0 L 428.0 484.0 L 427.0 561.0 L 421.0 576.0 L 416.0 581.0 L 410.0 584.0 L 401.0 583.0 L 396.0 576.0 L 396.0 461.0 L 399.0 455.0 Z M 402.0 396.0 L 404.0 390.0 L 413.0 382.0 L 437.0 372.0 L 471.0 365.0 L 525.0 363.0 L 565.0 367.0 L 599.0 376.0 L 609.0 381.0 L 618.0 388.0 L 621.0 394.0 L 621.0 401.0 L 603.0 434.0 L 596.0 440.0 L 589.0 443.0 L 434.0 443.0 L 426.0 439.0 L 420.0 433.0 L 403.0 403.0 Z" fill="#000000" fill-rule="evenodd" />
</svg>
