<?xml version="1.0" encoding="UTF-8"?>
<svg xmlns="http://www.w3.org/2000/svg" viewBox="146 196 335 613" preserveAspectRatio="none">
  <path d="M 165.0 750.0 C 162.9 754.2, 164.5 764.3, 165.0 769.0 C 165.5 774.1, 167.3 784.2, 169.0 789.0 C 170.1 792.3, 173.6 798.5, 176.0 801.0 C 178.2 803.4, 183.7 807.9, 187.0 808.0 C 250.2 809.7, 376.8 809.2, 440.0 808.0 C 442.6 808.0, 447.1 804.7, 449.0 803.0 C 450.9 801.4, 453.8 797.2, 455.0 795.0 C 456.4 792.4, 458.3 786.8, 459.0 784.0 C 459.8 781.1, 460.8 775.0, 461.0 772.0 C 461.3 766.8, 462.7 756.0, 461.0 751.0 C 460.4 749.3, 456.7 754.3, 455.0 755.0 C 453.1 755.8, 449.1 756.8, 447.0 757.0 C 432.5 758.5, 403.5 761.5, 389.0 762.0 C 356.3 763.0, 290.7 763.8, 258.0 763.0 C 238.9 762.5, 201.0 758.8, 182.0 757.0 C 179.5 756.8, 174.4 756.0, 172.0 755.0 C 170.0 754.2, 166.0 748.1, 165.0 750.0 Z" fill="#000000" />
  <path d="M 172.0 445.0 C 169.6 446.8, 165.7 451.5, 164.0 454.0 C 162.7 455.8, 160.7 459.9, 160.0 462.0 C 159.0 464.9, 157.0 470.9, 157.0 474.0 C 156.3 535.7, 155.6 659.3, 157.0 721.0 C 157.1 724.8, 160.9 731.8, 163.0 735.0 C 164.3 736.9, 168.1 739.8, 170.0 741.0 C 171.6 742.0, 175.1 743.6, 177.0 744.0 C 182.7 745.1, 194.2 746.5, 200.0 747.0 C 214.5 748.3, 243.5 750.8, 258.0 751.0 C 290.0 751.5, 354.0 751.0, 386.0 750.0 C 400.8 749.5, 430.3 746.5, 445.0 745.0 C 447.1 744.8, 451.1 743.7, 453.0 743.0 C 454.4 742.5, 456.9 741.0, 458.0 740.0 C 460.2 738.0, 464.4 733.5, 466.0 731.0 C 467.2 729.2, 469.0 725.1, 469.0 723.0 C 469.7 661.0, 469.7 537.0, 469.0 475.0 C 469.0 471.9, 467.1 465.9, 466.0 463.0 C 465.0 460.4, 462.6 455.3, 461.0 453.0 C 459.3 450.7, 455.2 446.7, 453.0 445.0 C 451.7 444.0, 448.7 442.2, 447.0 442.0 C 437.8 440.7, 419.3 439.1, 410.0 439.0 C 360.8 438.4, 262.2 438.6, 213.0 439.0 C 205.2 439.1, 189.7 439.9, 182.0 441.0 C 179.3 441.4, 174.2 443.4, 172.0 445.0 Z" fill="#000000" />
  <path d="M 161.0 231.0 C 158.4 235.3, 153.6 244.2, 152.0 249.0 C 150.1 254.6, 147.7 266.2, 147.0 272.0 C 146.4 277.2, 146.3 287.8, 147.0 293.0 C 147.6 297.6, 150.0 306.8, 152.0 311.0 C 153.8 314.7, 161.7 319.9, 162.0 324.0 C 164.2 352.9, 161.2 411.0, 162.0 440.0 C 162.0 441.1, 164.1 437.5, 165.0 437.0 C 168.1 435.4, 177.5 435.5, 178.0 432.0 C 181.3 407.7, 173.5 357.9, 179.0 334.0 C 180.2 328.9, 193.9 338.9, 199.0 340.0 C 205.4 341.4, 218.5 343.3, 225.0 344.0 C 227.7 344.3, 233.3 343.7, 236.0 344.0 C 237.8 344.2, 242.5 344.3, 243.0 346.0 C 244.5 351.3, 243.5 362.5, 243.0 368.0 C 242.9 368.7, 241.7 369.8, 241.0 370.0 C 238.1 370.8, 231.9 370.9, 229.0 372.0 C 225.0 373.5, 217.4 377.5, 214.0 380.0 C 211.9 381.6, 208.1 385.6, 207.0 388.0 C 205.8 390.5, 204.7 396.2, 205.0 399.0 C 205.2 401.4, 207.4 406.1, 209.0 408.0 C 211.0 410.5, 216.2 414.4, 219.0 416.0 C 222.5 418.0, 230.1 421.0, 234.0 422.0 C 238.6 423.2, 248.2 424.8, 253.0 425.0 C 258.2 425.3, 268.8 424.8, 274.0 424.0 C 278.6 423.3, 287.7 420.7, 292.0 419.0 C 295.2 417.7, 301.4 414.3, 304.0 412.0 C 306.5 409.7, 311.0 404.3, 312.0 401.0 C 312.9 398.1, 312.2 391.7, 311.0 389.0 C 309.6 385.9, 304.7 381.0, 302.0 379.0 C 298.9 376.7, 291.7 373.3, 288.0 372.0 C 285.1 371.0, 278.9 370.9, 276.0 370.0 C 274.6 369.6, 271.3 368.4, 271.0 367.0 C 270.1 362.3, 267.3 349.0, 272.0 348.0 C 295.8 343.2, 344.8 347.9, 369.0 347.0 C 379.3 346.6, 399.8 344.3, 410.0 343.0 C 415.8 342.3, 427.3 340.4, 433.0 339.0 C 436.6 338.1, 446.4 330.3, 447.0 334.0 C 450.9 358.2, 446.0 407.6, 448.0 432.0 C 448.1 433.8, 453.4 433.2, 455.0 434.0 C 457.6 435.2, 464.7 442.9, 465.0 440.0 C 467.6 410.9, 463.8 352.2, 465.0 323.0 C 465.1 321.2, 469.0 319.5, 470.0 318.0 C 471.8 315.4, 474.9 309.9, 476.0 307.0 C 477.1 304.1, 478.8 298.1, 479.0 295.0 C 479.5 288.3, 479.6 274.7, 479.0 268.0 C 478.6 263.4, 476.3 254.4, 475.0 250.0 C 474.3 247.4, 472.2 242.4, 471.0 240.0 C 469.5 237.1, 466.0 231.6, 464.0 229.0 C 462.2 226.8, 458.3 222.7, 456.0 221.0 C 452.0 218.1, 443.4 213.2, 439.0 211.0 C 435.2 209.1, 427.2 206.0, 423.0 205.0 C 415.4 203.2, 399.8 200.7, 392.0 200.0 C 377.8 198.7, 349.3 197.2, 335.0 197.0 C 318.8 196.7, 286.2 197.4, 270.0 198.0 C 259.2 198.4, 237.7 199.7, 227.0 201.0 C 219.4 201.9, 204.3 204.8, 197.0 207.0 C 192.0 208.5, 182.6 213.5, 178.0 216.0 C 175.3 217.5, 170.3 221.0, 168.0 223.0 C 166.0 224.8, 162.4 228.7, 161.0 231.0 Z M 218.0 396.0 C 217.9 395.2, 218.5 393.6, 219.0 393.0 C 220.3 391.3, 223.1 388.0, 225.0 387.0 C 228.8 385.0, 236.8 381.9, 241.0 381.0 C 241.7 380.8, 243.2 382.3, 243.0 383.0 C 242.6 385.0, 239.7 388.1, 239.0 390.0 C 238.7 390.7, 238.7 392.3, 239.0 393.0 C 239.5 394.4, 240.8 397.1, 242.0 398.0 C 243.7 399.3, 247.9 400.8, 250.0 401.0 C 254.7 401.4, 264.3 400.6, 269.0 400.0 C 270.1 399.9, 272.2 398.7, 273.0 398.0 C 273.9 397.2, 275.6 395.2, 276.0 394.0 C 276.4 392.8, 276.4 390.2, 276.0 389.0 C 275.6 387.6, 273.6 385.3, 273.0 384.0 C 272.8 383.5, 272.7 382.4, 273.0 382.0 C 273.3 381.5, 274.4 380.9, 275.0 381.0 C 277.8 381.4, 283.4 382.9, 286.0 384.0 C 288.4 385.0, 293.0 387.4, 295.0 389.0 C 296.3 390.0, 298.4 392.5, 299.0 394.0 C 299.5 395.2, 299.7 398.0, 299.0 399.0 C 297.3 401.5, 292.5 405.4, 290.0 407.0 C 287.7 408.4, 282.6 410.3, 280.0 411.0 C 277.3 411.8, 271.8 412.8, 269.0 413.0 C 263.8 413.3, 253.2 413.3, 248.0 413.0 C 245.5 412.8, 240.4 411.8, 238.0 411.0 C 234.9 410.0, 228.8 407.6, 226.0 406.0 C 224.3 405.1, 221.2 402.5, 220.0 401.0 C 219.2 399.9, 218.2 397.3, 218.0 396.0 Z M 179.0 300.0 C 180.4 292.7, 183.3 278.0, 186.0 271.0 C 186.7 269.2, 190.3 267.0, 192.0 266.0 C 195.1 264.2, 201.6 261.0, 205.0 260.0 C 212.4 257.8, 227.4 254.2, 235.0 253.0 C 245.9 251.2, 267.9 248.5, 279.0 248.0 C 296.7 247.2, 332.3 247.0, 350.0 248.0 C 363.3 248.8, 389.9 252.4, 403.0 255.0 C 410.2 256.4, 424.3 261.1, 431.0 264.0 C 433.6 265.1, 438.7 268.5, 440.0 271.0 C 442.7 276.3, 444.9 288.2, 446.0 294.0 C 446.6 297.2, 447.3 303.8, 447.0 307.0 C 446.8 309.1, 445.3 313.3, 444.0 315.0 C 442.9 316.4, 439.7 318.6, 438.0 319.0 C 432.6 320.3, 421.5 321.6, 416.0 322.0 C 403.0 323.1, 377.0 324.7, 364.0 325.0 C 338.0 325.5, 286.0 325.4, 260.0 325.0 C 250.0 324.9, 230.0 323.8, 220.0 323.0 C 212.2 322.3, 196.6 320.9, 189.0 319.0 C 186.6 318.4, 182.6 314.9, 181.0 313.0 C 180.0 311.8, 179.2 308.6, 179.0 307.0 C 178.7 305.3, 178.7 301.7, 179.0 300.0 Z" fill="#000000" fill-rule="evenodd" />
</svg>