<?xml version="1.0" encoding="UTF-8"?>
<svg xmlns="http://www.w3.org/2000/svg" width="410" height="830" viewBox="306 320 410 830">
  <path d="M 451.0 1035.0 L 452.0 1102.0 L 458.0 1119.0 L 465.0 1129.0 L 473.0 1137.0 L 480.0 1142.0 L 493.0 1148.0 L 502.0 1150.0 L 521.0 1150.0 L 535.0 1146.0 L 544.0 1141.0 L 559.0 1127.0 L 568.0 1111.0 L 571.0 1099.0 L 571.0 1035.0 L 550.0 1042.0 L 521.0 1045.0 L 486.0 1044.0 L 464.0 1040.0 Z M 447.0 654.0 L 447.0 657.0 L 463.0 648.0 L 485.0 642.0 L 500.0 640.0 L 520.0 640.0 L 550.0 645.0 L 566.0 651.0 L 575.0 657.0 L 574.0 648.0 L 570.0 636.0 L 559.0 617.0 L 541.0 601.0 L 533.0 597.0 L 517.0 593.0 L 505.0 593.0 L 495.0 595.0 L 475.0 605.0 L 459.0 623.0 L 452.0 637.0 Z M 445.0 522.0 L 445.0 622.0 L 448.0 612.0 L 456.0 598.0 L 477.0 577.0 L 497.0 568.0 L 519.0 567.0 L 532.0 570.0 L 551.0 581.0 L 562.0 592.0 L 569.0 602.0 L 578.0 623.0 L 578.0 523.0 L 576.0 521.0 L 563.0 517.0 L 543.0 514.0 L 490.0 513.0 L 464.0 516.0 L 451.0 519.0 Z M 343.0 508.0 L 337.0 511.0 L 330.0 518.0 L 328.0 525.0 L 326.0 527.0 L 314.0 531.0 L 307.0 539.0 L 306.0 547.0 L 308.0 553.0 L 314.0 559.0 L 319.0 561.0 L 324.0 561.0 L 328.0 559.0 L 332.0 560.0 L 334.0 591.0 L 339.0 629.0 L 348.0 670.0 L 363.0 711.0 L 389.0 760.0 L 403.0 797.0 L 412.0 826.0 L 405.0 838.0 L 399.0 854.0 L 395.0 873.0 L 393.0 896.0 L 393.0 920.0 L 395.0 942.0 L 404.0 973.0 L 415.0 992.0 L 433.0 1011.0 L 452.0 1023.0 L 468.0 1029.0 L 492.0 1033.0 L 527.0 1033.0 L 546.0 1031.0 L 566.0 1025.0 L 583.0 1016.0 L 602.0 999.0 L 615.0 980.0 L 623.0 961.0 L 627.0 945.0 L 629.0 928.0 L 628.0 879.0 L 626.0 865.0 L 621.0 847.0 L 611.0 827.0 L 611.0 823.0 L 631.0 766.0 L 638.0 750.0 L 660.0 710.0 L 674.0 671.0 L 681.0 643.0 L 685.0 619.0 L 690.0 573.0 L 690.0 560.0 L 693.0 559.0 L 703.0 561.0 L 710.0 558.0 L 713.0 555.0 L 716.0 548.0 L 715.0 539.0 L 706.0 530.0 L 696.0 527.0 L 692.0 518.0 L 685.0 511.0 L 679.0 508.0 L 662.0 507.0 L 651.0 513.0 L 602.0 498.0 L 602.0 504.0 L 595.0 513.0 L 589.0 515.0 L 589.0 523.0 L 597.0 524.0 L 633.0 535.0 L 636.0 537.0 L 636.0 543.0 L 639.0 549.0 L 643.0 552.0 L 651.0 554.0 L 645.0 595.0 L 638.0 621.0 L 629.0 645.0 L 612.0 674.0 L 600.0 687.0 L 594.0 690.0 L 584.0 682.0 L 584.0 692.0 L 579.0 706.0 L 575.0 712.0 L 561.0 725.0 L 546.0 733.0 L 532.0 737.0 L 497.0 738.0 L 486.0 736.0 L 472.0 731.0 L 454.0 719.0 L 441.0 701.0 L 438.0 690.0 L 438.0 682.0 L 431.0 689.0 L 427.0 690.0 L 413.0 677.0 L 405.0 666.0 L 394.0 646.0 L 381.0 609.0 L 373.0 570.0 L 372.0 554.0 L 377.0 553.0 L 383.0 549.0 L 386.0 543.0 L 387.0 536.0 L 418.0 526.0 L 434.0 523.0 L 434.0 516.0 L 428.0 513.0 L 423.0 508.0 L 420.0 498.0 L 370.0 513.0 L 360.0 507.0 Z M 438.0 874.0 L 440.0 873.0 L 447.0 878.0 L 460.0 882.0 L 562.0 882.0 L 570.0 880.0 L 582.0 873.0 L 582.0 946.0 L 576.0 969.0 L 570.0 981.0 L 563.0 990.0 L 549.0 1002.0 L 530.0 1010.0 L 513.0 1012.0 L 493.0 1010.0 L 484.0 1007.0 L 467.0 997.0 L 452.0 980.0 L 442.0 955.0 L 439.0 934.0 Z M 428.0 487.0 L 428.0 503.0 L 432.0 508.0 L 437.0 510.0 L 469.0 503.0 L 504.0 500.0 L 546.0 502.0 L 588.0 510.0 L 594.0 505.0 L 595.0 502.0 L 594.0 483.0 L 589.0 465.0 L 584.0 454.0 L 571.0 436.0 L 557.0 424.0 L 540.0 415.0 L 516.0 410.0 L 505.0 410.0 L 489.0 413.0 L 472.0 420.0 L 459.0 429.0 L 446.0 443.0 L 440.0 452.0 L 433.0 467.0 Z M 485.0 328.0 L 479.0 335.0 L 474.0 347.0 L 473.0 407.0 L 488.0 401.0 L 505.0 398.0 L 530.0 400.0 L 544.0 404.0 L 549.0 407.0 L 549.0 349.0 L 547.0 342.0 L 541.0 332.0 L 533.0 325.0 L 519.0 320.0 L 498.0 321.0 Z" fill="#000000" fill-rule="evenodd" />
</svg>
