<?xml version="1.0" encoding="UTF-8"?>
<svg xmlns="http://www.w3.org/2000/svg" width="542" height="921" viewBox="240 275 542 921">
  <path d="M 604.0 918.0 L 600.0 962.0 L 595.0 989.0 L 589.0 1009.0 L 581.0 1028.0 L 571.0 1044.0 L 554.0 1061.0 L 538.0 1070.0 L 517.0 1075.0 L 499.0 1074.0 L 485.0 1070.0 L 475.0 1065.0 L 457.0 1050.0 L 446.0 1035.0 L 436.0 1014.0 L 428.0 988.0 L 422.0 954.0 L 419.0 919.0 L 415.0 936.0 L 412.0 963.0 L 412.0 1011.0 L 414.0 1029.0 L 421.0 1046.0 L 428.0 1054.0 L 439.0 1061.0 L 452.0 1064.0 L 454.0 1066.0 L 454.0 1145.0 L 457.0 1159.0 L 462.0 1170.0 L 468.0 1178.0 L 476.0 1185.0 L 489.0 1192.0 L 500.0 1195.0 L 515.0 1196.0 L 536.0 1191.0 L 547.0 1185.0 L 558.0 1174.0 L 564.0 1164.0 L 569.0 1145.0 L 569.0 1065.0 L 586.0 1060.0 L 596.0 1053.0 L 605.0 1041.0 L 610.0 1024.0 L 611.0 958.0 L 608.0 935.0 Z M 433.0 886.0 L 434.0 928.0 L 440.0 975.0 L 444.0 992.0 L 452.0 1015.0 L 462.0 1033.0 L 477.0 1049.0 L 497.0 1059.0 L 521.0 1060.0 L 537.0 1055.0 L 545.0 1050.0 L 555.0 1041.0 L 565.0 1027.0 L 574.0 1008.0 L 580.0 989.0 L 587.0 948.0 L 590.0 911.0 L 590.0 886.0 L 559.0 894.0 L 527.0 898.0 L 484.0 897.0 L 454.0 892.0 Z M 498.0 550.0 L 477.0 557.0 L 465.0 565.0 L 455.0 575.0 L 444.0 597.0 L 442.0 610.0 L 444.0 629.0 L 451.0 645.0 L 459.0 656.0 L 473.0 667.0 L 485.0 673.0 L 502.0 677.0 L 522.0 677.0 L 535.0 674.0 L 556.0 663.0 L 569.0 650.0 L 574.0 642.0 L 580.0 624.0 L 579.0 598.0 L 576.0 589.0 L 567.0 574.0 L 557.0 564.0 L 546.0 557.0 L 526.0 550.0 Z M 445.0 487.0 L 441.0 569.0 L 449.0 557.0 L 467.0 541.0 L 482.0 533.0 L 502.0 528.0 L 521.0 528.0 L 532.0 530.0 L 553.0 539.0 L 564.0 547.0 L 575.0 558.0 L 582.0 569.0 L 582.0 540.0 L 578.0 487.0 L 535.0 482.0 L 489.0 482.0 Z M 242.0 492.0 L 240.0 496.0 L 241.0 499.0 L 245.0 502.0 L 250.0 503.0 L 283.0 498.0 L 289.0 499.0 L 293.0 508.0 L 294.0 535.0 L 301.0 574.0 L 311.0 606.0 L 327.0 641.0 L 347.0 672.0 L 383.0 715.0 L 394.0 733.0 L 396.0 741.0 L 396.0 751.0 L 386.0 780.0 L 383.0 797.0 L 384.0 826.0 L 389.0 850.0 L 397.0 872.0 L 404.0 886.0 L 419.0 908.0 L 419.0 865.0 L 435.0 872.0 L 456.0 878.0 L 471.0 881.0 L 503.0 884.0 L 536.0 883.0 L 557.0 880.0 L 579.0 875.0 L 604.0 865.0 L 604.0 908.0 L 616.0 891.0 L 625.0 874.0 L 634.0 850.0 L 639.0 826.0 L 640.0 797.0 L 635.0 773.0 L 630.0 763.0 L 627.0 752.0 L 627.0 740.0 L 629.0 733.0 L 640.0 715.0 L 662.0 690.0 L 681.0 665.0 L 704.0 625.0 L 712.0 606.0 L 724.0 565.0 L 730.0 526.0 L 730.0 508.0 L 734.0 499.0 L 738.0 498.0 L 773.0 503.0 L 780.0 501.0 L 782.0 499.0 L 781.0 492.0 L 770.0 487.0 L 736.0 483.0 L 734.0 477.0 L 729.0 470.0 L 717.0 462.0 L 703.0 456.0 L 686.0 455.0 L 678.0 460.0 L 675.0 464.0 L 672.0 464.0 L 612.0 446.0 L 610.0 460.0 L 607.0 467.0 L 665.0 482.0 L 667.0 484.0 L 667.0 493.0 L 670.0 499.0 L 678.0 507.0 L 690.0 513.0 L 689.0 524.0 L 681.0 550.0 L 672.0 570.0 L 661.0 588.0 L 644.0 609.0 L 621.0 631.0 L 608.0 641.0 L 602.0 635.0 L 591.0 628.0 L 588.0 639.0 L 583.0 649.0 L 576.0 659.0 L 564.0 671.0 L 544.0 683.0 L 522.0 689.0 L 496.0 688.0 L 484.0 685.0 L 467.0 677.0 L 454.0 667.0 L 445.0 657.0 L 436.0 642.0 L 432.0 629.0 L 427.0 631.0 L 414.0 641.0 L 392.0 622.0 L 372.0 601.0 L 355.0 577.0 L 347.0 562.0 L 338.0 538.0 L 333.0 514.0 L 345.0 507.0 L 352.0 500.0 L 356.0 492.0 L 357.0 482.0 L 415.0 467.0 L 412.0 454.0 L 412.0 446.0 L 351.0 464.0 L 348.0 464.0 L 344.0 459.0 L 336.0 455.0 L 320.0 456.0 L 299.0 466.0 L 291.0 474.0 L 288.0 482.0 L 285.0 484.0 L 257.0 486.0 L 249.0 488.0 Z M 428.0 420.0 L 425.0 434.0 L 425.0 453.0 L 428.0 465.0 L 436.0 476.0 L 462.0 471.0 L 494.0 468.0 L 533.0 468.0 L 568.0 472.0 L 587.0 476.0 L 592.0 471.0 L 597.0 459.0 L 597.0 428.0 L 593.0 415.0 L 585.0 400.0 L 569.0 383.0 L 551.0 372.0 L 533.0 366.0 L 519.0 364.0 L 503.0 364.0 L 483.0 368.0 L 466.0 375.0 L 454.0 383.0 L 441.0 396.0 Z M 486.0 285.0 L 480.0 293.0 L 474.0 307.0 L 471.0 330.0 L 470.0 360.0 L 478.0 356.0 L 501.0 351.0 L 528.0 352.0 L 538.0 354.0 L 554.0 360.0 L 552.0 326.0 L 549.0 306.0 L 544.0 294.0 L 538.0 286.0 L 524.0 277.0 L 514.0 275.0 L 499.0 277.0 Z" fill="#000000" fill-rule="evenodd" />
</svg>
