<?xml version="1.0" encoding="UTF-8"?>
<svg xmlns="http://www.w3.org/2000/svg" width="678" height="665" viewBox="173 168 678 665" preserveAspectRatio="none">
  <path d="M 845.0 511.0 C 844.8 510.1, 840.8 508.3, 840.0 508.0 C 839.0 507.6, 834.0 506.4, 833.0 506.0 C 831.9 505.5, 827.1 502.5, 826.0 502.0 C 825.0 501.6, 820.0 500.4, 819.0 500.0 C 818.1 499.6, 813.9 497.5, 813.0 497.0 C 812.6 496.8, 811.2 494.6, 811.0 495.0 C 810.6 495.8, 811.1 500.1, 811.0 501.0 C 811.0 501.2, 810.0 501.8, 810.0 502.0 C 809.9 503.8, 810.1 512.2, 810.0 514.0 C 810.0 514.2, 809.0 514.8, 809.0 515.0 C 808.9 516.0, 809.1 521.0, 809.0 522.0 C 809.0 522.2, 808.0 522.8, 808.0 523.0 C 807.9 523.9, 808.1 528.1, 808.0 529.0 C 808.0 529.2, 807.0 529.8, 807.0 530.0 C 806.7 531.6, 806.3 539.4, 806.0 541.0 C 805.9 541.8, 804.2 545.2, 804.0 546.0 C 803.9 546.6, 804.1 549.4, 804.0 550.0 C 804.0 550.2, 803.1 550.8, 803.0 551.0 C 802.6 552.6, 801.4 560.4, 801.0 562.0 C 800.9 562.2, 800.1 562.8, 800.0 563.0 C 799.0 566.0, 795.0 580.0, 794.0 583.0 C 793.8 583.5, 792.2 585.5, 792.0 586.0 C 791.6 587.0, 790.4 592.0, 790.0 593.0 C 789.7 593.8, 787.3 597.2, 787.0 598.0 C 786.9 598.3, 787.1 599.7, 787.0 600.0 C 785.6 603.1, 778.6 617.1, 777.0 620.0 C 776.8 620.4, 775.2 621.6, 775.0 622.0 C 774.8 622.4, 774.2 624.6, 774.0 625.0 C 773.8 625.4, 772.2 626.6, 772.0 627.0 C 771.8 627.4, 771.3 629.6, 771.0 630.0 C 770.5 630.8, 767.5 634.2, 767.0 635.0 C 766.2 636.3, 762.9 642.7, 762.0 644.0 C 760.2 646.5, 750.9 657.5, 749.0 660.0 C 748.9 660.1, 749.1 660.9, 749.0 661.0 C 748.2 662.0, 743.8 666.0, 743.0 667.0 C 742.9 667.1, 743.1 667.9, 743.0 668.0 C 738.6 672.6, 717.6 693.6, 713.0 698.0 C 712.9 698.1, 712.1 697.9, 712.0 698.0 C 710.4 699.3, 703.6 705.8, 702.0 707.0 C 698.5 709.7, 681.7 721.6, 678.0 724.0 C 677.6 724.3, 675.4 724.8, 675.0 725.0 C 673.1 726.1, 664.9 732.0, 663.0 733.0 C 659.2 735.1, 641.0 744.2, 637.0 746.0 C 636.7 746.1, 635.3 745.9, 635.0 746.0 C 633.0 746.8, 624.0 751.2, 622.0 752.0 C 621.7 752.1, 620.3 751.9, 620.0 752.0 C 619.1 752.4, 614.9 754.6, 614.0 755.0 C 613.7 755.1, 612.3 754.9, 612.0 755.0 C 611.4 755.2, 608.6 756.8, 608.0 757.0 C 607.6 757.1, 605.4 756.9, 605.0 757.0 C 604.4 757.2, 600.8 758.4, 601.0 759.0 C 601.6 760.8, 607.9 767.4, 609.0 769.0 C 610.0 770.4, 614.0 777.6, 615.0 779.0 C 616.7 781.5, 626.1 792.1, 627.0 795.0 C 627.3 796.0, 621.9 798.5, 621.0 799.0 C 620.9 799.1, 620.1 799.1, 620.0 799.0 C 618.6 797.7, 612.3 791.4, 611.0 790.0 C 610.9 789.9, 611.1 789.1, 611.0 789.0 C 607.3 785.0, 590.3 766.3, 586.0 763.0 C 585.0 762.3, 579.2 763.7, 578.0 764.0 C 577.8 764.0, 577.2 765.0, 577.0 765.0 C 576.3 765.1, 572.7 764.9, 572.0 765.0 C 571.8 765.0, 571.2 766.0, 571.0 766.0 C 570.3 766.1, 566.7 765.9, 566.0 766.0 C 565.8 766.0, 565.2 767.0, 565.0 767.0 C 564.3 767.1, 560.7 766.9, 560.0 767.0 C 559.8 767.0, 559.2 768.0, 559.0 768.0 C 558.1 768.1, 553.9 767.9, 553.0 768.0 C 552.8 768.0, 552.2 769.0, 552.0 769.0 C 550.7 769.1, 544.3 768.9, 543.0 769.0 C 542.8 769.0, 542.2 770.0, 542.0 770.0 C 540.1 770.1, 530.9 769.9, 529.0 770.0 C 528.8 770.0, 528.2 771.0, 528.0 771.0 C 523.4 771.1, 501.6 771.1, 497.0 771.0 C 496.8 771.0, 496.2 770.0, 496.0 770.0 C 494.1 769.9, 484.9 770.1, 483.0 770.0 C 482.8 770.0, 482.2 769.0, 482.0 769.0 C 480.8 768.9, 475.2 769.1, 474.0 769.0 C 473.8 769.0, 473.2 768.0, 473.0 768.0 C 471.1 767.7, 461.9 767.3, 460.0 767.0 C 459.8 767.0, 459.2 766.0, 459.0 766.0 C 458.3 765.9, 454.7 766.1, 454.0 766.0 C 453.8 766.0, 453.2 765.0, 453.0 765.0 C 452.3 764.9, 448.7 765.1, 448.0 765.0 C 447.2 764.8, 443.8 763.2, 443.0 763.0 C 441.8 762.7, 435.9 761.2, 435.0 762.0 C 429.3 766.9, 406.6 794.0, 401.0 799.0 C 400.4 799.5, 396.7 797.5, 396.0 797.0 C 395.6 796.7, 393.7 794.5, 394.0 794.0 C 395.5 791.2, 405.1 779.6, 407.0 777.0 C 408.4 775.0, 414.6 765.0, 416.0 763.0 C 416.4 762.5, 418.6 760.5, 419.0 760.0 C 419.3 759.6, 420.3 757.4, 420.0 757.0 C 419.8 756.6, 417.4 757.1, 417.0 757.0 C 416.8 756.9, 416.2 756.1, 416.0 756.0 C 414.8 755.6, 409.2 754.4, 408.0 754.0 C 407.5 753.8, 405.5 752.2, 405.0 752.0 C 404.7 751.9, 403.3 752.1, 403.0 752.0 C 401.3 751.3, 393.7 747.7, 392.0 747.0 C 391.7 746.9, 390.3 747.1, 390.0 747.0 C 388.9 746.5, 384.1 743.5, 383.0 743.0 C 382.7 742.9, 381.3 743.1, 381.0 743.0 C 375.7 740.3, 351.2 727.0, 346.0 724.0 C 343.7 722.6, 333.2 715.6, 331.0 714.0 C 328.2 711.9, 315.8 701.2, 313.0 699.0 C 312.9 698.9, 312.1 699.1, 312.0 699.0 C 308.2 695.5, 290.7 678.7, 287.0 675.0 C 286.9 674.9, 287.1 674.1, 287.0 674.0 C 285.1 671.8, 275.9 662.2, 274.0 660.0 C 272.5 658.3, 266.3 649.9, 265.0 648.0 C 264.6 647.4, 263.4 644.5, 263.0 644.0 C 262.6 643.5, 260.4 641.5, 260.0 641.0 C 259.0 639.7, 254.8 633.4, 254.0 632.0 C 253.8 631.6, 253.2 629.4, 253.0 629.0 C 252.8 628.6, 251.2 627.4, 251.0 627.0 C 248.9 623.3, 239.8 605.8, 238.0 602.0 C 237.9 601.7, 238.1 600.3, 238.0 600.0 C 237.7 599.2, 235.3 595.8, 235.0 595.0 C 234.9 594.7, 235.1 593.3, 235.0 593.0 C 234.5 591.8, 231.5 586.2, 231.0 585.0 C 230.9 584.7, 231.1 583.3, 231.0 583.0 C 230.0 580.1, 224.9 566.9, 224.0 564.0 C 223.9 563.6, 224.1 561.4, 224.0 561.0 C 223.9 560.8, 223.1 560.2, 223.0 560.0 C 222.9 559.6, 223.1 557.4, 223.0 557.0 C 222.9 556.8, 222.1 556.2, 222.0 556.0 C 221.9 555.6, 222.1 553.4, 222.0 553.0 C 221.8 552.2, 220.2 548.8, 220.0 548.0 C 219.6 545.9, 218.4 536.1, 218.0 534.0 C 218.0 533.8, 217.0 533.2, 217.0 533.0 C 216.7 531.1, 216.3 521.9, 216.0 520.0 C 216.0 519.8, 215.0 519.2, 215.0 519.0 C 214.9 517.8, 215.1 512.2, 215.0 511.0 C 215.0 510.8, 214.0 510.2, 214.0 510.0 C 213.9 507.9, 214.8 498.0, 214.0 496.0 C 213.7 495.3, 209.7 496.7, 209.0 497.0 C 208.2 497.3, 204.8 499.7, 204.0 500.0 C 203.7 500.1, 202.3 499.9, 202.0 500.0 C 201.2 500.3, 197.8 502.7, 197.0 503.0 C 196.7 503.1, 195.3 502.9, 195.0 503.0 C 193.6 503.6, 187.4 507.4, 186.0 508.0 C 185.0 508.4, 180.0 509.6, 179.0 510.0 C 178.8 510.1, 178.0 510.8, 178.0 511.0 C 177.9 512.6, 177.9 520.4, 178.0 522.0 C 178.0 522.2, 179.0 522.8, 179.0 523.0 C 179.1 524.5, 178.9 531.5, 179.0 533.0 C 179.0 533.2, 180.0 533.8, 180.0 534.0 C 180.3 536.2, 180.7 546.8, 181.0 549.0 C 181.0 549.2, 182.0 549.8, 182.0 550.0 C 182.3 551.6, 182.7 559.4, 183.0 561.0 C 183.0 561.2, 184.0 561.8, 184.0 562.0 C 184.1 562.6, 183.9 565.4, 184.0 566.0 C 184.0 566.2, 185.0 566.8, 185.0 567.0 C 185.1 567.6, 184.9 570.4, 185.0 571.0 C 185.0 571.2, 185.9 571.8, 186.0 572.0 C 186.4 573.6, 187.6 581.4, 188.0 583.0 C 188.2 583.6, 189.8 586.4, 190.0 587.0 C 190.1 587.4, 189.9 589.6, 190.0 590.0 C 190.2 590.6, 191.8 593.4, 192.0 594.0 C 192.1 594.4, 191.9 596.6, 192.0 597.0 C 192.1 597.2, 192.9 597.8, 193.0 598.0 C 193.5 599.6, 195.4 607.4, 196.0 609.0 C 196.2 609.5, 197.8 611.5, 198.0 612.0 C 198.3 612.7, 198.7 616.3, 199.0 617.0 C 199.6 618.6, 203.4 625.5, 204.0 627.0 C 204.1 627.3, 203.9 628.7, 204.0 629.0 C 204.5 630.1, 207.5 634.9, 208.0 636.0 C 208.1 636.3, 207.9 637.7, 208.0 638.0 C 209.7 641.5, 218.1 657.6, 220.0 661.0 C 220.5 661.8, 223.5 665.2, 224.0 666.0 C 224.3 666.4, 224.7 668.6, 225.0 669.0 C 225.5 669.8, 228.5 673.2, 229.0 674.0 C 229.3 674.4, 229.7 676.6, 230.0 677.0 C 232.6 680.8, 245.1 698.4, 248.0 702.0 C 249.5 703.9, 257.4 712.1, 259.0 714.0 C 259.1 714.1, 258.9 714.9, 259.0 715.0 C 263.3 719.4, 283.6 739.7, 288.0 744.0 C 288.1 744.1, 288.9 743.9, 289.0 744.0 C 290.0 744.8, 294.0 749.2, 295.0 750.0 C 295.1 750.1, 295.9 749.9, 296.0 750.0 C 296.8 750.7, 300.2 754.3, 301.0 755.0 C 302.7 756.4, 311.2 762.7, 313.0 764.0 C 315.7 765.9, 328.2 774.3, 331.0 776.0 C 332.9 777.2, 342.1 781.9, 344.0 783.0 C 344.4 783.2, 345.6 784.8, 346.0 785.0 C 350.1 787.2, 369.7 797.0, 374.0 799.0 C 374.3 799.1, 375.7 798.9, 376.0 799.0 C 376.8 799.3, 380.2 801.7, 381.0 802.0 C 381.3 802.1, 382.7 801.9, 383.0 802.0 C 383.8 802.3, 387.2 804.7, 388.0 805.0 C 389.2 805.4, 394.8 806.6, 396.0 807.0 C 396.5 807.2, 398.5 808.8, 399.0 809.0 C 399.3 809.1, 400.7 808.9, 401.0 809.0 C 403.0 809.7, 412.0 813.4, 414.0 814.0 C 414.4 814.1, 416.6 813.9, 417.0 814.0 C 417.6 814.2, 420.4 815.8, 421.0 816.0 C 421.4 816.1, 423.6 815.9, 424.0 816.0 C 424.6 816.2, 427.4 817.8, 428.0 818.0 C 428.4 818.1, 430.6 817.9, 431.0 818.0 C 431.8 818.2, 435.2 819.8, 436.0 820.0 C 436.6 820.1, 439.4 819.9, 440.0 820.0 C 440.2 820.0, 440.8 821.0, 441.0 821.0 C 441.6 821.1, 444.4 820.9, 445.0 821.0 C 445.2 821.0, 445.8 822.0, 446.0 822.0 C 446.6 822.1, 449.4 821.9, 450.0 822.0 C 450.2 822.0, 450.8 823.0, 451.0 823.0 C 452.6 823.3, 460.4 823.7, 462.0 824.0 C 462.2 824.0, 462.8 825.0, 463.0 825.0 C 465.1 825.3, 474.9 825.7, 477.0 826.0 C 477.2 826.0, 477.8 827.0, 478.0 827.0 C 479.6 827.1, 487.4 826.9, 489.0 827.0 C 489.2 827.0, 489.8 828.0, 490.0 828.0 C 496.1 828.1, 524.9 828.1, 531.0 828.0 C 531.2 828.0, 531.8 827.0, 532.0 827.0 C 533.8 826.9, 542.2 827.1, 544.0 827.0 C 544.2 827.0, 544.8 826.0, 545.0 826.0 C 547.2 825.7, 557.8 825.3, 560.0 825.0 C 560.2 825.0, 560.8 824.0, 561.0 824.0 C 561.7 823.9, 565.3 824.1, 566.0 824.0 C 566.2 824.0, 566.8 823.0, 567.0 823.0 C 567.7 822.9, 571.3 823.1, 572.0 823.0 C 572.2 823.0, 572.8 822.0, 573.0 822.0 C 573.7 821.9, 577.3 822.1, 578.0 822.0 C 578.2 822.0, 578.8 821.1, 579.0 821.0 C 579.4 820.9, 581.6 821.1, 582.0 821.0 C 582.8 820.8, 586.2 819.2, 587.0 819.0 C 587.6 818.9, 590.4 819.1, 591.0 819.0 C 591.2 819.0, 591.8 818.1, 592.0 818.0 C 592.4 817.9, 594.6 818.1, 595.0 818.0 C 596.2 817.7, 601.8 815.3, 603.0 815.0 C 603.4 814.9, 605.6 815.1, 606.0 815.0 C 606.2 814.9, 606.8 814.1, 607.0 814.0 C 610.9 812.7, 629.2 807.4, 633.0 806.0 C 635.6 805.0, 647.4 799.1, 650.0 798.0 C 650.3 797.9, 651.7 798.1, 652.0 798.0 C 655.4 796.5, 670.8 788.8, 674.0 787.0 C 674.4 786.8, 675.6 785.2, 676.0 785.0 C 676.7 784.6, 680.3 783.4, 681.0 783.0 C 681.4 782.8, 682.6 781.2, 683.0 781.0 C 683.4 780.8, 685.6 780.2, 686.0 780.0 C 686.4 779.8, 687.6 778.2, 688.0 778.0 C 688.4 777.8, 690.6 777.3, 691.0 777.0 C 691.8 776.5, 695.2 773.5, 696.0 773.0 C 696.8 772.5, 701.2 770.6, 702.0 770.0 C 703.1 769.2, 707.9 764.8, 709.0 764.0 C 710.7 762.7, 719.3 757.3, 721.0 756.0 C 722.9 754.5, 731.1 746.6, 733.0 745.0 C 733.1 744.9, 733.9 745.1, 734.0 745.0 C 738.0 741.3, 756.2 723.8, 760.0 720.0 C 760.1 719.9, 759.9 719.1, 760.0 719.0 C 761.3 717.6, 767.7 711.4, 769.0 710.0 C 769.1 709.9, 768.9 709.1, 769.0 709.0 C 770.3 707.4, 776.8 700.6, 778.0 699.0 C 781.0 695.1, 794.3 676.1, 797.0 672.0 C 797.3 671.6, 797.7 669.4, 798.0 669.0 C 798.5 668.2, 801.5 664.8, 802.0 664.0 C 802.6 663.0, 804.4 658.0, 805.0 657.0 C 805.2 656.6, 806.8 655.4, 807.0 655.0 C 808.9 651.5, 817.3 634.7, 819.0 631.0 C 819.4 630.0, 820.6 625.0, 821.0 624.0 C 821.3 623.2, 823.7 619.8, 824.0 619.0 C 824.3 618.3, 824.7 614.7, 825.0 614.0 C 825.2 613.5, 826.8 611.5, 827.0 611.0 C 827.1 610.7, 826.9 609.3, 827.0 609.0 C 827.8 606.6, 832.2 595.4, 833.0 593.0 C 833.1 592.6, 832.9 590.4, 833.0 590.0 C 833.2 589.4, 834.8 586.6, 835.0 586.0 C 835.1 585.6, 834.9 583.4, 835.0 583.0 C 835.1 582.8, 835.9 582.2, 836.0 582.0 C 836.1 581.6, 835.9 579.4, 836.0 579.0 C 836.2 578.2, 837.8 574.8, 838.0 574.0 C 838.1 573.4, 837.9 570.6, 838.0 570.0 C 838.2 569.2, 839.8 565.8, 840.0 565.0 C 840.1 564.4, 839.9 561.6, 840.0 561.0 C 840.0 560.8, 841.0 560.2, 841.0 560.0 C 841.1 559.3, 840.9 555.7, 841.0 555.0 C 841.0 554.8, 842.0 554.2, 842.0 554.0 C 842.1 553.3, 841.9 549.7, 842.0 549.0 C 842.0 548.8, 843.0 548.2, 843.0 548.0 C 843.1 547.1, 842.9 542.9, 843.0 542.0 C 843.0 541.8, 844.0 541.2, 844.0 541.0 C 844.1 539.5, 843.9 532.5, 844.0 531.0 C 844.0 530.8, 845.0 530.2, 845.0 530.0 C 845.1 527.2, 845.6 513.8, 845.0 511.0 Z M 343.0 400.0 C 340.8 403.9, 336.8 411.9, 335.0 416.0 C 333.0 420.7, 329.3 430.1, 328.0 435.0 C 326.0 442.4, 322.7 457.4, 322.0 465.0 C 321.2 474.0, 321.0 492.1, 322.0 501.0 C 323.0 510.2, 327.6 528.1, 330.0 537.0 C 331.1 540.9, 334.2 548.4, 336.0 552.0 C 338.7 557.6, 344.5 568.8, 348.0 574.0 C 353.2 581.6, 364.7 596.3, 371.0 603.0 C 376.2 608.6, 388.0 618.3, 394.0 623.0 C 398.0 626.1, 406.6 631.5, 411.0 634.0 C 416.4 637.0, 427.3 642.6, 433.0 645.0 C 438.6 647.4, 450.1 651.5, 456.0 653.0 C 465.1 655.3, 483.6 659.3, 493.0 660.0 C 504.7 660.8, 528.3 659.7, 540.0 659.0 C 544.3 658.7, 552.8 657.0, 557.0 656.0 C 563.1 654.5, 575.2 651.2, 581.0 649.0 C 588.4 646.2, 602.9 639.6, 610.0 636.0 C 614.2 633.9, 622.1 628.7, 626.0 626.0 C 630.7 622.7, 639.9 615.9, 644.0 612.0 C 650.9 605.4, 663.9 591.4, 670.0 584.0 C 673.2 580.1, 678.5 571.4, 681.0 567.0 C 683.5 562.6, 688.1 553.6, 690.0 549.0 C 692.3 543.4, 696.5 531.9, 698.0 526.0 C 699.8 518.9, 702.4 504.3, 703.0 497.0 C 703.6 490.0, 703.3 476.0, 703.0 469.0 C 702.8 465.0, 701.7 457.0, 701.0 453.0 C 700.2 448.7, 698.3 440.2, 697.0 436.0 C 695.3 430.6, 691.4 420.1, 689.0 415.0 C 686.4 409.3, 680.4 398.3, 677.0 393.0 C 673.3 387.3, 666.4 375.1, 661.0 371.0 C 657.3 368.2, 647.6 367.1, 643.0 367.0 C 577.0 366.1, 445.0 366.1, 379.0 367.0 C 375.1 367.1, 367.3 368.9, 364.0 371.0 C 360.7 373.1, 356.3 379.8, 354.0 383.0 C 351.0 387.1, 345.5 395.6, 343.0 400.0 Z M 496.0 420.0 C 496.7 419.7, 505.2 418.1, 506.0 418.0 C 506.9 417.9, 517.1 417.9, 518.0 418.0 C 518.9 418.1, 529.1 420.7, 530.0 421.0 C 530.9 421.3, 540.3 426.4, 541.0 427.0 C 541.8 427.6, 550.3 436.2, 551.0 437.0 C 551.5 437.7, 556.7 446.2, 557.0 447.0 C 557.3 447.8, 559.9 457.2, 560.0 458.0 C 560.1 458.8, 560.1 468.2, 560.0 469.0 C 559.9 469.7, 558.3 477.4, 558.0 478.0 C 557.5 479.1, 550.7 491.0, 550.0 492.0 C 549.5 492.7, 542.7 499.5, 542.0 500.0 C 541.5 500.4, 534.6 504.7, 534.0 505.0 C 533.2 505.4, 523.9 508.8, 523.0 509.0 C 522.6 509.1, 517.4 508.9, 517.0 509.0 C 516.9 509.0, 516.1 510.0, 516.0 510.0 C 514.9 510.0, 502.1 509.2, 501.0 509.0 C 500.7 508.9, 497.3 507.1, 497.0 507.0 C 496.8 506.9, 494.2 507.1, 494.0 507.0 C 492.9 506.5, 481.0 499.7, 480.0 499.0 C 479.3 498.5, 472.5 491.7, 472.0 491.0 C 471.4 490.2, 466.4 480.9, 466.0 480.0 C 465.7 479.2, 463.1 469.8, 463.0 469.0 C 462.9 468.3, 462.9 459.7, 463.0 459.0 C 463.2 457.9, 466.6 446.0, 467.0 445.0 C 467.3 444.3, 472.5 436.6, 473.0 436.0 C 473.5 435.3, 480.3 428.5, 481.0 428.0 C 482.0 427.3, 494.8 420.5, 496.0 420.0 Z M 542.0 218.0 C 539.8 218.0, 539.3 224.2, 538.0 226.0 C 536.5 228.0, 533.0 231.5, 531.0 233.0 C 529.2 234.3, 525.1 236.3, 523.0 237.0 C 520.8 237.8, 516.3 238.9, 514.0 239.0 C 511.5 239.1, 506.4 238.6, 504.0 238.0 C 502.1 237.6, 498.5 236.1, 497.0 235.0 C 494.0 232.8, 488.4 227.8, 486.0 225.0 C 484.9 223.7, 484.7 219.1, 483.0 219.0 C 475.4 218.5, 460.4 221.6, 453.0 223.0 C 446.9 224.1, 434.9 227.2, 429.0 229.0 C 422.4 231.0, 409.4 235.5, 403.0 238.0 C 397.4 240.2, 386.4 245.3, 381.0 248.0 C 375.1 251.0, 363.6 257.5, 358.0 261.0 C 352.3 264.5, 341.3 272.0, 336.0 276.0 C 331.6 279.3, 323.0 286.3, 319.0 290.0 C 312.8 295.8, 300.7 307.7, 295.0 314.0 C 290.7 318.7, 282.6 328.7, 279.0 334.0 C 273.6 341.8, 263.7 357.8, 259.0 366.0 C 256.4 370.6, 252.0 380.1, 250.0 385.0 C 246.7 393.1, 240.7 409.7, 238.0 418.0 C 236.7 421.9, 234.7 429.9, 234.0 434.0 C 232.4 443.2, 229.7 461.7, 229.0 471.0 C 228.4 478.7, 228.5 494.3, 229.0 502.0 C 229.5 510.0, 231.6 526.1, 233.0 534.0 C 234.3 541.3, 237.8 555.9, 240.0 563.0 C 242.3 570.6, 247.6 585.8, 251.0 593.0 C 255.9 603.3, 266.8 623.4, 273.0 633.0 C 277.6 640.2, 288.4 653.6, 294.0 660.0 C 299.1 665.8, 310.3 676.7, 316.0 682.0 C 319.4 685.2, 326.3 691.2, 330.0 694.0 C 335.8 698.5, 347.9 707.0, 354.0 711.0 C 358.1 713.7, 366.6 718.8, 371.0 721.0 C 378.9 725.0, 394.8 732.7, 403.0 736.0 C 410.6 739.0, 426.2 743.8, 434.0 746.0 C 439.7 747.6, 451.2 750.0, 457.0 751.0 C 465.0 752.3, 481.0 754.4, 489.0 755.0 C 496.7 755.6, 512.3 756.4, 520.0 756.0 C 532.0 755.4, 556.1 752.7, 568.0 751.0 C 573.8 750.2, 585.3 747.5, 591.0 746.0 C 597.3 744.3, 609.8 740.2, 616.0 738.0 C 620.3 736.5, 628.9 733.1, 633.0 731.0 C 642.4 726.3, 661.2 716.7, 670.0 711.0 C 679.5 704.9, 697.4 691.3, 706.0 684.0 C 712.5 678.5, 724.3 666.3, 730.0 660.0 C 734.3 655.3, 742.3 645.2, 746.0 640.0 C 750.0 634.4, 757.6 623.0, 761.0 617.0 C 764.9 610.2, 771.9 596.2, 775.0 589.0 C 777.9 582.2, 782.9 568.1, 785.0 561.0 C 787.2 553.6, 790.6 538.6, 792.0 531.0 C 793.1 525.1, 794.7 513.0, 795.0 507.0 C 795.5 497.5, 795.6 478.5, 795.0 469.0 C 794.6 461.4, 792.3 446.5, 791.0 439.0 C 790.1 433.7, 787.5 423.2, 786.0 418.0 C 784.3 412.2, 780.3 400.6, 778.0 395.0 C 774.8 387.4, 768.1 372.2, 764.0 365.0 C 758.3 355.1, 745.5 336.3, 739.0 327.0 C 736.8 323.8, 731.7 317.8, 729.0 315.0 C 720.7 306.5, 704.2 289.4, 695.0 282.0 C 684.9 273.9, 663.0 259.8, 652.0 253.0 C 647.2 250.1, 637.1 245.3, 632.0 243.0 C 625.8 240.3, 613.3 235.2, 607.0 233.0 C 601.3 231.0, 589.9 227.4, 584.0 226.0 C 573.6 223.6, 552.7 218.0, 542.0 218.0 Z M 332.0 394.0 C 334.6 389.3, 340.7 380.3, 344.0 376.0 C 347.0 372.0, 352.2 362.4, 357.0 361.0 C 363.5 359.0, 377.2 363.9, 384.0 364.0 C 448.7 364.7, 578.3 364.5, 643.0 364.0 C 645.3 364.0, 649.7 362.2, 652.0 362.0 C 656.2 361.7, 665.5 359.6, 669.0 362.0 C 675.4 366.5, 683.7 380.4, 688.0 387.0 C 692.0 393.2, 699.0 406.3, 702.0 413.0 C 704.5 418.6, 708.3 430.2, 710.0 436.0 C 711.3 440.4, 713.2 449.5, 714.0 454.0 C 714.7 458.0, 715.8 466.0, 716.0 470.0 C 716.3 476.2, 716.5 488.8, 716.0 495.0 C 715.5 502.1, 713.5 516.1, 712.0 523.0 C 710.7 528.9, 707.2 540.4, 705.0 546.0 C 702.2 553.0, 695.9 566.6, 692.0 573.0 C 687.6 580.4, 677.5 594.4, 672.0 601.0 C 666.8 607.2, 655.0 618.6, 649.0 624.0 C 645.0 627.6, 636.4 634.0, 632.0 637.0 C 627.2 640.3, 617.1 646.2, 612.0 649.0 C 608.4 651.0, 600.9 654.6, 597.0 656.0 C 587.9 659.3, 569.5 665.8, 560.0 668.0 C 550.9 670.1, 532.3 672.2, 523.0 673.0 C 517.3 673.5, 505.7 673.3, 500.0 673.0 C 495.2 672.8, 485.7 671.8, 481.0 671.0 C 474.7 670.0, 462.2 667.6, 456.0 666.0 C 450.4 664.6, 439.3 661.2, 434.0 659.0 C 426.6 655.9, 411.9 649.1, 405.0 645.0 C 396.9 640.1, 381.3 629.0, 374.0 623.0 C 368.5 618.5, 358.8 608.2, 354.0 603.0 C 351.0 599.7, 345.6 592.6, 343.0 589.0 C 340.1 584.9, 334.4 576.4, 332.0 572.0 C 328.7 565.9, 322.7 553.4, 320.0 547.0 C 318.5 543.4, 316.0 535.8, 315.0 532.0 C 313.5 526.3, 310.5 514.9, 310.0 509.0 C 309.0 498.0, 308.3 476.0, 309.0 465.0 C 309.5 457.1, 313.2 441.7, 315.0 434.0 C 315.9 430.2, 318.5 422.6, 320.0 419.0 C 322.7 412.6, 328.6 400.1, 332.0 394.0 Z M 366.0 355.0 C 367.6 353.0, 389.9 333.5, 392.0 332.0 C 394.2 330.4, 420.6 315.2, 423.0 314.0 C 425.3 312.9, 452.6 302.8, 455.0 302.0 C 456.2 301.6, 470.7 298.2, 472.0 298.0 C 472.4 297.9, 476.6 298.1, 477.0 298.0 C 477.5 297.9, 483.5 296.1, 484.0 296.0 C 484.7 295.9, 492.3 296.1, 493.0 296.0 C 493.1 296.0, 493.9 295.0, 494.0 295.0 C 497.4 295.0, 535.6 295.9, 539.0 296.0 C 539.1 296.0, 539.9 297.0, 540.0 297.0 C 541.3 297.2, 555.7 298.7, 557.0 299.0 C 559.3 299.5, 584.8 307.3, 587.0 308.0 C 587.8 308.2, 596.3 311.6, 597.0 312.0 C 599.0 313.0, 621.1 324.8, 623.0 326.0 C 624.8 327.1, 644.3 341.6, 646.0 343.0 C 647.0 343.8, 657.8 353.7, 658.0 355.0 C 658.1 355.8, 648.8 356.9, 648.0 357.0 C 647.3 357.1, 638.7 357.1, 638.0 357.0 C 637.9 357.0, 637.1 356.0, 637.0 356.0 C 634.1 355.9, 600.9 355.9, 598.0 356.0 C 597.9 356.0, 597.1 357.0, 597.0 357.0 C 596.6 357.0, 592.4 356.0, 592.0 356.0 C 575.5 356.0, 388.5 357.1, 372.0 357.0 C 371.5 357.0, 365.7 355.4, 366.0 355.0 Z M 504.0 190.0 C 503.7 190.1, 497.2 193.8, 497.0 194.0 C 496.8 194.2, 492.2 200.7, 492.0 201.0 C 492.0 201.1, 492.0 202.9, 492.0 203.0 C 492.0 203.1, 491.0 203.9, 491.0 204.0 C 491.0 204.1, 491.0 207.9, 491.0 208.0 C 491.0 208.1, 490.0 208.9, 490.0 209.0 C 490.0 209.3, 490.9 216.7, 491.0 217.0 C 491.0 217.2, 492.9 220.9, 493.0 221.0 C 493.2 221.2, 498.7 226.8, 499.0 227.0 C 499.2 227.2, 504.8 229.9, 505.0 230.0 C 505.1 230.0, 507.9 230.0, 508.0 230.0 C 508.1 230.0, 508.9 231.0, 509.0 231.0 C 509.3 231.0, 515.7 231.0, 516.0 231.0 C 516.1 231.0, 516.9 230.0, 517.0 230.0 C 517.1 230.0, 519.9 230.0, 520.0 230.0 C 520.2 229.9, 525.8 227.1, 526.0 227.0 C 526.2 226.9, 529.9 223.2, 530.0 223.0 C 530.0 223.0, 530.0 222.0, 530.0 222.0 C 530.1 221.8, 532.9 218.2, 533.0 218.0 C 533.0 217.9, 533.0 216.1, 533.0 216.0 C 533.0 215.9, 534.0 215.1, 534.0 215.0 C 534.0 214.6, 534.0 205.4, 534.0 205.0 C 534.0 204.9, 533.0 204.1, 533.0 204.0 C 533.0 203.9, 533.0 202.1, 533.0 202.0 C 532.9 201.8, 530.1 198.2, 530.0 198.0 C 530.0 198.0, 530.0 197.0, 530.0 197.0 C 529.9 196.9, 527.1 194.1, 527.0 194.0 C 526.8 193.8, 520.3 190.1, 520.0 190.0 C 519.9 190.0, 518.1 190.0, 518.0 190.0 C 517.9 190.0, 517.1 189.0, 517.0 189.0 C 516.6 189.0, 507.4 189.0, 507.0 189.0 C 506.9 189.0, 506.1 190.0, 506.0 190.0 C 505.9 190.0, 504.1 190.0, 504.0 190.0 Z M 178.0 482.0 C 177.9 484.5, 177.9 496.5, 178.0 499.0 C 178.0 499.1, 178.9 499.1, 179.0 499.0 C 184.1 496.2, 209.1 484.3, 213.0 480.0 C 215.0 477.8, 213.7 463.0, 214.0 460.0 C 214.0 459.8, 215.0 459.2, 215.0 459.0 C 215.1 458.0, 214.9 453.0, 215.0 452.0 C 215.0 451.8, 216.0 451.2, 216.0 451.0 C 216.1 450.1, 215.9 445.9, 216.0 445.0 C 216.0 444.8, 217.0 444.2, 217.0 444.0 C 217.3 442.5, 217.7 435.5, 218.0 434.0 C 218.0 433.8, 218.9 433.2, 219.0 433.0 C 219.1 432.6, 218.9 430.4, 219.0 430.0 C 219.1 429.8, 219.9 429.2, 220.0 429.0 C 220.6 426.8, 222.4 416.2, 223.0 414.0 C 223.4 412.4, 226.5 405.5, 227.0 404.0 C 227.1 403.6, 226.9 401.4, 227.0 401.0 C 227.2 400.5, 228.8 398.5, 229.0 398.0 C 229.3 397.3, 229.7 393.7, 230.0 393.0 C 230.2 392.5, 231.8 390.5, 232.0 390.0 C 232.1 389.7, 231.9 388.3, 232.0 388.0 C 232.2 387.5, 233.8 385.5, 234.0 385.0 C 234.4 384.0, 235.5 379.0, 236.0 378.0 C 238.1 373.6, 248.6 353.2, 251.0 349.0 C 253.1 345.4, 263.6 329.3, 266.0 326.0 C 267.5 323.9, 275.4 315.0, 277.0 313.0 C 277.1 312.9, 276.9 312.1, 277.0 312.0 C 277.7 311.2, 281.3 307.8, 282.0 307.0 C 282.1 306.9, 281.9 306.1, 282.0 306.0 C 283.6 304.3, 291.4 296.7, 293.0 295.0 C 293.1 294.9, 292.9 294.1, 293.0 294.0 C 293.4 293.6, 295.6 292.4, 296.0 292.0 C 298.3 289.8, 308.7 279.2, 311.0 277.0 C 311.1 276.9, 311.9 277.1, 312.0 277.0 C 313.6 275.7, 320.4 269.2, 322.0 268.0 C 325.2 265.5, 340.6 254.3, 344.0 252.0 C 344.4 251.7, 346.6 251.3, 347.0 251.0 C 348.3 250.2, 353.7 245.8, 355.0 245.0 C 356.0 244.4, 361.0 242.6, 362.0 242.0 C 362.4 241.8, 363.6 240.2, 364.0 240.0 C 367.5 238.1, 384.3 229.7, 388.0 228.0 C 388.3 227.9, 389.7 228.1, 390.0 228.0 C 391.8 227.2, 400.2 222.8, 402.0 222.0 C 402.3 221.9, 403.7 222.1, 404.0 222.0 C 407.3 220.9, 422.7 215.1, 426.0 214.0 C 426.4 213.9, 428.6 214.1, 429.0 214.0 C 429.6 213.8, 432.4 212.2, 433.0 212.0 C 433.4 211.9, 435.6 212.1, 436.0 212.0 C 436.2 211.9, 436.8 211.1, 437.0 211.0 C 437.4 210.9, 439.6 211.1, 440.0 211.0 C 440.8 210.8, 444.2 209.2, 445.0 209.0 C 445.6 208.9, 448.4 209.1, 449.0 209.0 C 449.2 209.0, 449.8 208.0, 450.0 208.0 C 450.6 207.9, 453.4 208.1, 454.0 208.0 C 454.2 208.0, 454.8 207.0, 455.0 207.0 C 455.6 206.9, 458.4 207.1, 459.0 207.0 C 459.2 207.0, 459.8 206.0, 460.0 206.0 C 460.7 205.9, 464.3 206.1, 465.0 206.0 C 465.2 206.0, 465.8 205.0, 466.0 205.0 C 466.9 204.9, 471.1 205.1, 472.0 205.0 C 472.2 205.0, 472.8 204.0, 473.0 204.0 C 474.5 203.7, 481.6 203.6, 483.0 203.0 C 483.6 202.7, 483.7 199.6, 484.0 199.0 C 484.4 198.2, 486.4 194.7, 487.0 194.0 C 488.1 192.7, 493.6 187.0, 495.0 186.0 C 496.1 185.2, 501.7 182.4, 503.0 182.0 C 503.6 181.8, 506.4 182.1, 507.0 182.0 C 507.2 182.0, 507.8 181.0, 508.0 181.0 C 509.2 180.9, 514.8 180.9, 516.0 181.0 C 516.2 181.0, 516.8 181.9, 517.0 182.0 C 518.0 182.3, 523.0 182.6, 524.0 183.0 C 525.1 183.4, 530.0 186.3, 531.0 187.0 C 532.0 187.8, 536.3 192.0, 537.0 193.0 C 538.0 194.4, 541.0 201.6, 542.0 203.0 C 542.2 203.2, 543.7 202.9, 544.0 203.0 C 544.2 203.1, 544.8 204.0, 545.0 204.0 C 545.9 204.1, 550.1 203.9, 551.0 204.0 C 551.2 204.0, 551.8 205.0, 552.0 205.0 C 552.9 205.1, 557.1 204.9, 558.0 205.0 C 558.2 205.0, 558.8 206.0, 559.0 206.0 C 559.7 206.1, 563.3 205.9, 564.0 206.0 C 564.2 206.0, 564.8 207.0, 565.0 207.0 C 565.6 207.1, 568.4 206.9, 569.0 207.0 C 569.2 207.0, 569.8 208.0, 570.0 208.0 C 570.6 208.1, 573.4 207.9, 574.0 208.0 C 574.2 208.0, 574.8 208.9, 575.0 209.0 C 575.4 209.1, 577.6 208.9, 578.0 209.0 C 578.8 209.2, 582.2 210.8, 583.0 211.0 C 584.2 211.3, 589.8 211.7, 591.0 212.0 C 592.1 212.3, 596.9 214.7, 598.0 215.0 C 598.4 215.1, 600.6 214.9, 601.0 215.0 C 601.2 215.1, 601.8 215.9, 602.0 216.0 C 604.1 216.7, 614.0 219.2, 616.0 220.0 C 618.0 220.7, 627.0 225.2, 629.0 226.0 C 629.3 226.1, 630.7 225.9, 631.0 226.0 C 634.8 227.7, 652.3 236.1, 656.0 238.0 C 656.4 238.2, 657.6 239.8, 658.0 240.0 C 659.0 240.6, 664.0 242.4, 665.0 243.0 C 666.6 243.9, 673.4 249.0, 675.0 250.0 C 675.4 250.2, 677.6 250.7, 678.0 251.0 C 678.5 251.4, 680.5 253.6, 681.0 254.0 C 682.4 255.0, 689.6 259.0, 691.0 260.0 C 692.9 261.4, 701.1 268.6, 703.0 270.0 C 703.1 270.1, 703.9 269.9, 704.0 270.0 C 704.8 270.7, 708.2 274.3, 709.0 275.0 C 709.1 275.1, 709.9 274.9, 710.0 275.0 C 711.3 276.1, 716.7 281.9, 718.0 283.0 C 718.1 283.1, 718.9 282.9, 719.0 283.0 C 722.8 286.8, 740.3 305.0, 744.0 309.0 C 744.1 309.1, 743.9 309.9, 744.0 310.0 C 745.1 311.4, 750.9 317.6, 752.0 319.0 C 752.9 320.1, 756.2 325.9, 757.0 327.0 C 757.8 328.1, 762.2 332.9, 763.0 334.0 C 763.9 335.3, 767.2 341.7, 768.0 343.0 C 768.2 343.4, 769.8 344.6, 770.0 345.0 C 770.2 345.4, 770.8 347.6, 771.0 348.0 C 771.2 348.4, 772.8 349.6, 773.0 350.0 C 773.4 350.7, 774.6 354.3, 775.0 355.0 C 775.2 355.4, 776.8 356.6, 777.0 357.0 C 778.9 360.5, 787.3 377.3, 789.0 381.0 C 789.1 381.3, 788.9 382.7, 789.0 383.0 C 789.8 385.0, 794.2 394.0, 795.0 396.0 C 795.1 396.3, 794.9 397.7, 795.0 398.0 C 795.7 400.0, 799.4 409.0, 800.0 411.0 C 800.1 411.4, 799.9 413.6, 800.0 414.0 C 800.2 414.6, 801.8 417.4, 802.0 418.0 C 802.1 418.4, 801.9 420.6, 802.0 421.0 C 802.1 421.2, 802.9 421.8, 803.0 422.0 C 803.1 422.4, 802.9 424.6, 803.0 425.0 C 803.2 425.8, 804.8 429.2, 805.0 430.0 C 805.1 430.6, 804.9 433.4, 805.0 434.0 C 805.0 434.2, 806.0 434.8, 806.0 435.0 C 806.1 435.6, 805.9 438.4, 806.0 439.0 C 806.0 439.2, 807.0 439.8, 807.0 440.0 C 807.1 440.6, 806.9 443.4, 807.0 444.0 C 807.0 444.2, 808.0 444.8, 808.0 445.0 C 808.1 445.9, 807.9 450.1, 808.0 451.0 C 808.0 451.2, 809.0 451.8, 809.0 452.0 C 809.1 453.0, 808.9 458.0, 809.0 459.0 C 809.0 459.2, 810.0 459.8, 810.0 460.0 C 810.1 462.4, 809.9 473.6, 810.0 476.0 C 810.0 476.2, 811.0 476.8, 811.0 477.0 C 811.1 477.6, 810.6 480.6, 811.0 481.0 C 812.1 482.0, 818.7 484.3, 820.0 485.0 C 820.4 485.2, 821.6 486.8, 822.0 487.0 C 824.9 488.6, 839.1 495.4, 842.0 497.0 C 842.4 497.2, 843.6 498.8, 844.0 499.0 C 844.3 499.1, 846.0 499.3, 846.0 499.0 C 846.0 493.7, 844.4 469.2, 844.0 464.0 C 844.0 463.8, 843.0 463.2, 843.0 463.0 C 842.9 462.0, 843.1 457.0, 843.0 456.0 C 843.0 455.8, 842.0 455.2, 842.0 455.0 C 841.9 454.1, 842.1 449.9, 842.0 449.0 C 842.0 448.8, 841.0 448.2, 841.0 448.0 C 840.9 447.3, 841.1 443.7, 841.0 443.0 C 841.0 442.8, 840.0 442.2, 840.0 442.0 C 839.7 440.7, 839.3 434.3, 839.0 433.0 C 839.0 432.8, 838.1 432.2, 838.0 432.0 C 837.9 431.6, 838.1 429.4, 838.0 429.0 C 837.9 428.8, 837.1 428.2, 837.0 428.0 C 836.9 427.6, 837.1 425.4, 837.0 425.0 C 836.9 424.8, 836.1 424.2, 836.0 424.0 C 835.4 421.8, 833.6 411.2, 833.0 409.0 C 832.9 408.8, 832.1 408.2, 832.0 408.0 C 831.2 405.5, 827.9 393.5, 827.0 391.0 C 826.8 390.5, 825.2 388.5, 825.0 388.0 C 824.7 387.3, 824.3 383.7, 824.0 383.0 C 823.7 382.2, 821.3 378.8, 821.0 378.0 C 820.7 377.3, 820.3 373.7, 820.0 373.0 C 817.8 368.1, 806.5 345.7, 804.0 341.0 C 803.8 340.6, 802.2 339.4, 802.0 339.0 C 801.3 337.8, 798.7 332.1, 798.0 331.0 C 796.3 328.2, 787.9 315.6, 786.0 313.0 C 784.6 311.1, 777.4 302.9, 776.0 301.0 C 775.5 300.3, 773.5 296.7, 773.0 296.0 C 772.3 295.2, 768.7 291.8, 768.0 291.0 C 767.9 290.9, 768.1 290.1, 768.0 290.0 C 764.9 286.6, 750.2 271.2, 747.0 268.0 C 746.9 267.9, 746.1 268.1, 746.0 268.0 C 744.0 266.1, 735.0 256.9, 733.0 255.0 C 732.9 254.9, 732.1 255.1, 732.0 255.0 C 730.4 253.7, 723.6 247.2, 722.0 246.0 C 717.9 242.9, 698.3 228.9, 694.0 226.0 C 693.6 225.7, 691.4 225.2, 691.0 225.0 C 689.1 223.9, 680.9 218.1, 679.0 217.0 C 677.4 216.1, 669.6 212.9, 668.0 212.0 C 667.6 211.8, 666.4 210.2, 666.0 210.0 C 664.3 209.0, 655.8 204.8, 654.0 204.0 C 653.7 203.9, 652.3 204.1, 652.0 204.0 C 651.2 203.7, 647.8 201.3, 647.0 201.0 C 646.7 200.9, 645.3 201.1, 645.0 201.0 C 644.2 200.7, 640.8 198.3, 640.0 198.0 C 639.7 197.9, 638.3 198.1, 638.0 198.0 C 636.8 197.5, 631.2 194.5, 630.0 194.0 C 629.7 193.9, 628.3 194.1, 628.0 194.0 C 625.1 193.0, 611.9 187.9, 609.0 187.0 C 608.6 186.9, 606.4 187.1, 606.0 187.0 C 605.4 186.8, 602.6 185.2, 602.0 185.0 C 601.6 184.9, 599.4 185.1, 599.0 185.0 C 598.8 184.9, 598.2 184.1, 598.0 184.0 C 597.6 183.9, 595.4 184.1, 595.0 184.0 C 594.8 183.9, 594.2 183.1, 594.0 183.0 C 593.6 182.9, 591.4 183.1, 591.0 183.0 C 590.2 182.8, 586.8 181.2, 586.0 181.0 C 584.5 180.7, 577.5 180.3, 576.0 180.0 C 575.2 179.8, 571.8 178.1, 571.0 178.0 C 569.2 177.7, 560.8 177.3, 559.0 177.0 C 558.8 177.0, 558.2 176.0, 558.0 176.0 C 557.0 175.9, 552.0 176.1, 551.0 176.0 C 550.8 176.0, 550.2 175.0, 550.0 175.0 C 548.7 174.9, 542.3 175.1, 541.0 175.0 C 540.8 175.0, 540.2 174.0, 540.0 174.0 C 536.1 173.9, 517.9 174.1, 514.0 174.0 C 513.8 174.0, 513.2 173.0, 513.0 173.0 C 511.8 172.9, 506.2 172.9, 505.0 173.0 C 504.8 173.0, 504.2 174.0, 504.0 174.0 C 501.0 174.1, 487.0 173.9, 484.0 174.0 C 483.8 174.0, 483.2 175.0, 483.0 175.0 C 481.7 175.1, 475.3 174.9, 474.0 175.0 C 473.8 175.0, 473.2 176.0, 473.0 176.0 C 471.8 176.1, 466.2 175.9, 465.0 176.0 C 464.8 176.0, 464.2 177.0, 464.0 177.0 C 461.5 177.4, 449.5 178.6, 447.0 179.0 C 446.8 179.0, 446.2 180.0, 446.0 180.0 C 445.4 180.1, 442.6 179.9, 442.0 180.0 C 441.8 180.0, 441.2 180.9, 441.0 181.0 C 440.6 181.1, 438.4 180.9, 438.0 181.0 C 437.8 181.1, 437.2 181.9, 437.0 182.0 C 434.8 182.6, 424.2 184.4, 422.0 185.0 C 421.4 185.2, 418.6 186.8, 418.0 187.0 C 417.6 187.1, 415.4 186.9, 415.0 187.0 C 414.8 187.1, 414.2 187.9, 414.0 188.0 C 411.0 189.0, 397.0 193.0, 394.0 194.0 C 393.5 194.2, 391.5 195.8, 391.0 196.0 C 390.3 196.3, 386.7 196.7, 386.0 197.0 C 384.1 197.8, 375.8 202.2, 374.0 203.0 C 373.7 203.1, 372.3 202.9, 372.0 203.0 C 366.5 205.7, 341.3 218.9, 336.0 222.0 C 332.7 223.9, 318.1 233.8, 315.0 236.0 C 312.5 237.8, 301.5 247.1, 299.0 249.0 C 298.9 249.1, 298.1 248.9, 298.0 249.0 C 296.0 250.7, 287.0 259.3, 285.0 261.0 C 284.9 261.1, 284.1 260.9, 284.0 261.0 C 279.4 265.6, 258.4 287.3, 254.0 292.0 C 253.9 292.1, 254.1 292.9, 254.0 293.0 C 253.3 293.8, 249.7 297.2, 249.0 298.0 C 246.7 300.9, 236.1 314.9, 234.0 318.0 C 233.7 318.4, 233.3 320.6, 233.0 321.0 C 231.4 323.5, 223.5 334.5, 222.0 337.0 C 219.4 341.5, 208.3 363.3, 206.0 368.0 C 205.9 368.3, 206.1 369.7, 206.0 370.0 C 205.7 370.8, 203.3 374.2, 203.0 375.0 C 202.4 376.5, 200.6 383.5, 200.0 385.0 C 199.5 386.3, 196.5 391.8, 196.0 393.0 C 195.9 393.3, 196.1 394.7, 196.0 395.0 C 195.8 395.6, 194.2 398.4, 194.0 399.0 C 193.9 399.4, 194.1 401.6, 194.0 402.0 C 193.9 402.2, 193.1 402.8, 193.0 403.0 C 192.9 403.3, 193.1 404.7, 193.0 405.0 C 192.6 406.1, 190.3 410.9, 190.0 412.0 C 189.9 412.4, 190.1 414.6, 190.0 415.0 C 189.8 415.6, 188.2 418.4, 188.0 419.0 C 187.9 419.4, 188.1 421.6, 188.0 422.0 C 187.9 422.2, 187.0 422.8, 187.0 423.0 C 186.9 423.6, 187.1 426.4, 187.0 427.0 C 187.0 427.2, 186.0 427.8, 186.0 428.0 C 185.7 429.2, 185.3 434.8, 185.0 436.0 C 185.0 436.2, 184.0 436.8, 184.0 437.0 C 183.9 437.6, 184.1 440.4, 184.0 441.0 C 184.0 441.2, 183.0 441.8, 183.0 442.0 C 182.6 444.5, 181.4 456.5, 181.0 459.0 C 181.0 459.2, 180.0 459.8, 180.0 460.0 C 179.7 463.1, 179.3 477.9, 179.0 481.0 C 179.0 481.2, 178.0 481.8, 178.0 482.0 Z" fill="#000000" fill-rule="evenodd" />
</svg>
