<?xml version="1.0" encoding="UTF-8"?>
<!--
  Source: /home/kosuke55/drawtonomy/tools/truck.svg
  Modified: viewBox trimmed and preserveAspectRatio="none" added
-->
<svg xmlns="http://www.w3.org/2000/svg" viewBox="347 187 328 1114" preserveAspectRatio="none">
  <path d="M 376.0 394.0 L 373.0 395.0 L 367.0 402.0 L 367.0 1292.0 L 373.0 1299.0 L 378.0 1301.0 L 646.0 1301.0 L 654.0 1295.0 L 656.0 1290.0 L 656.0 404.0 L 653.0 398.0 L 646.0 394.0 Z M 347.0 295.0 L 347.0 299.0 L 350.0 301.0 L 358.0 299.0 L 367.0 294.0 L 369.0 295.0 L 367.0 345.0 L 371.0 350.0 L 372.0 355.0 L 377.0 361.0 L 376.0 363.0 L 372.0 363.0 L 372.0 373.0 L 377.0 376.0 L 384.0 373.0 L 416.0 373.0 L 422.0 378.0 L 423.0 385.0 L 599.0 385.0 L 601.0 377.0 L 607.0 373.0 L 638.0 373.0 L 643.0 376.0 L 646.0 376.0 L 650.0 373.0 L 650.0 363.0 L 646.0 363.0 L 645.0 361.0 L 649.0 357.0 L 652.0 348.0 L 655.0 344.0 L 653.0 295.0 L 654.0 294.0 L 669.0 301.0 L 673.0 301.0 L 675.0 299.0 L 674.0 293.0 L 646.0 273.0 L 648.0 267.0 L 645.0 239.0 L 639.0 214.0 L 633.0 205.0 L 622.0 199.0 L 598.0 193.0 L 539.0 187.0 L 483.0 187.0 L 454.0 189.0 L 415.0 195.0 L 393.0 202.0 L 385.0 210.0 L 380.0 223.0 L 374.0 263.0 L 374.0 271.0 L 376.0 273.0 L 358.0 285.0 Z M 625.0 261.0 L 643.0 270.0 L 636.0 270.0 L 637.0 339.0 L 630.0 350.0 L 628.0 349.0 L 627.0 341.0 L 627.0 293.0 L 625.0 280.0 Z M 396.0 261.0 L 398.0 265.0 L 394.0 302.0 L 394.0 349.0 L 392.0 350.0 L 388.0 346.0 L 384.0 334.0 L 386.0 269.0 L 379.0 272.0 L 377.0 271.0 L 381.0 268.0 L 389.0 266.0 Z M 608.0 208.0 L 613.0 206.0 L 626.0 210.0 L 630.0 215.0 L 630.0 221.0 L 626.0 224.0 L 619.0 222.0 L 611.0 215.0 Z M 412.0 207.0 L 413.0 210.0 L 411.0 214.0 L 404.0 221.0 L 396.0 224.0 L 392.0 221.0 L 392.0 214.0 L 395.0 210.0 L 408.0 206.0 Z M 398.0 248.0 L 409.0 226.0 L 414.0 220.0 L 422.0 214.0 L 443.0 206.0 L 487.0 201.0 L 550.0 202.0 L 573.0 205.0 L 592.0 210.0 L 600.0 214.0 L 612.0 225.0 L 624.0 248.0 L 622.0 249.0 L 612.0 243.0 L 586.0 235.0 L 541.0 229.0 L 487.0 229.0 L 461.0 231.0 L 424.0 238.0 L 410.0 243.0 L 400.0 249.0 Z" fill="#000000" fill-rule="evenodd" />
</svg>
